G04*
G04 #@! TF.GenerationSoftware,Altium Limited,Altium Designer,20.0.13 (296)*
G04*
G04 Layer_Color=128*
%FSLAX24Y24*%
%MOIN*%
G70*
G01*
G75*
%ADD86C,0.0020*%
D86*
X46920Y20400D02*
X47825D01*
X47372Y19947D02*
Y20853D01*
X35975Y20400D02*
X36880D01*
X36428Y19947D02*
Y20853D01*
X47511Y21740D02*
X47629D01*
X47570Y21681D02*
Y21799D01*
X47761Y21500D02*
X47879D01*
X47820Y21441D02*
Y21559D01*
X47761Y21980D02*
X47879D01*
X47820Y21921D02*
Y22039D01*
X47291Y21500D02*
X47409D01*
X47350Y21441D02*
Y21559D01*
X47291Y21980D02*
X47409D01*
X47350Y21921D02*
Y22039D01*
X36191Y21760D02*
X36309D01*
X36250Y21701D02*
Y21819D01*
X36411Y21490D02*
X36529D01*
X36470Y21431D02*
Y21549D01*
X36411Y22010D02*
X36529D01*
X36470Y21951D02*
Y22069D01*
X36001Y21490D02*
X36119D01*
X36060Y21431D02*
Y21549D01*
X35981Y22020D02*
X36099D01*
X36040Y21961D02*
Y22079D01*
X41641Y24690D02*
X41759D01*
X41700Y24631D02*
Y24749D01*
X41629Y24207D02*
X41748D01*
X41688Y24148D02*
Y24266D01*
X41721Y22490D02*
X41839D01*
X41780Y22431D02*
Y22549D01*
X41721Y22170D02*
X41839D01*
X41780Y22111D02*
Y22229D01*
X42881Y24080D02*
X42999D01*
X42940Y24021D02*
Y24139D01*
X42722Y24651D02*
X42840D01*
X42781Y24592D02*
Y24710D01*
X39771Y22120D02*
X39889D01*
X39830Y22061D02*
Y22179D01*
X40241Y21625D02*
X40359D01*
X40300Y21566D02*
Y21684D01*
X39619Y21625D02*
X39737D01*
X39678Y21566D02*
Y21684D01*
X39391Y15520D02*
X39509D01*
X39450Y15461D02*
Y15579D01*
X39041Y21700D02*
X39159D01*
X39100Y21641D02*
Y21759D01*
X36581Y23710D02*
X36699D01*
X36640Y23651D02*
Y23769D01*
X37401Y25380D02*
X37519D01*
X37460Y25321D02*
Y25439D01*
X39801Y25480D02*
X39919D01*
X39860Y25421D02*
Y25539D01*
X46981Y24650D02*
X47099D01*
X47040Y24591D02*
Y24709D01*
X43736Y22227D02*
X43854D01*
X43795Y22168D02*
Y22286D01*
X43911Y21630D02*
X44029D01*
X43970Y21571D02*
Y21689D01*
X44701Y19360D02*
X44819D01*
X44760Y19301D02*
Y19419D01*
X42771Y20300D02*
X42889D01*
X42830Y20241D02*
Y20359D01*
X42551Y18420D02*
X42669D01*
X42610Y18361D02*
Y18479D01*
X43971Y17070D02*
X44089D01*
X44030Y17011D02*
Y17129D01*
X45357Y16133D02*
X45483D01*
X45420Y16070D02*
Y16196D01*
X45357Y15267D02*
X45483D01*
X45420Y15204D02*
Y15330D01*
X45750Y15700D02*
X45876D01*
X45813Y15637D02*
Y15763D01*
X44924Y15700D02*
X45050D01*
X44987Y15637D02*
Y15763D01*
X45042Y16015D02*
X45168D01*
X45105Y15952D02*
Y16078D01*
X45632Y15976D02*
X45758D01*
X45695Y15913D02*
Y16039D01*
X45632Y15424D02*
X45758D01*
X45695Y15361D02*
Y15487D01*
X45042Y15385D02*
X45168D01*
X45105Y15322D02*
Y15448D01*
X45337Y15700D02*
X45463D01*
X45400Y15637D02*
Y15763D01*
X38851Y23990D02*
X38969D01*
X38910Y23931D02*
Y24049D01*
X38461Y24550D02*
X38579D01*
X38520Y24491D02*
Y24609D01*
X43752Y25264D02*
X43870D01*
X43811Y25205D02*
Y25323D01*
X39731Y22730D02*
X39849D01*
X39790Y22671D02*
Y22789D01*
X44377Y25550D02*
X44495D01*
X44436Y25491D02*
Y25609D01*
X46081Y24340D02*
X46199D01*
X46140Y24281D02*
Y24399D01*
X44571Y22400D02*
X44689D01*
X44630Y22341D02*
Y22459D01*
X40553Y18153D02*
X40671D01*
X40612Y18094D02*
Y18212D01*
X41166Y18153D02*
X41284D01*
X41225Y18094D02*
Y18212D01*
X40011Y18440D02*
X40129D01*
X40070Y18381D02*
Y18499D01*
X38591Y18990D02*
X38709D01*
X38650Y18931D02*
Y19049D01*
X38151Y18990D02*
X38269D01*
X38210Y18931D02*
Y19049D01*
X38361Y18770D02*
X38479D01*
X38420Y18711D02*
Y18829D01*
X38151Y18530D02*
X38269D01*
X38210Y18471D02*
Y18589D01*
X38591Y18530D02*
X38709D01*
X38650Y18471D02*
Y18589D01*
X45471Y24950D02*
X45589D01*
X45530Y24891D02*
Y25009D01*
X43038Y25212D02*
X43156D01*
X43097Y25153D02*
Y25272D01*
X42256Y25370D02*
X42374D01*
X42315Y25311D02*
Y25429D01*
X41891Y20300D02*
X42009D01*
X41950Y20241D02*
Y20359D01*
X42481Y20950D02*
X42599D01*
X42540Y20891D02*
Y21009D01*
X43001Y22865D02*
X43119D01*
X43060Y22806D02*
Y22924D01*
X46041Y23446D02*
X46159D01*
X46100Y23387D02*
Y23505D01*
X42166Y19246D02*
X42284D01*
X42225Y19187D02*
Y19305D01*
X36721Y24670D02*
X36839D01*
X36780Y24611D02*
Y24729D01*
X39391Y24180D02*
X39509D01*
X39450Y24121D02*
Y24239D01*
X39282Y24513D02*
X39400D01*
X39341Y24454D02*
Y24572D01*
X41571Y25950D02*
X41689D01*
X41630Y25891D02*
Y26009D01*
X41931Y25950D02*
X42049D01*
X41990Y25891D02*
Y26009D01*
X40911Y25950D02*
X41029D01*
X40970Y25891D02*
Y26009D01*
X41241Y25950D02*
X41359D01*
X41300Y25891D02*
Y26009D01*
X44571Y23690D02*
X44689D01*
X44630Y23631D02*
Y23749D01*
X44571Y24495D02*
X44689D01*
X44630Y24436D02*
Y24554D01*
X43937Y14750D02*
X44063D01*
X44000Y14687D02*
Y14813D01*
X43642Y14435D02*
X43768D01*
X43705Y14372D02*
Y14498D01*
X44232Y14474D02*
X44358D01*
X44295Y14411D02*
Y14537D01*
X44232Y15026D02*
X44358D01*
X44295Y14963D02*
Y15089D01*
X43642Y15065D02*
X43768D01*
X43705Y15002D02*
Y15128D01*
X43524Y14750D02*
X43650D01*
X43587Y14687D02*
Y14813D01*
X44350Y14750D02*
X44476D01*
X44413Y14687D02*
Y14813D01*
X43957Y14317D02*
X44083D01*
X44020Y14254D02*
Y14380D01*
X43957Y15183D02*
X44083D01*
X44020Y15120D02*
Y15246D01*
X37531Y19610D02*
X37649D01*
X37590Y19551D02*
Y19669D01*
X37541Y21130D02*
X37659D01*
X37600Y21071D02*
Y21189D01*
X39011Y19550D02*
X39129D01*
X39070Y19491D02*
Y19609D01*
X39041Y20280D02*
X39159D01*
X39100Y20221D02*
Y20339D01*
X39015Y21055D02*
X39134D01*
X39075Y20995D02*
Y21114D01*
X44791Y21250D02*
X44909D01*
X44850Y21191D02*
Y21309D01*
M02*
