G04*
G04 #@! TF.GenerationSoftware,Altium Limited,Altium Designer,20.0.13 (296)*
G04*
G04 Layer_Color=2752767*
%FSLAX24Y24*%
%MOIN*%
G70*
G01*
G75*
%ADD86C,0.0020*%
%ADD87C,0.0027*%
D86*
X47292Y20320D02*
Y20480D01*
X47452D01*
Y20320D01*
X47292D01*
X36348D02*
Y20480D01*
X36508D01*
Y20320D01*
X36348D01*
X45420Y16053D02*
X45340Y16213D01*
X45500D01*
X45420Y16053D01*
Y15187D02*
X45340Y15347D01*
X45500D01*
X45420Y15187D01*
X45813Y15620D02*
X45733Y15780D01*
X45893D01*
X45813Y15620D01*
X44987D02*
X44907Y15780D01*
X45067D01*
X44987Y15620D01*
X45105Y15935D02*
X45025Y16095D01*
X45185D01*
X45105Y15935D01*
X45695Y15896D02*
X45615Y16056D01*
X45775D01*
X45695Y15896D01*
Y15344D02*
X45615Y15504D01*
X45775D01*
X45695Y15344D01*
X45105Y15305D02*
X45025Y15465D01*
X45185D01*
X45105Y15305D01*
X45400Y15620D02*
X45320Y15780D01*
X45480D01*
X45400Y15620D01*
X44000Y14670D02*
X43920Y14830D01*
X44080D01*
X44000Y14670D01*
X43705Y14355D02*
X43625Y14515D01*
X43785D01*
X43705Y14355D01*
X44295Y14394D02*
X44215Y14554D01*
X44375D01*
X44295Y14394D01*
Y14946D02*
X44215Y15106D01*
X44375D01*
X44295Y14946D01*
X43705Y14985D02*
X43625Y15145D01*
X43785D01*
X43705Y14985D01*
X43587Y14670D02*
X43507Y14830D01*
X43667D01*
X43587Y14670D01*
X44413D02*
X44333Y14830D01*
X44493D01*
X44413Y14670D01*
X44020Y14237D02*
X43940Y14397D01*
X44100D01*
X44020Y14237D01*
Y15103D02*
X43940Y15263D01*
X44100D01*
X44020Y15103D01*
D87*
X47650Y21740D02*
G03*
X47650Y21740I-80J0D01*
G01*
X47900Y21500D02*
G03*
X47900Y21500I-80J0D01*
G01*
Y21980D02*
G03*
X47900Y21980I-80J0D01*
G01*
X47430Y21500D02*
G03*
X47430Y21500I-80J0D01*
G01*
Y21980D02*
G03*
X47430Y21980I-80J0D01*
G01*
X36330Y21760D02*
G03*
X36330Y21760I-80J0D01*
G01*
X36550Y21490D02*
G03*
X36550Y21490I-80J0D01*
G01*
Y22010D02*
G03*
X36550Y22010I-80J0D01*
G01*
X36140Y21490D02*
G03*
X36140Y21490I-80J0D01*
G01*
X36120Y22020D02*
G03*
X36120Y22020I-80J0D01*
G01*
X41780Y24690D02*
G03*
X41780Y24690I-80J0D01*
G01*
X41768Y24207D02*
G03*
X41768Y24207I-80J0D01*
G01*
X41860Y22490D02*
G03*
X41860Y22490I-80J0D01*
G01*
Y22170D02*
G03*
X41860Y22170I-80J0D01*
G01*
X43020Y24080D02*
G03*
X43020Y24080I-80J0D01*
G01*
X42861Y24651D02*
G03*
X42861Y24651I-80J0D01*
G01*
X39910Y22120D02*
G03*
X39910Y22120I-80J0D01*
G01*
X40380Y21625D02*
G03*
X40380Y21625I-80J0D01*
G01*
X39758D02*
G03*
X39758Y21625I-80J0D01*
G01*
X39530Y15520D02*
G03*
X39530Y15520I-80J0D01*
G01*
X39180Y21700D02*
G03*
X39180Y21700I-80J0D01*
G01*
X36720Y23710D02*
G03*
X36720Y23710I-80J0D01*
G01*
X37540Y25380D02*
G03*
X37540Y25380I-80J0D01*
G01*
X39940Y25480D02*
G03*
X39940Y25480I-80J0D01*
G01*
X47120Y24650D02*
G03*
X47120Y24650I-80J0D01*
G01*
X43875Y22227D02*
G03*
X43875Y22227I-80J0D01*
G01*
X44050Y21630D02*
G03*
X44050Y21630I-80J0D01*
G01*
X44840Y19360D02*
G03*
X44840Y19360I-80J0D01*
G01*
X42910Y20300D02*
G03*
X42910Y20300I-80J0D01*
G01*
X42690Y18420D02*
G03*
X42690Y18420I-80J0D01*
G01*
X44110Y17070D02*
G03*
X44110Y17070I-80J0D01*
G01*
X38990Y23990D02*
G03*
X38990Y23990I-80J0D01*
G01*
X38600Y24550D02*
G03*
X38600Y24550I-80J0D01*
G01*
X43891Y25264D02*
G03*
X43891Y25264I-80J0D01*
G01*
X39870Y22730D02*
G03*
X39870Y22730I-80J0D01*
G01*
X44516Y25550D02*
G03*
X44516Y25550I-80J0D01*
G01*
X46220Y24340D02*
G03*
X46220Y24340I-80J0D01*
G01*
X44710Y22400D02*
G03*
X44710Y22400I-80J0D01*
G01*
X40692Y18153D02*
G03*
X40692Y18153I-80J0D01*
G01*
X41305D02*
G03*
X41305Y18153I-80J0D01*
G01*
X40150Y18440D02*
G03*
X40150Y18440I-80J0D01*
G01*
X38730Y18990D02*
G03*
X38730Y18990I-80J0D01*
G01*
X38290D02*
G03*
X38290Y18990I-80J0D01*
G01*
X38500Y18770D02*
G03*
X38500Y18770I-80J0D01*
G01*
X38290Y18530D02*
G03*
X38290Y18530I-80J0D01*
G01*
X38730D02*
G03*
X38730Y18530I-80J0D01*
G01*
X45610Y24950D02*
G03*
X45610Y24950I-80J0D01*
G01*
X43177Y25212D02*
G03*
X43177Y25212I-80J0D01*
G01*
X42395Y25370D02*
G03*
X42395Y25370I-80J0D01*
G01*
X42030Y20300D02*
G03*
X42030Y20300I-80J0D01*
G01*
X42620Y20950D02*
G03*
X42620Y20950I-80J0D01*
G01*
X43140Y22865D02*
G03*
X43140Y22865I-80J0D01*
G01*
X46180Y23446D02*
G03*
X46180Y23446I-80J0D01*
G01*
X42305Y19246D02*
G03*
X42305Y19246I-80J0D01*
G01*
X36860Y24670D02*
G03*
X36860Y24670I-80J0D01*
G01*
X39530Y24180D02*
G03*
X39530Y24180I-80J0D01*
G01*
X39421Y24513D02*
G03*
X39421Y24513I-80J0D01*
G01*
X41710Y25950D02*
G03*
X41710Y25950I-80J0D01*
G01*
X42070D02*
G03*
X42070Y25950I-80J0D01*
G01*
X41050D02*
G03*
X41050Y25950I-80J0D01*
G01*
X41380D02*
G03*
X41380Y25950I-80J0D01*
G01*
X44710Y23690D02*
G03*
X44710Y23690I-80J0D01*
G01*
Y24495D02*
G03*
X44710Y24495I-80J0D01*
G01*
X37670Y19610D02*
G03*
X37670Y19610I-80J0D01*
G01*
X37680Y21130D02*
G03*
X37680Y21130I-80J0D01*
G01*
X39150Y19550D02*
G03*
X39150Y19550I-80J0D01*
G01*
X39180Y20280D02*
G03*
X39180Y20280I-80J0D01*
G01*
X39155Y21055D02*
G03*
X39155Y21055I-80J0D01*
G01*
X44930Y21250D02*
G03*
X44930Y21250I-80J0D01*
G01*
M02*
