G04*
G04 #@! TF.GenerationSoftware,Altium Limited,Altium Designer,20.0.13 (296)*
G04*
G04 Layer_Color=8388736*
%FSLAX24Y24*%
%MOIN*%
G70*
G01*
G75*
G04:AMPARAMS|DCode=46|XSize=31.5mil|YSize=74.8mil|CornerRadius=0mil|HoleSize=0mil|Usage=FLASHONLY|Rotation=140.000|XOffset=0mil|YOffset=0mil|HoleType=Round|Shape=Rectangle|*
%AMROTATEDRECTD46*
4,1,4,0.0361,0.0185,-0.0120,-0.0388,-0.0361,-0.0185,0.0120,0.0388,0.0361,0.0185,0.0*
%
%ADD46ROTATEDRECTD46*%

G04:AMPARAMS|DCode=47|XSize=47.2mil|YSize=86.6mil|CornerRadius=13.8mil|HoleSize=0mil|Usage=FLASHONLY|Rotation=320.000|XOffset=0mil|YOffset=0mil|HoleType=Round|Shape=RoundedRectangle|*
%AMROUNDEDRECTD47*
21,1,0.0472,0.0591,0,0,320.0*
21,1,0.0197,0.0866,0,0,320.0*
1,1,0.0276,-0.0114,-0.0289*
1,1,0.0276,-0.0265,-0.0163*
1,1,0.0276,0.0114,0.0289*
1,1,0.0276,0.0265,0.0163*
%
%ADD47ROUNDEDRECTD47*%
%ADD48R,0.0315X0.0748*%
%ADD49R,0.0472X0.1181*%
%ADD50C,0.1220*%
%ADD51R,0.0480X0.0395*%
%ADD52R,0.0395X0.0480*%
%ADD53R,0.0257X0.0474*%
%ADD54R,0.0380X0.0430*%
%ADD55R,0.0208X0.0474*%
%ADD56R,0.0430X0.0380*%
%ADD57R,0.0787X0.0394*%
G04:AMPARAMS|DCode=58|XSize=100.4mil|YSize=26.2mil|CornerRadius=3.6mil|HoleSize=0mil|Usage=FLASHONLY|Rotation=180.000|XOffset=0mil|YOffset=0mil|HoleType=Round|Shape=RoundedRectangle|*
%AMROUNDEDRECTD58*
21,1,0.1004,0.0189,0,0,180.0*
21,1,0.0931,0.0262,0,0,180.0*
1,1,0.0073,-0.0466,0.0095*
1,1,0.0073,0.0466,0.0095*
1,1,0.0073,0.0466,-0.0095*
1,1,0.0073,-0.0466,-0.0095*
%
%ADD58ROUNDEDRECTD58*%
G04:AMPARAMS|DCode=59|XSize=100.4mil|YSize=43.3mil|CornerRadius=4.9mil|HoleSize=0mil|Usage=FLASHONLY|Rotation=180.000|XOffset=0mil|YOffset=0mil|HoleType=Round|Shape=RoundedRectangle|*
%AMROUNDEDRECTD59*
21,1,0.1004,0.0335,0,0,180.0*
21,1,0.0906,0.0433,0,0,180.0*
1,1,0.0098,-0.0453,0.0167*
1,1,0.0098,0.0453,0.0167*
1,1,0.0098,0.0453,-0.0167*
1,1,0.0098,-0.0453,-0.0167*
%
%ADD59ROUNDEDRECTD59*%
G04:AMPARAMS|DCode=60|XSize=21.7mil|YSize=21.7mil|CornerRadius=4.2mil|HoleSize=0mil|Usage=FLASHONLY|Rotation=180.000|XOffset=0mil|YOffset=0mil|HoleType=Round|Shape=RoundedRectangle|*
%AMROUNDEDRECTD60*
21,1,0.0217,0.0133,0,0,180.0*
21,1,0.0133,0.0217,0,0,180.0*
1,1,0.0084,-0.0066,0.0066*
1,1,0.0084,0.0066,0.0066*
1,1,0.0084,0.0066,-0.0066*
1,1,0.0084,-0.0066,-0.0066*
%
%ADD60ROUNDEDRECTD60*%
G04:AMPARAMS|DCode=61|XSize=15.7mil|YSize=23.6mil|CornerRadius=3.4mil|HoleSize=0mil|Usage=FLASHONLY|Rotation=90.000|XOffset=0mil|YOffset=0mil|HoleType=Round|Shape=RoundedRectangle|*
%AMROUNDEDRECTD61*
21,1,0.0157,0.0167,0,0,90.0*
21,1,0.0089,0.0236,0,0,90.0*
1,1,0.0069,0.0084,0.0044*
1,1,0.0069,0.0084,-0.0044*
1,1,0.0069,-0.0084,-0.0044*
1,1,0.0069,-0.0084,0.0044*
%
%ADD61ROUNDEDRECTD61*%
G04:AMPARAMS|DCode=62|XSize=55.1mil|YSize=39.4mil|CornerRadius=4.6mil|HoleSize=0mil|Usage=FLASHONLY|Rotation=90.000|XOffset=0mil|YOffset=0mil|HoleType=Round|Shape=RoundedRectangle|*
%AMROUNDEDRECTD62*
21,1,0.0551,0.0301,0,0,90.0*
21,1,0.0459,0.0394,0,0,90.0*
1,1,0.0093,0.0151,0.0229*
1,1,0.0093,0.0151,-0.0229*
1,1,0.0093,-0.0151,-0.0229*
1,1,0.0093,-0.0151,0.0229*
%
%ADD62ROUNDEDRECTD62*%
%ADD63R,0.0680X0.0710*%
%ADD64R,0.0513X0.0592*%
%ADD65R,0.0277X0.0552*%
G04:AMPARAMS|DCode=66|XSize=58mil|YSize=43mil|CornerRadius=0mil|HoleSize=0mil|Usage=FLASHONLY|Rotation=180.000|XOffset=0mil|YOffset=0mil|HoleType=Round|Shape=Octagon|*
%AMOCTAGOND66*
4,1,8,-0.0290,0.0108,-0.0290,-0.0108,-0.0183,-0.0215,0.0183,-0.0215,0.0290,-0.0108,0.0290,0.0108,0.0183,0.0215,-0.0183,0.0215,-0.0290,0.0108,0.0*
%
%ADD66OCTAGOND66*%

%ADD67R,0.0580X0.0430*%
%ADD68R,0.1694X0.1694*%
%ADD69O,0.0190X0.0513*%
%ADD70O,0.0513X0.0190*%
%ADD71C,0.1379*%
%ADD72C,0.0316*%
D46*
X37959Y17578D02*
D03*
X38336Y17262D02*
D03*
X38713Y16945D02*
D03*
X39090Y16629D02*
D03*
X39844Y15996D02*
D03*
X39467Y16313D02*
D03*
D47*
X36554Y17036D02*
D03*
X39554Y14518D02*
D03*
D48*
X42146Y15541D02*
D03*
X41654D02*
D03*
D49*
X42874Y14222D02*
D03*
X40926D02*
D03*
D50*
X44000Y14750D02*
D03*
X45400Y15700D02*
D03*
D51*
X41535Y16400D02*
D03*
X42265D02*
D03*
X47315Y22515D02*
D03*
X46585D02*
D03*
X45135D02*
D03*
X45865D02*
D03*
X45615Y25550D02*
D03*
X44885D02*
D03*
X38665Y22500D02*
D03*
X37935D02*
D03*
X36435D02*
D03*
X37165D02*
D03*
X37985Y25550D02*
D03*
X38715D02*
D03*
D52*
X42980Y16450D02*
D03*
Y17180D02*
D03*
X43620Y18115D02*
D03*
Y18845D02*
D03*
X42980Y17925D02*
D03*
Y18655D02*
D03*
X48000Y22465D02*
D03*
Y21735D02*
D03*
X47150Y24165D02*
D03*
Y23435D02*
D03*
X35700Y22465D02*
D03*
Y21735D02*
D03*
X38500Y24115D02*
D03*
Y23385D02*
D03*
D53*
X44404Y16337D02*
D03*
X44030D02*
D03*
X43656D02*
D03*
Y17437D02*
D03*
X44030D02*
D03*
X44404D02*
D03*
X42974Y19849D02*
D03*
X42226D02*
D03*
X42600D02*
D03*
X42226Y20951D02*
D03*
X42974D02*
D03*
X46474Y23249D02*
D03*
X45726D02*
D03*
X46100D02*
D03*
X45726Y24351D02*
D03*
X46474D02*
D03*
D54*
X45050Y17320D02*
D03*
Y16630D02*
D03*
X44240Y18150D02*
D03*
Y18840D02*
D03*
D55*
X41772Y17050D02*
D03*
X41516D02*
D03*
Y18150D02*
D03*
X41772D02*
D03*
X42028D02*
D03*
X42284D02*
D03*
X42028Y17050D02*
D03*
X42284D02*
D03*
D56*
X41560Y18800D02*
D03*
X42250D02*
D03*
X43652Y19651D02*
D03*
X44342D02*
D03*
X44332Y21251D02*
D03*
X43642D02*
D03*
X42260Y21550D02*
D03*
X42950D02*
D03*
X42260Y22100D02*
D03*
X42950D02*
D03*
X44140Y22500D02*
D03*
X43450D02*
D03*
X45960Y24950D02*
D03*
X46650D02*
D03*
X43460D02*
D03*
X44150D02*
D03*
X43450Y25549D02*
D03*
X42760D02*
D03*
X39460Y19650D02*
D03*
X40150D02*
D03*
X40140Y21251D02*
D03*
X39450D02*
D03*
Y22400D02*
D03*
X40140D02*
D03*
X37160Y24950D02*
D03*
X37850D02*
D03*
X39290D02*
D03*
X38600D02*
D03*
D57*
X45040Y18083D02*
D03*
Y18870D02*
D03*
D58*
X45496Y19993D02*
D03*
X38300Y19994D02*
D03*
D59*
X45496Y20422D02*
D03*
X38300Y20423D02*
D03*
D60*
X45112Y20790D02*
D03*
X45368D02*
D03*
X45624D02*
D03*
X45880D02*
D03*
Y19707D02*
D03*
X45624D02*
D03*
X45368D02*
D03*
X45112D02*
D03*
X37916Y20791D02*
D03*
X38172D02*
D03*
X38428D02*
D03*
X38684D02*
D03*
Y19709D02*
D03*
X38428D02*
D03*
X38172D02*
D03*
X37916D02*
D03*
D61*
X43637Y20746D02*
D03*
Y20549D02*
D03*
Y20352D02*
D03*
Y20155D02*
D03*
X44346D02*
D03*
Y20352D02*
D03*
Y20549D02*
D03*
Y20746D02*
D03*
X40154Y20155D02*
D03*
Y20352D02*
D03*
Y20548D02*
D03*
Y20745D02*
D03*
X39446D02*
D03*
Y20548D02*
D03*
Y20352D02*
D03*
Y20155D02*
D03*
D62*
X43992Y20451D02*
D03*
X39800Y20450D02*
D03*
D63*
X46875Y21650D02*
D03*
X45525D02*
D03*
X36875D02*
D03*
X38225D02*
D03*
D64*
X43430Y24190D02*
D03*
X44220D02*
D03*
X43430Y23220D02*
D03*
X44220D02*
D03*
D65*
X37874Y24301D02*
D03*
X37126D02*
D03*
X37500Y23199D02*
D03*
X37126D02*
D03*
X37874D02*
D03*
D66*
X44000Y26197D02*
D03*
X39600D02*
D03*
D67*
X44700D02*
D03*
X38900D02*
D03*
D68*
X41100Y24200D02*
D03*
D69*
X41888Y25370D02*
D03*
X41692D02*
D03*
X41495D02*
D03*
X41298D02*
D03*
X41101D02*
D03*
X40904D02*
D03*
X40707D02*
D03*
X40510D02*
D03*
X40310D02*
D03*
X40316Y23030D02*
D03*
X40512D02*
D03*
X40709D02*
D03*
X40906D02*
D03*
X41103D02*
D03*
X41300D02*
D03*
X41497D02*
D03*
X41694D02*
D03*
X41890D02*
D03*
D70*
X39930Y23416D02*
D03*
Y23612D02*
D03*
Y23809D02*
D03*
Y24006D02*
D03*
Y24203D02*
D03*
Y24400D02*
D03*
Y24597D02*
D03*
Y24794D02*
D03*
Y24990D02*
D03*
X42270Y24994D02*
D03*
Y24798D02*
D03*
Y24601D02*
D03*
Y24404D02*
D03*
Y24207D02*
D03*
Y24010D02*
D03*
Y23813D02*
D03*
Y23616D02*
D03*
Y23420D02*
D03*
D71*
X47372Y20400D02*
D03*
X36428D02*
D03*
D72*
X47570Y21740D02*
D03*
X47820Y21500D02*
D03*
Y21980D02*
D03*
X47350Y21500D02*
D03*
Y21980D02*
D03*
X36250Y21760D02*
D03*
X36470Y21490D02*
D03*
Y22010D02*
D03*
X36060Y21490D02*
D03*
X36040Y22020D02*
D03*
X41700Y24690D02*
D03*
X41688Y24207D02*
D03*
X41780Y22490D02*
D03*
Y22170D02*
D03*
X42940Y24080D02*
D03*
X42781Y24651D02*
D03*
X39830Y22120D02*
D03*
X40300Y21625D02*
D03*
X39678D02*
D03*
X39450Y15520D02*
D03*
X39100Y21700D02*
D03*
X36640Y23710D02*
D03*
X37460Y25380D02*
D03*
X39860Y25480D02*
D03*
X47040Y24650D02*
D03*
X43795Y22227D02*
D03*
X43970Y21630D02*
D03*
X44760Y19360D02*
D03*
X42830Y20300D02*
D03*
X42610Y18420D02*
D03*
X44030Y17070D02*
D03*
X38910Y23990D02*
D03*
X38520Y24550D02*
D03*
X43811Y25264D02*
D03*
X39790Y22730D02*
D03*
X44436Y25550D02*
D03*
X46140Y24340D02*
D03*
X44630Y22400D02*
D03*
X40612Y18153D02*
D03*
X41225D02*
D03*
X40070Y18440D02*
D03*
X38650Y18990D02*
D03*
X38210D02*
D03*
X38420Y18770D02*
D03*
X38210Y18530D02*
D03*
X38650D02*
D03*
X45530Y24950D02*
D03*
X43097Y25212D02*
D03*
X42315Y25370D02*
D03*
X41950Y20300D02*
D03*
X42540Y20950D02*
D03*
X43060Y22865D02*
D03*
X46100Y23446D02*
D03*
X42225Y19246D02*
D03*
X36780Y24670D02*
D03*
X39450Y24180D02*
D03*
X39341Y24513D02*
D03*
X41630Y25950D02*
D03*
X41990D02*
D03*
X40970D02*
D03*
X41300D02*
D03*
X44630Y23690D02*
D03*
Y24495D02*
D03*
X37590Y19610D02*
D03*
X37600Y21130D02*
D03*
X39070Y19550D02*
D03*
X39100Y20280D02*
D03*
X39075Y21055D02*
D03*
X44850Y21250D02*
D03*
M02*
