G04*
G04 #@! TF.GenerationSoftware,Altium Limited,Altium Designer,20.0.13 (296)*
G04*
G04 Layer_Color=32768*
%FSLAX24Y24*%
%MOIN*%
G70*
G01*
G75*
%ADD16C,0.0039*%
%ADD85C,0.0020*%
%ADD86C,0.0050*%
D16*
X41703Y20400D02*
X42097D01*
X41900Y20203D02*
Y20597D01*
X43380Y16087D02*
Y17687D01*
X44680Y16087D02*
Y17687D01*
X43380Y16087D02*
X44680D01*
X43380Y17687D02*
X44680D01*
X41250Y16800D02*
Y18400D01*
X42550Y16800D02*
Y18400D01*
X41250Y16800D02*
X42550D01*
X41250Y18400D02*
X42550D01*
X41950Y19600D02*
Y21200D01*
Y19600D02*
X43250D01*
Y21200D01*
X41950D02*
X43250D01*
X45450Y23000D02*
Y24600D01*
Y23000D02*
X46750D01*
Y24600D01*
X45450D02*
X46750D01*
X36850D02*
X38150D01*
Y22900D02*
Y24600D01*
X36850Y22900D02*
X38150D01*
X36850D02*
Y24600D01*
D85*
X42718Y22030D02*
G03*
X42718Y22030I-138J0D01*
G01*
X45028Y15480D02*
G03*
X45028Y15480I-138J0D01*
G01*
X45688Y15670D02*
G03*
X45688Y15670I-138J0D01*
G01*
X44138Y19850D02*
G03*
X44138Y19850I-138J0D01*
G01*
X44168Y16887D02*
G03*
X44168Y16887I-138J0D01*
G01*
X45188Y16980D02*
G03*
X45188Y16980I-138J0D01*
G01*
X44378Y18490D02*
G03*
X44378Y18490I-138J0D01*
G01*
X42038Y17600D02*
G03*
X42038Y17600I-138J0D01*
G01*
Y18800D02*
G03*
X42038Y18800I-138J0D01*
G01*
X44129Y19651D02*
G03*
X44129Y19651I-138J0D01*
G01*
X42738Y20400D02*
G03*
X42738Y20400I-138J0D01*
G01*
X44128Y21300D02*
G03*
X44128Y21300I-138J0D01*
G01*
X42718Y21490D02*
G03*
X42718Y21490I-138J0D01*
G01*
Y22590D02*
G03*
X42718Y22590I-138J0D01*
G01*
X43938Y22500D02*
G03*
X43938Y22500I-138J0D01*
G01*
X46238Y23800D02*
G03*
X46238Y23800I-138J0D01*
G01*
X46438Y24950D02*
G03*
X46438Y24950I-138J0D01*
G01*
X43938D02*
G03*
X43938Y24950I-138J0D01*
G01*
X43238Y25549D02*
G03*
X43238Y25549I-138J0D01*
G01*
X39938Y19650D02*
G03*
X39938Y19650I-138J0D01*
G01*
Y21251D02*
G03*
X39938Y21251I-138J0D01*
G01*
X40078Y22530D02*
G03*
X40078Y22530I-138J0D01*
G01*
X37638Y23750D02*
G03*
X37638Y23750I-138J0D01*
G01*
Y24950D02*
G03*
X37638Y24950I-138J0D01*
G01*
X39068Y24990D02*
G03*
X39068Y24990I-138J0D01*
G01*
X44488Y26200D02*
G03*
X44488Y26200I-138J0D01*
G01*
X39388Y26195D02*
G03*
X39388Y26195I-138J0D01*
G01*
X42383Y22030D02*
X42777D01*
X42580Y21833D02*
Y22227D01*
X44739Y15607D02*
X45041Y15353D01*
X44763Y15329D02*
X45017Y15631D01*
X45399Y15797D02*
X45701Y15543D01*
X45423Y15519D02*
X45677Y15821D01*
X43803Y19850D02*
X44197D01*
X44000Y19653D02*
Y20047D01*
X43833Y16887D02*
X44227D01*
X44030Y16690D02*
Y17084D01*
X45050Y16783D02*
Y17177D01*
X44853Y16980D02*
X45247D01*
X44240Y18293D02*
Y18687D01*
X44043Y18490D02*
X44437D01*
X41703Y17600D02*
X42097D01*
X41900Y17403D02*
Y17797D01*
X41703Y18800D02*
X42097D01*
X41900Y18603D02*
Y18997D01*
X44892Y18476D02*
X45188D01*
X45040Y18329D02*
Y18624D01*
X43795Y19651D02*
X44188D01*
X43992Y19454D02*
Y19847D01*
X42403Y20400D02*
X42797D01*
X42600Y20203D02*
Y20597D01*
X43793Y21300D02*
X44187D01*
X43990Y21103D02*
Y21497D01*
X42383Y21490D02*
X42777D01*
X42580Y21293D02*
Y21687D01*
X42383Y22590D02*
X42777D01*
X42580Y22393D02*
Y22787D01*
X43603Y22500D02*
X43997D01*
X43800Y22303D02*
Y22697D01*
X45903Y23800D02*
X46297D01*
X46100Y23603D02*
Y23997D01*
X46103Y24950D02*
X46497D01*
X46300Y24753D02*
Y25147D01*
X43603Y24950D02*
X43997D01*
X43800Y24753D02*
Y25147D01*
X43100Y25353D02*
Y25746D01*
X42903Y25549D02*
X43297D01*
X39603Y19650D02*
X39997D01*
X39800Y19453D02*
Y19847D01*
X39603Y21251D02*
X39997D01*
X39800Y21054D02*
Y21447D01*
X39743Y22530D02*
X40137D01*
X39940Y22333D02*
Y22727D01*
X37500Y23553D02*
Y23947D01*
X37303Y23750D02*
X37697D01*
X37303Y24950D02*
X37697D01*
X37500Y24753D02*
Y25147D01*
X38733Y24990D02*
X39127D01*
X38930Y24793D02*
Y25187D01*
X44350Y26003D02*
Y26397D01*
X44153Y26200D02*
X44547D01*
X39250Y25998D02*
Y26392D01*
X39053Y26195D02*
X39447D01*
D86*
X43990Y21780D02*
Y21980D01*
X43890Y21880D02*
X44090D01*
X41900Y16300D02*
Y16500D01*
X41800Y16400D02*
X42000D01*
X42880Y16815D02*
X43080D01*
X42980Y16715D02*
Y16915D01*
X43520Y18480D02*
X43720D01*
X43620Y18380D02*
Y18580D01*
X42880Y18290D02*
X43080D01*
X42980Y18190D02*
Y18390D01*
X46200Y21450D02*
Y21850D01*
X46000Y21650D02*
X46400D01*
X47900Y22100D02*
X48100D01*
X48000Y22000D02*
Y22200D01*
X46950Y22415D02*
Y22615D01*
X46850Y22515D02*
X47050D01*
X45500Y22415D02*
Y22615D01*
X45400Y22515D02*
X45600D01*
X47050Y23800D02*
X47250D01*
X47150Y23700D02*
Y23900D01*
X45250Y25450D02*
Y25650D01*
X45150Y25550D02*
X45350D01*
X37550Y21450D02*
Y21850D01*
X37350Y21650D02*
X37750D01*
X38298Y22403D02*
Y22603D01*
X38198Y22503D02*
X38398D01*
X36800Y22400D02*
Y22600D01*
X36700Y22500D02*
X36900D01*
X35600Y22100D02*
X35800D01*
X35700Y22000D02*
Y22200D01*
X38400Y23750D02*
X38600D01*
X38500Y23650D02*
Y23850D01*
X38350Y25450D02*
Y25650D01*
X38250Y25550D02*
X38450D01*
M02*
