G04*
G04 #@! TF.GenerationSoftware,Altium Limited,Altium Designer,20.0.13 (296)*
G04*
G04 Layer_Color=16711935*
%FSLAX24Y24*%
%MOIN*%
G70*
G01*
G75*
%ADD54R,0.0380X0.0430*%
%ADD71C,0.1379*%
%ADD72C,0.0316*%
G04:AMPARAMS|DCode=81|XSize=55.2mil|YSize=21.8mil|CornerRadius=7.4mil|HoleSize=0mil|Usage=FLASHONLY|Rotation=180.000|XOffset=0mil|YOffset=0mil|HoleType=Round|Shape=RoundedRectangle|*
%AMROUNDEDRECTD81*
21,1,0.0552,0.0069,0,0,180.0*
21,1,0.0404,0.0218,0,0,180.0*
1,1,0.0149,-0.0202,0.0034*
1,1,0.0149,0.0202,0.0034*
1,1,0.0149,0.0202,-0.0034*
1,1,0.0149,-0.0202,-0.0034*
%
%ADD81ROUNDEDRECTD81*%
D54*
X44000Y20200D02*
D03*
Y19510D02*
D03*
D71*
X47372Y20400D02*
D03*
X36428D02*
D03*
D72*
X47570Y21740D02*
D03*
X47820Y21500D02*
D03*
Y21980D02*
D03*
X47350Y21500D02*
D03*
Y21980D02*
D03*
X36250Y21760D02*
D03*
X36470Y21490D02*
D03*
Y22010D02*
D03*
X36060Y21490D02*
D03*
X36040Y22020D02*
D03*
X41700Y24690D02*
D03*
X41688Y24207D02*
D03*
X41780Y22490D02*
D03*
Y22170D02*
D03*
X42940Y24080D02*
D03*
X42781Y24651D02*
D03*
X39830Y22120D02*
D03*
X40300Y21625D02*
D03*
X39678D02*
D03*
X39450Y15520D02*
D03*
X39100Y21700D02*
D03*
X36640Y23710D02*
D03*
X37460Y25380D02*
D03*
X39860Y25480D02*
D03*
X47040Y24650D02*
D03*
X43795Y22227D02*
D03*
X43970Y21630D02*
D03*
X44760Y19360D02*
D03*
X42830Y20300D02*
D03*
X42610Y18420D02*
D03*
X44030Y17070D02*
D03*
X38910Y23990D02*
D03*
X38520Y24550D02*
D03*
X43811Y25264D02*
D03*
X39790Y22730D02*
D03*
X44436Y25550D02*
D03*
X46140Y24340D02*
D03*
X44630Y22400D02*
D03*
X40612Y18153D02*
D03*
X41225D02*
D03*
X40070Y18440D02*
D03*
X38650Y18990D02*
D03*
X38210D02*
D03*
X38420Y18770D02*
D03*
X38210Y18530D02*
D03*
X38650D02*
D03*
X45530Y24950D02*
D03*
X43097Y25212D02*
D03*
X42315Y25370D02*
D03*
X41950Y20300D02*
D03*
X42540Y20950D02*
D03*
X43060Y22865D02*
D03*
X46100Y23446D02*
D03*
X42225Y19246D02*
D03*
X36780Y24670D02*
D03*
X39450Y24180D02*
D03*
X39341Y24513D02*
D03*
X41630Y25950D02*
D03*
X41990D02*
D03*
X40970D02*
D03*
X41300D02*
D03*
X44630Y23690D02*
D03*
Y24495D02*
D03*
X37590Y19610D02*
D03*
X37600Y21130D02*
D03*
X39070Y19550D02*
D03*
X39100Y20280D02*
D03*
X39075Y21055D02*
D03*
X44850Y21250D02*
D03*
D81*
X43278Y19504D02*
D03*
X40522D02*
D03*
X43278Y21296D02*
D03*
Y21040D02*
D03*
Y20784D02*
D03*
Y20528D02*
D03*
Y20272D02*
D03*
Y20016D02*
D03*
Y19760D02*
D03*
X40522D02*
D03*
Y20016D02*
D03*
Y20272D02*
D03*
Y20528D02*
D03*
Y20784D02*
D03*
Y21040D02*
D03*
Y21296D02*
D03*
M02*
