G04*
G04 #@! TF.GenerationSoftware,Altium Limited,Altium Designer,20.0.13 (296)*
G04*
G04 Layer_Color=16711935*
%FSLAX24Y24*%
%MOIN*%
G70*
G01*
G75*
%ADD16C,0.0039*%
%ADD83C,0.0004*%
D16*
X44521Y17002D02*
G03*
X44521Y17002I-100J0D01*
G01*
X42391Y17715D02*
G03*
X42391Y17715I-100J0D01*
G01*
X42309Y20285D02*
G03*
X42309Y20285I-100J0D01*
G01*
X45809Y23685D02*
G03*
X45809Y23685I-100J0D01*
G01*
X37209Y23635D02*
G03*
X37209Y23635I-100J0D01*
G01*
X43439Y16572D02*
Y17202D01*
X44621Y16572D02*
Y17202D01*
X43439Y16572D02*
X44621D01*
X43439Y17202D02*
X44621D01*
X41309Y17285D02*
Y17915D01*
X42491Y17285D02*
Y17915D01*
X41309Y17285D02*
X42491D01*
X41309Y17915D02*
X42491D01*
X42009Y20085D02*
Y20715D01*
Y20085D02*
X43191D01*
Y20715D01*
X42009D02*
X43191D01*
X45509Y23485D02*
Y24115D01*
Y23485D02*
X46691D01*
Y24115D01*
X45509D02*
X46691D01*
X36909Y23435D02*
Y24065D01*
Y23435D02*
X38091D01*
Y24065D01*
X36909D02*
X38091D01*
D83*
X43845Y20165D02*
X44160D01*
Y19535D02*
Y20165D01*
X43845Y19535D02*
X44160D01*
X43845D02*
Y20165D01*
X44895Y16665D02*
Y17295D01*
X45210D01*
Y16665D02*
Y17295D01*
X44895Y16665D02*
X45210D01*
X44395Y18175D02*
Y18805D01*
X44080Y18175D02*
X44395D01*
X44080D02*
Y18805D01*
X44395D01*
X41585Y18645D02*
X42215D01*
X41585D02*
Y18960D01*
X42215D01*
Y18645D02*
Y18960D01*
X43677Y19496D02*
X44307D01*
X43677D02*
Y19811D01*
X44307D01*
Y19496D02*
Y19811D01*
X43677Y21406D02*
X44307D01*
Y21091D02*
Y21406D01*
X43677Y21091D02*
X44307D01*
X43677D02*
Y21406D01*
X42285Y21395D02*
X42915D01*
X42285D02*
Y21710D01*
X42915D01*
Y21395D02*
Y21710D01*
X42285Y21945D02*
X42915D01*
X42285D02*
Y22260D01*
X42915D01*
Y21945D02*
Y22260D01*
X43485Y22655D02*
X44115D01*
Y22340D02*
Y22655D01*
X43485Y22340D02*
X44115D01*
X43485D02*
Y22655D01*
X45985Y24795D02*
X46615D01*
X45985D02*
Y25110D01*
X46615D01*
Y24795D02*
Y25110D01*
X43485Y24795D02*
X44115D01*
X43485D02*
Y25110D01*
X44115D01*
Y24795D02*
Y25110D01*
X43415Y25394D02*
Y25709D01*
X42785D02*
X43415D01*
X42785Y25394D02*
Y25709D01*
Y25394D02*
X43415D01*
X39485Y19495D02*
X40115D01*
X39485D02*
Y19810D01*
X40115D01*
Y19495D02*
Y19810D01*
X39485Y21406D02*
X40115D01*
Y21091D02*
Y21406D01*
X39485Y21091D02*
X40115D01*
X39485D02*
Y21406D01*
X39475Y22245D02*
X40105D01*
X39475D02*
Y22560D01*
X40105D01*
Y22245D02*
Y22560D01*
X37185Y24795D02*
X37815D01*
X37185D02*
Y25110D01*
X37815D01*
Y24795D02*
Y25110D01*
X38635Y25105D02*
X39265D01*
Y24790D02*
Y25105D01*
X38635Y24790D02*
X39265D01*
X38635D02*
Y25105D01*
M02*
