G04*
G04 #@! TF.GenerationSoftware,Altium Limited,Altium Designer,20.0.13 (296)*
G04*
G04 Layer_Physical_Order=2*
G04 Layer_Color=16711680*
%FSLAX24Y24*%
%MOIN*%
G70*
G01*
G75*
%ADD12C,0.0100*%
%ADD29R,0.0300X0.0350*%
%ADD73C,0.0180*%
%ADD74C,0.0300*%
%ADD76C,0.1299*%
%ADD77C,0.0236*%
%ADD78C,0.0252*%
G04:AMPARAMS|DCode=79|XSize=47.2mil|YSize=13.8mil|CornerRadius=3.4mil|HoleSize=0mil|Usage=FLASHONLY|Rotation=180.000|XOffset=0mil|YOffset=0mil|HoleType=Round|Shape=RoundedRectangle|*
%AMROUNDEDRECTD79*
21,1,0.0472,0.0069,0,0,180.0*
21,1,0.0404,0.0138,0,0,180.0*
1,1,0.0069,-0.0202,0.0034*
1,1,0.0069,0.0202,0.0034*
1,1,0.0069,0.0202,-0.0034*
1,1,0.0069,-0.0202,-0.0034*
%
%ADD79ROUNDEDRECTD79*%
%ADD80C,0.1100*%
G36*
X41563Y26107D02*
X41580Y26093D01*
X41589Y26087D01*
X41598Y26082D01*
X41607Y26077D01*
X41616Y26074D01*
X41625Y26071D01*
X41633Y26069D01*
X41642Y26067D01*
X41513Y25965D01*
X41513Y25974D01*
X41513Y25983D01*
X41512Y25992D01*
X41509Y26001D01*
X41506Y26010D01*
X41502Y26018D01*
X41496Y26027D01*
X41490Y26036D01*
X41483Y26045D01*
X41475Y26054D01*
X41554Y26115D01*
X41563Y26107D01*
D02*
G37*
G36*
X41083Y25914D02*
X41083Y25905D01*
X41084Y25897D01*
X41085Y25888D01*
X41088Y25879D01*
X41092Y25870D01*
X41097Y25861D01*
X41103Y25853D01*
X41111Y25844D01*
X41119Y25835D01*
X41030Y25782D01*
X41022Y25791D01*
X41004Y25805D01*
X40996Y25811D01*
X40987Y25817D01*
X40979Y25822D01*
X40970Y25826D01*
X40962Y25830D01*
X40953Y25832D01*
X40945Y25835D01*
X41085Y25923D01*
X41083Y25914D01*
D02*
G37*
G36*
X41384Y25866D02*
X41379Y25858D01*
X41374Y25850D01*
X41371Y25841D01*
X41367Y25832D01*
X41365Y25822D01*
X41363Y25812D01*
X41361Y25801D01*
X41360Y25789D01*
X41360Y25777D01*
X41260Y25768D01*
X41260Y25780D01*
X41259Y25791D01*
X41257Y25802D01*
X41254Y25812D01*
X41251Y25822D01*
X41247Y25830D01*
X41243Y25839D01*
X41237Y25846D01*
X41231Y25853D01*
X41225Y25859D01*
X41390Y25873D01*
X41384Y25866D01*
D02*
G37*
G36*
X42366Y25536D02*
X42367Y25524D01*
X42368Y25514D01*
X42371Y25503D01*
X42374Y25494D01*
X42377Y25485D01*
X42381Y25476D01*
X42386Y25468D01*
X42392Y25461D01*
X42398Y25454D01*
X42233D01*
X42239Y25461D01*
X42245Y25468D01*
X42249Y25476D01*
X42254Y25485D01*
X42257Y25494D01*
X42260Y25503D01*
X42262Y25514D01*
X42264Y25524D01*
X42265Y25536D01*
X42265Y25548D01*
X42365D01*
X42366Y25536D01*
D02*
G37*
G36*
X42948Y25738D02*
X42960Y25731D01*
X42957Y25721D01*
X42950D01*
X42900Y25711D01*
X42857Y25683D01*
X42687Y25513D01*
X42659Y25470D01*
X42649Y25420D01*
Y24813D01*
X42648Y24809D01*
X42647Y24804D01*
X42646Y24800D01*
X42645Y24798D01*
X42644Y24796D01*
X42639Y24793D01*
X42595Y24728D01*
X42580Y24651D01*
X42595Y24574D01*
X42639Y24509D01*
X42681Y24481D01*
X42682Y24471D01*
X42115Y23904D01*
X42078Y23848D01*
X42065Y23783D01*
Y20471D01*
X42056Y20466D01*
X42027Y20485D01*
X41950Y20501D01*
X41873Y20485D01*
X41808Y20442D01*
X41765Y20377D01*
X41749Y20300D01*
X41751Y20293D01*
X41750Y20291D01*
X41749Y20288D01*
X41747Y20285D01*
X41745Y20281D01*
X41742Y20278D01*
X40902Y19438D01*
X40862D01*
X40856Y19446D01*
X40858Y19454D01*
X40522D01*
Y19554D01*
X40858D01*
X40850Y19591D01*
X40823Y19632D01*
X40850Y19673D01*
X40858Y19710D01*
X40522D01*
Y19810D01*
X40858D01*
X40850Y19847D01*
X40821Y19892D01*
X40806Y19901D01*
X40830Y19938D01*
X40839Y19982D01*
Y20051D01*
X40830Y20095D01*
X40805Y20132D01*
X40795Y20139D01*
Y20149D01*
X40805Y20156D01*
X40830Y20193D01*
X40839Y20238D01*
Y20306D01*
X40830Y20351D01*
X40807Y20385D01*
X40811Y20396D01*
X40826Y20397D01*
X41001D01*
X41051Y20407D01*
X41094Y20435D01*
X41403Y20744D01*
X41431Y20787D01*
X41441Y20837D01*
Y25794D01*
X41442Y25798D01*
X41443Y25804D01*
X41444Y25808D01*
X41445Y25812D01*
X41447Y25815D01*
X41448Y25817D01*
X41449Y25819D01*
X41449Y25819D01*
X41453Y25823D01*
X41454Y25827D01*
X41460Y25835D01*
X41470D01*
X41488Y25808D01*
X41553Y25765D01*
X41630Y25749D01*
X41707Y25765D01*
X41772Y25808D01*
X41805Y25858D01*
X41815D01*
X41848Y25808D01*
X41913Y25765D01*
X41990Y25749D01*
X42067Y25765D01*
X42132Y25808D01*
X42174Y25871D01*
X42184Y25870D01*
Y25533D01*
X42184Y25528D01*
X42183Y25524D01*
X42181Y25520D01*
X42180Y25518D01*
X42180Y25516D01*
X42174Y25512D01*
X42130Y25447D01*
X42115Y25370D01*
X42130Y25293D01*
X42174Y25228D01*
X42239Y25185D01*
X42315Y25169D01*
X42392Y25185D01*
X42457Y25228D01*
X42501Y25293D01*
X42516Y25370D01*
X42501Y25447D01*
X42457Y25512D01*
X42451Y25516D01*
X42451Y25518D01*
X42449Y25520D01*
X42448Y25524D01*
X42447Y25528D01*
X42447Y25533D01*
Y26007D01*
X42437Y26058D01*
X42408Y26100D01*
X41770Y26739D01*
X41774Y26748D01*
X41939D01*
X42948Y25738D01*
D02*
G37*
G36*
X44252Y25132D02*
X44248Y25122D01*
X43490D01*
X43424Y25109D01*
X43368Y25072D01*
X43205Y24908D01*
X42911D01*
Y25366D01*
X43004Y25459D01*
X43926D01*
X44252Y25132D01*
D02*
G37*
G36*
X46009Y24796D02*
Y24503D01*
X46008Y24498D01*
X46007Y24494D01*
X46006Y24490D01*
X46005Y24488D01*
X46004Y24486D01*
X45998Y24482D01*
X45955Y24417D01*
X45939Y24340D01*
X45955Y24263D01*
X45998Y24198D01*
X46063Y24155D01*
X46140Y24139D01*
X46217Y24155D01*
X46282Y24198D01*
X46325Y24263D01*
X46341Y24340D01*
X46325Y24417D01*
X46282Y24482D01*
X46276Y24486D01*
X46275Y24488D01*
X46274Y24490D01*
X46273Y24494D01*
X46272Y24498D01*
X46271Y24503D01*
Y24850D01*
X46268Y24865D01*
X46277Y24870D01*
X46408Y24739D01*
Y24087D01*
X46403Y24082D01*
X45700D01*
X45634Y24069D01*
X45578Y24032D01*
X45048Y23502D01*
X45011Y23446D01*
X44998Y23380D01*
Y22511D01*
X44599Y22112D01*
X43080D01*
X43014Y22099D01*
X42958Y22062D01*
X42419Y21522D01*
X42416Y21522D01*
X42409Y21525D01*
Y23711D01*
X42892Y24195D01*
X42907D01*
X42913Y24196D01*
X42921Y24190D01*
X42940Y22985D01*
X43698Y22227D01*
X44457D01*
X44630Y22400D01*
Y24495D01*
X44356Y24769D01*
X44360Y24778D01*
X45433D01*
X45453Y24765D01*
X45530Y24749D01*
X45607Y24765D01*
X45672Y24808D01*
X45715Y24873D01*
X45731Y24950D01*
X45715Y25027D01*
X45680Y25080D01*
X45685Y25089D01*
X45716D01*
X46009Y24796D01*
D02*
G37*
G36*
X42830Y24817D02*
X42831Y24806D01*
X42833Y24795D01*
X42835Y24785D01*
X42838Y24775D01*
X42842Y24766D01*
X42846Y24758D01*
X42851Y24750D01*
X42857Y24742D01*
X42863Y24736D01*
X42698Y24735D01*
X42704Y24741D01*
X42709Y24749D01*
X42714Y24757D01*
X42718Y24765D01*
X42722Y24774D01*
X42725Y24784D01*
X42727Y24794D01*
X42729Y24805D01*
X42730Y24816D01*
X42730Y24828D01*
X42830Y24829D01*
X42830Y24817D01*
D02*
G37*
G36*
X38681Y24640D02*
X38673Y24632D01*
X38665Y24623D01*
X38659Y24614D01*
X38653Y24605D01*
X38649Y24596D01*
X38645Y24587D01*
X38642Y24578D01*
X38640Y24569D01*
X38638Y24560D01*
X38638Y24551D01*
X38521Y24668D01*
X38530Y24668D01*
X38539Y24670D01*
X38548Y24672D01*
X38557Y24675D01*
X38566Y24679D01*
X38575Y24683D01*
X38584Y24689D01*
X38593Y24695D01*
X38602Y24703D01*
X38610Y24711D01*
X38681Y24640D01*
D02*
G37*
G36*
X46190Y24506D02*
X46191Y24494D01*
X46193Y24484D01*
X46195Y24473D01*
X46198Y24464D01*
X46202Y24455D01*
X46206Y24446D01*
X46211Y24438D01*
X46216Y24431D01*
X46223Y24424D01*
X46057D01*
X46064Y24431D01*
X46069Y24438D01*
X46074Y24446D01*
X46078Y24455D01*
X46082Y24464D01*
X46085Y24473D01*
X46087Y24484D01*
X46089Y24494D01*
X46090Y24506D01*
X46090Y24518D01*
X46190D01*
X46190Y24506D01*
D02*
G37*
G36*
X39356Y24396D02*
X39347Y24394D01*
X39339Y24392D01*
X39330Y24389D01*
X39321Y24385D01*
X39312Y24381D01*
X39304Y24375D01*
X39295Y24369D01*
X39286Y24363D01*
X39269Y24347D01*
X39187Y24406D01*
X39195Y24415D01*
X39202Y24424D01*
X39209Y24433D01*
X39214Y24442D01*
X39218Y24450D01*
X39221Y24459D01*
X39223Y24468D01*
X39225Y24477D01*
X39225Y24486D01*
X39224Y24495D01*
X39356Y24396D01*
D02*
G37*
G36*
X39568Y24170D02*
X39570Y24161D01*
X39572Y24152D01*
X39575Y24143D01*
X39579Y24134D01*
X39583Y24125D01*
X39589Y24116D01*
X39595Y24107D01*
X39603Y24098D01*
X39611Y24090D01*
X39540Y24019D01*
X39532Y24027D01*
X39523Y24035D01*
X39514Y24041D01*
X39505Y24047D01*
X39496Y24051D01*
X39487Y24055D01*
X39478Y24058D01*
X39469Y24060D01*
X39460Y24062D01*
X39451Y24062D01*
X39568Y24179D01*
X39568Y24170D01*
D02*
G37*
G36*
X38986Y23899D02*
X38981Y23892D01*
X38976Y23884D01*
X38972Y23875D01*
X38968Y23866D01*
X38965Y23857D01*
X38963Y23846D01*
X38961Y23836D01*
X38960Y23824D01*
X38960Y23812D01*
X38860D01*
X38860Y23824D01*
X38859Y23836D01*
X38857Y23846D01*
X38855Y23857D01*
X38852Y23866D01*
X38848Y23875D01*
X38844Y23884D01*
X38839Y23892D01*
X38834Y23899D01*
X38827Y23906D01*
X38993D01*
X38986Y23899D01*
D02*
G37*
G36*
X39708Y22883D02*
X39717Y22875D01*
X39726Y22869D01*
X39735Y22863D01*
X39744Y22859D01*
X39753Y22855D01*
X39762Y22852D01*
X39771Y22850D01*
X39780Y22848D01*
X39789Y22848D01*
X39672Y22731D01*
X39672Y22740D01*
X39670Y22749D01*
X39668Y22758D01*
X39665Y22767D01*
X39661Y22776D01*
X39657Y22785D01*
X39651Y22794D01*
X39645Y22803D01*
X39637Y22812D01*
X39629Y22820D01*
X39700Y22891D01*
X39708Y22883D01*
D02*
G37*
G36*
X40350Y21791D02*
X40351Y21780D01*
X40353Y21769D01*
X40355Y21759D01*
X40358Y21749D01*
X40362Y21740D01*
X40366Y21731D01*
X40371Y21723D01*
X40376Y21716D01*
X40383Y21710D01*
X40217D01*
X40224Y21716D01*
X40229Y21723D01*
X40234Y21731D01*
X40238Y21740D01*
X40242Y21749D01*
X40245Y21759D01*
X40247Y21769D01*
X40249Y21780D01*
X40250Y21791D01*
X40250Y21803D01*
X40350D01*
X40350Y21791D01*
D02*
G37*
G36*
X40358Y26189D02*
X40349Y26140D01*
Y25640D01*
X40359Y25590D01*
X40387Y25547D01*
X40559Y25376D01*
Y21684D01*
X40508Y21634D01*
X40498Y21637D01*
X40485Y21702D01*
X40442Y21767D01*
X40436Y21771D01*
X40435Y21773D01*
X40434Y21775D01*
X40433Y21779D01*
X40432Y21784D01*
X40431Y21788D01*
Y23330D01*
X40421Y23380D01*
X40393Y23423D01*
X39658Y24158D01*
X39655Y24161D01*
X39653Y24165D01*
X39651Y24168D01*
X39650Y24171D01*
X39649Y24173D01*
X39651Y24180D01*
X39635Y24257D01*
X39592Y24322D01*
X39527Y24365D01*
X39493Y24372D01*
X39489Y24381D01*
X39526Y24436D01*
X39541Y24513D01*
X39526Y24590D01*
X39483Y24655D01*
X39417Y24698D01*
X39341Y24714D01*
X39264Y24698D01*
X39199Y24655D01*
X39155Y24590D01*
X39140Y24513D01*
X39144Y24491D01*
X39144Y24487D01*
X39144Y24483D01*
X39144Y24482D01*
X39144Y24481D01*
X39143Y24479D01*
X39141Y24476D01*
X39139Y24473D01*
X39070Y24404D01*
X39042Y24362D01*
X39032Y24312D01*
Y24156D01*
X39023Y24151D01*
X38987Y24175D01*
X38910Y24191D01*
X38833Y24175D01*
X38813Y24162D01*
X38347D01*
X38342Y24167D01*
Y24445D01*
X38352Y24448D01*
X38378Y24408D01*
X38443Y24365D01*
X38520Y24349D01*
X38597Y24365D01*
X38662Y24408D01*
X38705Y24473D01*
X38721Y24550D01*
X38719Y24557D01*
X38720Y24559D01*
X38721Y24562D01*
X38723Y24565D01*
X38725Y24569D01*
X38728Y24572D01*
X40351Y26196D01*
X40358Y26189D01*
D02*
G37*
G36*
X40573Y21443D02*
X40574Y21426D01*
X40576Y21411D01*
X40580Y21399D01*
X40584Y21388D01*
X40589Y21379D01*
X40596Y21372D01*
X40603Y21367D01*
X40611Y21364D01*
X40620Y21363D01*
X40424D01*
X40433Y21364D01*
X40441Y21367D01*
X40449Y21372D01*
X40455Y21379D01*
X40460Y21388D01*
X40464Y21399D01*
X40468Y21411D01*
X40470Y21426D01*
X40472Y21443D01*
X40472Y21462D01*
X40572D01*
X40573Y21443D01*
D02*
G37*
G36*
X40742Y21103D02*
X40749Y21100D01*
X40756Y21097D01*
X40765Y21095D01*
X40775Y21094D01*
X40798Y21091D01*
X40826Y21090D01*
X40841Y21090D01*
Y20990D01*
X40826Y20990D01*
X40775Y20986D01*
X40765Y20984D01*
X40756Y20982D01*
X40749Y20980D01*
X40742Y20977D01*
X40737Y20974D01*
Y21106D01*
X40742Y21103D01*
D02*
G37*
G36*
X40742Y20847D02*
X40749Y20844D01*
X40757Y20842D01*
X40767Y20840D01*
X40778Y20838D01*
X40804Y20835D01*
X40835Y20834D01*
X40853Y20834D01*
Y20734D01*
X40835Y20734D01*
X40778Y20730D01*
X40767Y20728D01*
X40757Y20726D01*
X40749Y20724D01*
X40742Y20721D01*
X40737Y20718D01*
Y20850D01*
X40742Y20847D01*
D02*
G37*
G36*
Y20591D02*
X40749Y20588D01*
X40757Y20586D01*
X40767Y20584D01*
X40778Y20582D01*
X40804Y20579D01*
X40835Y20578D01*
X40853Y20578D01*
Y20478D01*
X40835Y20478D01*
X40778Y20474D01*
X40767Y20472D01*
X40757Y20470D01*
X40749Y20468D01*
X40742Y20465D01*
X40737Y20462D01*
Y20594D01*
X40742Y20591D01*
D02*
G37*
G36*
X41949Y20182D02*
X41940Y20182D01*
X41931Y20180D01*
X41922Y20178D01*
X41913Y20175D01*
X41904Y20171D01*
X41895Y20167D01*
X41886Y20161D01*
X41877Y20155D01*
X41868Y20147D01*
X41860Y20139D01*
X41789Y20210D01*
X41797Y20218D01*
X41805Y20227D01*
X41811Y20236D01*
X41817Y20245D01*
X41821Y20254D01*
X41825Y20263D01*
X41828Y20272D01*
X41830Y20281D01*
X41832Y20290D01*
X41832Y20299D01*
X41949Y20182D01*
D02*
G37*
G36*
X43498Y19567D02*
X43505Y19564D01*
X43513Y19562D01*
X43523Y19560D01*
X43534Y19558D01*
X43560Y19556D01*
X43591Y19554D01*
X43609Y19554D01*
Y19454D01*
X43591Y19454D01*
X43534Y19450D01*
X43523Y19449D01*
X43513Y19447D01*
X43505Y19444D01*
X43498Y19442D01*
X43493Y19439D01*
Y19570D01*
X43498Y19567D01*
D02*
G37*
G36*
X43851Y19404D02*
X43850Y19414D01*
X43847Y19422D01*
X43842Y19430D01*
X43835Y19436D01*
X43826Y19442D01*
X43815Y19446D01*
X43802Y19450D01*
X43787Y19452D01*
X43770Y19454D01*
X43751Y19454D01*
Y19554D01*
X43770Y19555D01*
X43787Y19556D01*
X43802Y19559D01*
X43815Y19562D01*
X43826Y19567D01*
X43835Y19572D01*
X43842Y19579D01*
X43847Y19586D01*
X43850Y19595D01*
X43851Y19604D01*
Y19404D01*
D02*
G37*
G36*
X44115Y19336D02*
X44110Y19333D01*
X44105Y19326D01*
X44101Y19318D01*
X44098Y19307D01*
X44095Y19294D01*
X44093Y19278D01*
X44090Y19239D01*
X44090Y19215D01*
X43910D01*
X43910Y19239D01*
X43905Y19294D01*
X43902Y19307D01*
X43899Y19318D01*
X43895Y19326D01*
X43890Y19333D01*
X43885Y19336D01*
X43879Y19337D01*
X44121D01*
X44115Y19336D01*
D02*
G37*
G36*
X42646Y19293D02*
X42673Y19271D01*
X42701Y19252D01*
X42730Y19236D01*
X42760Y19222D01*
X42792Y19210D01*
X42824Y19201D01*
X42857Y19195D01*
X42892Y19191D01*
X42927Y19190D01*
Y19010D01*
X42892Y19009D01*
X42857Y19005D01*
X42824Y18999D01*
X42792Y18990D01*
X42760Y18978D01*
X42730Y18964D01*
X42701Y18948D01*
X42673Y18929D01*
X42646Y18907D01*
X42620Y18883D01*
X42455Y18973D01*
X42479Y18998D01*
X42497Y19023D01*
X42511Y19047D01*
X42520Y19071D01*
X42524Y19095D01*
X42524Y19118D01*
X42519Y19141D01*
X42510Y19163D01*
X42495Y19185D01*
X42476Y19206D01*
X42620Y19317D01*
X42646Y19293D01*
D02*
G37*
G36*
X42389Y27241D02*
X42876Y27189D01*
X43358Y27102D01*
X43832Y26981D01*
X44297Y26826D01*
X44749Y26639D01*
X45187Y26420D01*
X45608Y26170D01*
X46010Y25891D01*
X46392Y25584D01*
X46750Y25250D01*
X47084Y24892D01*
X47391Y24510D01*
X47670Y24108D01*
X47920Y23687D01*
X48139Y23249D01*
X48326Y22797D01*
X48481Y22332D01*
X48602Y21858D01*
X48689Y21376D01*
X48741Y20889D01*
X48759Y20400D01*
X48741Y19911D01*
X48689Y19424D01*
X48602Y18942D01*
X48481Y18468D01*
X48326Y18003D01*
X48139Y17551D01*
X47920Y17113D01*
X47670Y16692D01*
X47391Y16290D01*
X47084Y15908D01*
X46750Y15550D01*
X46392Y15216D01*
X46010Y14909D01*
X45608Y14630D01*
X45187Y14380D01*
X44749Y14161D01*
X44297Y13974D01*
X43832Y13819D01*
X43358Y13698D01*
X42876Y13611D01*
X42389Y13559D01*
X41900Y13541D01*
X41411Y13559D01*
X40924Y13611D01*
X40442Y13698D01*
X39968Y13819D01*
X39503Y13974D01*
X39051Y14161D01*
X38613Y14380D01*
X38192Y14630D01*
X37790Y14909D01*
X37408Y15216D01*
X37050Y15550D01*
X36716Y15908D01*
X36409Y16290D01*
X36130Y16692D01*
X35880Y17113D01*
X35661Y17551D01*
X35474Y18003D01*
X35319Y18468D01*
X35198Y18942D01*
X35111Y19424D01*
X35059Y19911D01*
X35041Y20400D01*
X35059Y20889D01*
X35111Y21376D01*
X35198Y21858D01*
X35319Y22332D01*
X35474Y22797D01*
X35661Y23249D01*
X35880Y23687D01*
X36130Y24108D01*
X36409Y24510D01*
X36580Y24722D01*
X36589Y24718D01*
X36579Y24670D01*
X36595Y24593D01*
X36638Y24528D01*
X36703Y24485D01*
X36727Y24480D01*
X38876Y22331D01*
Y22255D01*
X38889Y22189D01*
X38926Y22133D01*
X39488Y21572D01*
X39492Y21548D01*
X39510Y21522D01*
Y19298D01*
X39523Y19232D01*
X39560Y19176D01*
X39978Y18758D01*
X40034Y18721D01*
X40100Y18708D01*
X41859D01*
X41925Y18721D01*
X41980Y18758D01*
X42278Y19056D01*
X42301Y19060D01*
X42367Y19104D01*
X42402Y19157D01*
X42412D01*
X42418Y19148D01*
X42432Y19134D01*
X42439Y19125D01*
X42442Y19116D01*
X42444Y19109D01*
X42444Y19102D01*
X42442Y19093D01*
X42438Y19081D01*
X42430Y19067D01*
X42419Y19052D01*
X41979Y18612D01*
X40167D01*
X40147Y18625D01*
X40070Y18641D01*
X39993Y18625D01*
X39928Y18582D01*
X39885Y18517D01*
X39869Y18440D01*
X39885Y18363D01*
X39928Y18298D01*
X39993Y18255D01*
X40070Y18239D01*
X40147Y18255D01*
X40167Y18268D01*
X40441D01*
X40446Y18259D01*
X40426Y18230D01*
X40411Y18153D01*
X40426Y18076D01*
X40470Y18011D01*
X40535Y17968D01*
X40612Y17952D01*
X40689Y17968D01*
X40754Y18011D01*
X40758Y18017D01*
X40759Y18018D01*
X40762Y18019D01*
X40766Y18020D01*
X40770Y18021D01*
X40775Y18022D01*
X41062D01*
X41067Y18021D01*
X41071Y18020D01*
X41075Y18019D01*
X41077Y18018D01*
X41079Y18017D01*
X41083Y18011D01*
X41148Y17968D01*
X41225Y17952D01*
X41302Y17968D01*
X41367Y18011D01*
X41410Y18076D01*
X41426Y18153D01*
X41410Y18230D01*
X41391Y18259D01*
X41396Y18268D01*
X42050D01*
X42116Y18281D01*
X42172Y18318D01*
X42703Y18850D01*
X42721Y18864D01*
X42744Y18879D01*
X42767Y18893D01*
X42791Y18904D01*
X42816Y18913D01*
X42842Y18920D01*
X42869Y18925D01*
X42892Y18928D01*
X43852D01*
X43918Y18941D01*
X43922Y18943D01*
X43960Y18951D01*
X44016Y18988D01*
X44122Y19094D01*
X44159Y19150D01*
X44172Y19215D01*
Y19256D01*
X44229D01*
Y19764D01*
X43771D01*
Y19636D01*
X43572D01*
X43567Y19636D01*
X43564Y19640D01*
X43563Y19646D01*
X43586Y19682D01*
X43595Y19726D01*
Y19795D01*
X43586Y19839D01*
X43561Y19876D01*
X43551Y19883D01*
Y19893D01*
X43561Y19900D01*
X43586Y19938D01*
X43595Y19982D01*
Y20051D01*
X43586Y20095D01*
X43561Y20132D01*
X43551Y20139D01*
Y20149D01*
X43561Y20156D01*
X43586Y20193D01*
X43595Y20238D01*
Y20306D01*
X43586Y20351D01*
X43561Y20388D01*
X43551Y20395D01*
Y20405D01*
X43561Y20412D01*
X43586Y20449D01*
X43595Y20494D01*
Y20562D01*
X43586Y20607D01*
X43561Y20644D01*
X43551Y20651D01*
Y20661D01*
X43561Y20668D01*
X43586Y20705D01*
X43595Y20749D01*
Y20818D01*
X43586Y20862D01*
X43561Y20900D01*
X43551Y20907D01*
Y20917D01*
X43561Y20924D01*
X43586Y20961D01*
X43595Y21005D01*
Y21074D01*
X43586Y21118D01*
X43561Y21156D01*
X43551Y21163D01*
Y21173D01*
X43561Y21180D01*
X43586Y21217D01*
X43595Y21261D01*
Y21330D01*
X43586Y21374D01*
X43561Y21412D01*
X43524Y21437D01*
X43480Y21446D01*
X43076D01*
X43032Y21437D01*
X42995Y21412D01*
X42970Y21374D01*
X42961Y21330D01*
Y21261D01*
X42970Y21217D01*
X42995Y21180D01*
X43005Y21173D01*
Y21163D01*
X42995Y21156D01*
X42970Y21118D01*
X42961Y21074D01*
Y21005D01*
X42970Y20961D01*
X42995Y20924D01*
X43005Y20917D01*
Y20907D01*
X42995Y20900D01*
X42970Y20862D01*
X42961Y20818D01*
Y20749D01*
X42970Y20705D01*
X42995Y20668D01*
X43005Y20661D01*
Y20651D01*
X42995Y20644D01*
X42970Y20607D01*
X42961Y20562D01*
Y20494D01*
X42970Y20449D01*
X42995Y20412D01*
X43005Y20405D01*
Y20395D01*
X42995Y20388D01*
X42970Y20351D01*
X42961Y20306D01*
Y20238D01*
X42970Y20193D01*
X42995Y20156D01*
X43005Y20149D01*
Y20139D01*
X42995Y20132D01*
X42970Y20095D01*
X42961Y20051D01*
Y19982D01*
X42970Y19938D01*
X42995Y19900D01*
X43005Y19893D01*
Y19883D01*
X42995Y19876D01*
X42970Y19839D01*
X42961Y19795D01*
Y19726D01*
X42970Y19682D01*
X42995Y19644D01*
X43005Y19637D01*
Y19627D01*
X42995Y19620D01*
X42970Y19583D01*
X42961Y19539D01*
Y19470D01*
X42970Y19426D01*
X42995Y19388D01*
X43032Y19363D01*
X43076Y19354D01*
X43480D01*
X43502Y19359D01*
X43502Y19359D01*
X43502Y19359D01*
X43524Y19363D01*
X43531Y19368D01*
X43532Y19368D01*
X43532Y19368D01*
X43533Y19369D01*
X43537Y19370D01*
X43543Y19371D01*
X43582Y19373D01*
X43771D01*
Y19272D01*
X42892D01*
X42869Y19275D01*
X42842Y19280D01*
X42816Y19287D01*
X42791Y19296D01*
X42767Y19307D01*
X42744Y19321D01*
X42721Y19336D01*
X42712Y19343D01*
Y20853D01*
X42725Y20873D01*
X42741Y20950D01*
X42725Y21027D01*
X42712Y21047D01*
Y21329D01*
X43151Y21768D01*
X44670D01*
X44736Y21781D01*
X44792Y21818D01*
X45292Y22318D01*
X45329Y22374D01*
X45342Y22440D01*
Y23309D01*
X45771Y23738D01*
X46475D01*
X46540Y23751D01*
X46596Y23788D01*
X46702Y23894D01*
X46739Y23950D01*
X46752Y24015D01*
Y24810D01*
X46739Y24876D01*
X46702Y24932D01*
X45962Y25672D01*
X45906Y25709D01*
X45840Y25722D01*
X44533D01*
X44513Y25735D01*
X44489Y25740D01*
X44247Y25982D01*
X44192Y26019D01*
X44126Y26032D01*
X43141D01*
X42132Y27042D01*
X42076Y27079D01*
X42010Y27092D01*
X40470D01*
X40404Y27079D01*
X40348Y27042D01*
X38048Y24742D01*
X38011Y24686D01*
X37998Y24620D01*
Y24095D01*
X38011Y24030D01*
X38048Y23974D01*
X38154Y23868D01*
X38210Y23831D01*
X38275Y23818D01*
X38779D01*
Y23610D01*
X38789Y23560D01*
X38817Y23517D01*
X39582Y22752D01*
X39585Y22749D01*
X39587Y22745D01*
X39589Y22742D01*
X39590Y22739D01*
X39591Y22737D01*
X39589Y22730D01*
X39605Y22653D01*
X39648Y22588D01*
X39713Y22545D01*
X39790Y22529D01*
X39867Y22545D01*
X39932Y22588D01*
X39936Y22594D01*
X39946Y22591D01*
Y21843D01*
X39932Y21822D01*
X39922Y21772D01*
Y19506D01*
X39932Y19456D01*
X39960Y19413D01*
X40160Y19214D01*
X40202Y19185D01*
X40253Y19175D01*
X40957D01*
X41007Y19185D01*
X41050Y19214D01*
X41928Y20092D01*
X41931Y20095D01*
X41935Y20097D01*
X41938Y20099D01*
X41941Y20100D01*
X41943Y20101D01*
X41950Y20099D01*
X42027Y20115D01*
X42056Y20134D01*
X42065Y20129D01*
Y19361D01*
X42039Y19323D01*
X42035Y19299D01*
X41788Y19052D01*
X40171D01*
X39854Y19369D01*
Y21535D01*
X39863Y21548D01*
X39878Y21625D01*
X39863Y21702D01*
X39820Y21767D01*
X39754Y21811D01*
X39731Y21815D01*
X39220Y22326D01*
Y22402D01*
X39207Y22468D01*
X39170Y22524D01*
X36970Y24723D01*
X36965Y24747D01*
X36922Y24812D01*
X36857Y24855D01*
X36780Y24871D01*
X36703Y24855D01*
X36696Y24851D01*
X36690Y24858D01*
X36716Y24892D01*
X37050Y25250D01*
X37408Y25584D01*
X37790Y25891D01*
X38192Y26170D01*
X38613Y26420D01*
X39051Y26639D01*
X39503Y26826D01*
X39968Y26981D01*
X40442Y27102D01*
X40924Y27189D01*
X41411Y27241D01*
X41900Y27259D01*
X42389Y27241D01*
D02*
G37*
G36*
X41141Y18070D02*
X41134Y18077D01*
X41127Y18082D01*
X41119Y18087D01*
X41110Y18091D01*
X41101Y18095D01*
X41092Y18098D01*
X41081Y18100D01*
X41071Y18102D01*
X41059Y18103D01*
X41047Y18103D01*
Y18203D01*
X41059Y18203D01*
X41071Y18204D01*
X41081Y18206D01*
X41092Y18208D01*
X41101Y18211D01*
X41110Y18215D01*
X41119Y18219D01*
X41127Y18224D01*
X41134Y18230D01*
X41141Y18236D01*
Y18070D01*
D02*
G37*
G36*
X40703Y18230D02*
X40710Y18224D01*
X40718Y18219D01*
X40727Y18215D01*
X40736Y18211D01*
X40745Y18208D01*
X40756Y18206D01*
X40766Y18204D01*
X40778Y18203D01*
X40790Y18203D01*
Y18103D01*
X40778Y18103D01*
X40766Y18102D01*
X40756Y18100D01*
X40745Y18098D01*
X40736Y18095D01*
X40727Y18091D01*
X40718Y18087D01*
X40710Y18082D01*
X40703Y18077D01*
X40696Y18070D01*
Y18236D01*
X40703Y18230D01*
D02*
G37*
%LPC*%
G36*
X44250Y20475D02*
X44050D01*
Y20250D01*
X44250D01*
Y20475D01*
D02*
G37*
G36*
X43950D02*
X43750D01*
Y20250D01*
X43950D01*
Y20475D01*
D02*
G37*
G36*
X44250Y20150D02*
X44050D01*
Y19925D01*
X44250D01*
Y20150D01*
D02*
G37*
G36*
X43950D02*
X43750D01*
Y19925D01*
X43950D01*
Y20150D01*
D02*
G37*
G36*
X38743Y21508D02*
X37498D01*
X37448Y21498D01*
X37405Y21470D01*
X37260Y21325D01*
X37232Y21282D01*
X37222Y21232D01*
Y19847D01*
X37224Y19837D01*
X37215Y19833D01*
X37209Y19842D01*
X37187Y19883D01*
X37169Y19928D01*
X37155Y19978D01*
X37145Y20032D01*
X37140Y20092D01*
X37139Y20156D01*
X37142Y20225D01*
X37151Y20301D01*
X37150Y20307D01*
X37159Y20400D01*
X37145Y20543D01*
X37104Y20680D01*
X37036Y20807D01*
X36945Y20918D01*
X36834Y21009D01*
X36708Y21076D01*
X36570Y21118D01*
X36428Y21132D01*
X36285Y21118D01*
X36147Y21076D01*
X36021Y21009D01*
X35910Y20918D01*
X35819Y20807D01*
X35751Y20680D01*
X35710Y20543D01*
X35696Y20400D01*
X35710Y20257D01*
X35751Y20120D01*
X35819Y19993D01*
X35910Y19882D01*
X36021Y19791D01*
X36147Y19724D01*
X36285Y19682D01*
X36334Y19677D01*
X36340Y19675D01*
X36424Y19664D01*
X36575Y19634D01*
X36640Y19617D01*
X36700Y19597D01*
X36753Y19575D01*
X36801Y19552D01*
X36843Y19527D01*
X36877Y19503D01*
X37340Y19040D01*
X37416Y18989D01*
X37505Y18971D01*
X37753D01*
X37843Y18989D01*
X37918Y19040D01*
X37968Y19089D01*
X37975Y19083D01*
X37925Y19021D01*
X37866Y18912D01*
X37830Y18793D01*
X37818Y18670D01*
X37830Y18547D01*
X37866Y18428D01*
X37925Y18319D01*
X38003Y18223D01*
X40363Y15863D01*
X40459Y15785D01*
X40568Y15726D01*
X40687Y15690D01*
X40810Y15678D01*
X44528D01*
X44933Y15273D01*
X44957Y15237D01*
X45025Y15192D01*
X45029Y15191D01*
X45049Y15175D01*
X45158Y15116D01*
X45277Y15080D01*
X45340Y15074D01*
X45340Y15074D01*
X45420Y15058D01*
X45500Y15074D01*
X45506Y15079D01*
X45523Y15080D01*
X45642Y15116D01*
X45751Y15175D01*
X45847Y15253D01*
X45925Y15349D01*
X45984Y15458D01*
X46020Y15577D01*
X46032Y15700D01*
X46020Y15823D01*
X45984Y15942D01*
X45925Y16051D01*
X45847Y16147D01*
X45237Y16757D01*
X45141Y16835D01*
X45032Y16894D01*
X44913Y16930D01*
X44790Y16942D01*
X41072D01*
X38897Y19117D01*
X38801Y19195D01*
X38692Y19254D01*
X38573Y19290D01*
X38450Y19302D01*
X38327Y19290D01*
X38208Y19254D01*
X38099Y19195D01*
X38037Y19145D01*
X38031Y19152D01*
X38385Y19507D01*
X38783D01*
X38905Y19385D01*
X38981Y19335D01*
X39070Y19317D01*
X39159Y19335D01*
X39235Y19385D01*
X39285Y19461D01*
X39303Y19550D01*
X39285Y19639D01*
X39235Y19715D01*
X39045Y19905D01*
X38969Y19955D01*
X38880Y19973D01*
X38289D01*
X38199Y19955D01*
X38124Y19905D01*
X37793Y19575D01*
X37785Y19579D01*
X37791Y19610D01*
X37775Y19687D01*
X37732Y19752D01*
X37667Y19795D01*
X37590Y19811D01*
X37583Y19809D01*
X37581Y19810D01*
X37578Y19811D01*
X37575Y19813D01*
X37571Y19815D01*
X37568Y19818D01*
X37484Y19901D01*
Y20960D01*
X37493Y20965D01*
X37523Y20945D01*
X37600Y20929D01*
X37677Y20945D01*
X37742Y20988D01*
X37746Y20994D01*
X37748Y20995D01*
X37750Y20996D01*
X37754Y20997D01*
X37758Y20998D01*
X37763Y20999D01*
X38576D01*
X38969Y20606D01*
Y20443D01*
X38968Y20438D01*
X38967Y20434D01*
X38966Y20430D01*
X38965Y20428D01*
X38964Y20426D01*
X38958Y20422D01*
X38915Y20357D01*
X38899Y20280D01*
X38915Y20203D01*
X38958Y20138D01*
X39023Y20095D01*
X39100Y20079D01*
X39177Y20095D01*
X39242Y20138D01*
X39285Y20203D01*
X39301Y20280D01*
X39285Y20357D01*
X39242Y20422D01*
X39236Y20426D01*
X39235Y20428D01*
X39234Y20430D01*
X39233Y20434D01*
X39232Y20438D01*
X39231Y20443D01*
Y20660D01*
X39221Y20710D01*
X39193Y20753D01*
X39096Y20849D01*
X39099Y20859D01*
X39151Y20869D01*
X39216Y20913D01*
X39260Y20978D01*
X39275Y21055D01*
X39260Y21131D01*
X39216Y21196D01*
X39151Y21240D01*
X39075Y21255D01*
X39061Y21253D01*
X39061Y21253D01*
X39060Y21253D01*
X39059Y21253D01*
X39057Y21253D01*
X39055Y21254D01*
X39052Y21256D01*
X39049Y21258D01*
X39045Y21260D01*
X38836Y21470D01*
X38793Y21498D01*
X38743Y21508D01*
D02*
G37*
G36*
X46522Y21483D02*
X44850D01*
X44761Y21465D01*
X44685Y21415D01*
X44635Y21339D01*
X44617Y21250D01*
X44635Y21161D01*
X44685Y21085D01*
X44761Y21035D01*
X44850Y21017D01*
X46426D01*
X46517Y20926D01*
X46542Y20891D01*
X46565Y20849D01*
X46586Y20802D01*
X46603Y20750D01*
X46618Y20692D01*
X46629Y20630D01*
X46642Y20485D01*
X46642Y20419D01*
X46641Y20400D01*
X46655Y20257D01*
X46696Y20120D01*
X46764Y19993D01*
X46855Y19882D01*
X46966Y19791D01*
X47092Y19724D01*
X47230Y19682D01*
X47372Y19668D01*
X47515Y19682D01*
X47653Y19724D01*
X47779Y19791D01*
X47890Y19882D01*
X47981Y19993D01*
X48049Y20120D01*
X48090Y20257D01*
X48104Y20400D01*
X48090Y20543D01*
X48049Y20680D01*
X47981Y20807D01*
X47890Y20918D01*
X47779Y21009D01*
X47653Y21076D01*
X47515Y21118D01*
X47372Y21132D01*
X47354Y21130D01*
X47286Y21131D01*
X47212Y21135D01*
X47144Y21143D01*
X47080Y21155D01*
X47023Y21169D01*
X46971Y21187D01*
X46924Y21207D01*
X46882Y21231D01*
X46846Y21256D01*
X46687Y21415D01*
X46612Y21465D01*
X46522Y21483D01*
D02*
G37*
%LPD*%
G36*
X38986Y21205D02*
X38995Y21198D01*
X39004Y21191D01*
X39013Y21186D01*
X39022Y21181D01*
X39031Y21178D01*
X39040Y21175D01*
X39049Y21173D01*
X39058Y21172D01*
X39067Y21172D01*
X38957Y21049D01*
X38956Y21058D01*
X38954Y21067D01*
X38952Y21076D01*
X38948Y21085D01*
X38944Y21094D01*
X38939Y21103D01*
X38933Y21112D01*
X38927Y21121D01*
X38919Y21129D01*
X38911Y21138D01*
X38978Y21213D01*
X38986Y21205D01*
D02*
G37*
G36*
X37691Y21206D02*
X37698Y21201D01*
X37706Y21196D01*
X37715Y21192D01*
X37724Y21188D01*
X37733Y21185D01*
X37744Y21183D01*
X37754Y21181D01*
X37766Y21180D01*
X37778Y21180D01*
Y21080D01*
X37766Y21080D01*
X37754Y21079D01*
X37744Y21077D01*
X37733Y21075D01*
X37724Y21072D01*
X37715Y21068D01*
X37706Y21064D01*
X37698Y21059D01*
X37691Y21054D01*
X37684Y21047D01*
Y21213D01*
X37691Y21206D01*
D02*
G37*
G36*
X39150Y20446D02*
X39151Y20434D01*
X39153Y20424D01*
X39155Y20413D01*
X39158Y20404D01*
X39162Y20395D01*
X39166Y20386D01*
X39171Y20378D01*
X39176Y20371D01*
X39183Y20364D01*
X39017D01*
X39024Y20371D01*
X39029Y20378D01*
X39034Y20386D01*
X39038Y20395D01*
X39042Y20404D01*
X39045Y20413D01*
X39047Y20424D01*
X39049Y20434D01*
X39050Y20446D01*
X39050Y20458D01*
X39150D01*
X39150Y20446D01*
D02*
G37*
G36*
X37508Y19763D02*
X37517Y19755D01*
X37526Y19749D01*
X37535Y19743D01*
X37544Y19739D01*
X37553Y19735D01*
X37562Y19732D01*
X37571Y19730D01*
X37580Y19728D01*
X37589Y19728D01*
X37472Y19611D01*
X37472Y19620D01*
X37470Y19629D01*
X37468Y19638D01*
X37465Y19647D01*
X37461Y19656D01*
X37457Y19665D01*
X37451Y19674D01*
X37445Y19683D01*
X37437Y19692D01*
X37429Y19700D01*
X37500Y19771D01*
X37508Y19763D01*
D02*
G37*
G36*
X37062Y20232D02*
X37058Y20157D01*
X37060Y20087D01*
X37066Y20021D01*
X37077Y19960D01*
X37093Y19902D01*
X37114Y19849D01*
X37140Y19800D01*
X37171Y19755D01*
X37207Y19714D01*
X36967Y19531D01*
X36930Y19564D01*
X36887Y19594D01*
X36839Y19623D01*
X36786Y19649D01*
X36727Y19672D01*
X36663Y19694D01*
X36593Y19712D01*
X36437Y19743D01*
X36351Y19755D01*
X37071Y20310D01*
X37062Y20232D01*
D02*
G37*
G36*
X46795Y21194D02*
X46839Y21163D01*
X46888Y21135D01*
X46942Y21112D01*
X47000Y21092D01*
X47064Y21076D01*
X47132Y21064D01*
X47205Y21055D01*
X47283Y21051D01*
X47366Y21050D01*
X46723Y20406D01*
X46722Y20489D01*
X46709Y20641D01*
X46696Y20709D01*
X46680Y20772D01*
X46660Y20831D01*
X46637Y20885D01*
X46610Y20933D01*
X46579Y20977D01*
X46544Y21016D01*
X46756Y21229D01*
X46795Y21194D01*
D02*
G37*
D12*
X42780Y24652D02*
Y25420D01*
Y24652D02*
X42781Y24651D01*
X39163Y23997D02*
X40077Y23083D01*
Y21796D02*
Y23083D01*
X40053Y21772D02*
X40077Y21796D01*
X40300Y21625D02*
Y23330D01*
X39450Y24180D02*
X40300Y23330D01*
X40053Y19506D02*
X40253Y19307D01*
X40053Y19506D02*
Y21772D01*
X38910Y23610D02*
Y23990D01*
Y23610D02*
X39790Y22730D01*
X39341Y24489D02*
Y24513D01*
X39163Y24312D02*
X39341Y24489D01*
X39163Y23997D02*
Y24312D01*
X38520Y24550D02*
X38520D01*
X40630Y26660D01*
X43980Y25590D02*
X44350Y25220D01*
X42780Y25420D02*
X42950Y25590D01*
X43980D01*
X44350Y25220D02*
X45770D01*
X46140Y24340D02*
Y24850D01*
X40612Y18153D02*
X41225D01*
X45770Y25220D02*
X46140Y24850D01*
X40630Y26660D02*
X41663D01*
X42315Y26007D01*
Y25370D02*
Y26007D01*
X40253Y19307D02*
X40957D01*
X41950Y20300D01*
X43278Y19504D02*
X43994D01*
X44000Y19510D01*
X41690Y26380D02*
X41965Y26105D01*
Y25975D02*
X41990Y25950D01*
X41965Y25975D02*
Y26105D01*
X40670Y25750D02*
Y26050D01*
Y25750D02*
X40900Y25520D01*
X40480Y25640D02*
Y26140D01*
Y25640D02*
X40690Y25430D01*
X40900Y21098D02*
Y25520D01*
X40690Y21630D02*
Y25430D01*
X40522Y21462D02*
X40690Y21630D01*
X40522Y21296D02*
Y21462D01*
X40841Y21040D02*
X40900Y21098D01*
X40522Y21040D02*
X40841D01*
X41630Y25950D02*
Y25969D01*
Y25913D02*
Y25950D01*
X40821Y26201D02*
X41398D01*
X41630Y25969D01*
X40670Y26050D02*
X40821Y26201D01*
X40720Y26380D02*
X41690D01*
X40480Y26140D02*
X40720Y26380D01*
X41110Y20920D02*
Y25773D01*
X40974Y20784D02*
X41110Y20920D01*
X40522Y20784D02*
X40974D01*
X41310Y20837D02*
Y25940D01*
X41001Y20528D02*
X41310Y20837D01*
X40522Y20528D02*
X41001D01*
X41300Y25950D02*
X41310Y25940D01*
X40970Y25913D02*
X41110Y25773D01*
X40970Y25913D02*
Y25950D01*
X37590Y19610D02*
Y19610D01*
X37353Y19847D02*
X37590Y19610D01*
X37353Y19847D02*
Y21232D01*
X37600Y21130D02*
X38630D01*
X39100Y20660D01*
Y20280D02*
Y20660D01*
X38743Y21377D02*
X39065Y21055D01*
X39075D01*
X37498Y21377D02*
X38743D01*
X37353Y21232D02*
X37498Y21377D01*
D29*
X44000Y20200D02*
D03*
Y19510D02*
D03*
D73*
X42907Y24367D02*
X43490Y24950D01*
X42237Y19258D02*
Y23783D01*
X42821Y24367D01*
X42907D01*
X36780Y24670D02*
X39048Y22402D01*
Y22255D02*
Y22402D01*
Y22255D02*
X39678Y21625D01*
X39682Y19298D02*
Y21625D01*
X42540Y21400D02*
X43080Y21940D01*
X44670D01*
X45170Y22440D01*
X38275Y23990D02*
X38890D01*
X38170Y24095D02*
X38275Y23990D01*
X38170Y24095D02*
Y24620D01*
X40470Y26920D01*
X42010D02*
X43070Y25860D01*
X40470Y26920D02*
X42010D01*
X43070Y25860D02*
X44126D01*
X44436Y25550D01*
X43490Y24950D02*
X45530D01*
X42540Y19270D02*
Y20950D01*
Y21400D01*
X45840Y25550D02*
X46580Y24810D01*
X44436Y25550D02*
X45840D01*
X45700Y23910D02*
X46475D01*
X46580Y24015D01*
Y24810D01*
X45170Y23380D02*
X45700Y23910D01*
X45170Y22440D02*
Y23380D01*
X42050Y18440D02*
X42710Y19100D01*
X40070Y18440D02*
X42050D01*
X42225Y19246D02*
X42237Y19258D01*
X44000Y19215D02*
Y19510D01*
X43895Y19110D02*
X44000Y19215D01*
X43862Y19110D02*
X43895D01*
X43852Y19100D02*
X43862Y19110D01*
X42710Y19100D02*
X43852D01*
X42540Y19270D02*
X42710Y19100D01*
X41859Y18880D02*
X42225Y19246D01*
X40100Y18880D02*
X41859D01*
X39682Y19298D02*
X40100Y18880D01*
D74*
X44850Y21250D02*
X46522D01*
X47372Y20400D01*
X37505Y19205D02*
X37753D01*
X36428Y20282D02*
X37505Y19205D01*
X38289Y19740D02*
X38880D01*
X36428Y20282D02*
Y20400D01*
X37753Y19205D02*
X38289Y19740D01*
X38880D02*
X39070Y19550D01*
D76*
X47372Y20400D02*
D03*
X36428D02*
D03*
D77*
X47570Y21740D02*
D03*
X47820Y21500D02*
D03*
Y21980D02*
D03*
X47350Y21500D02*
D03*
Y21980D02*
D03*
X36250Y21760D02*
D03*
X36470Y21490D02*
D03*
Y22010D02*
D03*
X36060Y21490D02*
D03*
X36040Y22020D02*
D03*
X41700Y24690D02*
D03*
X41688Y24207D02*
D03*
X41780Y22490D02*
D03*
Y22170D02*
D03*
X42940Y24080D02*
D03*
X42781Y24651D02*
D03*
X39830Y22120D02*
D03*
X40300Y21625D02*
D03*
X39678D02*
D03*
X39450Y15520D02*
D03*
X39100Y21700D02*
D03*
X36640Y23710D02*
D03*
X37460Y25380D02*
D03*
X39860Y25480D02*
D03*
X47040Y24650D02*
D03*
X43795Y22227D02*
D03*
X43970Y21630D02*
D03*
X44760Y19360D02*
D03*
X42830Y20300D02*
D03*
X42610Y18420D02*
D03*
X44030Y17070D02*
D03*
X38910Y23990D02*
D03*
X38520Y24550D02*
D03*
X43811Y25264D02*
D03*
X39790Y22730D02*
D03*
X44436Y25550D02*
D03*
X46140Y24340D02*
D03*
X44630Y22400D02*
D03*
X40612Y18153D02*
D03*
X41225D02*
D03*
X40070Y18440D02*
D03*
X38650Y18990D02*
D03*
X38210D02*
D03*
X38420Y18770D02*
D03*
X38210Y18530D02*
D03*
X38650D02*
D03*
X45530Y24950D02*
D03*
X43097Y25212D02*
D03*
X42315Y25370D02*
D03*
X41950Y20300D02*
D03*
X42540Y20950D02*
D03*
X43060Y22865D02*
D03*
X46100Y23446D02*
D03*
X42225Y19246D02*
D03*
X36780Y24670D02*
D03*
X39450Y24180D02*
D03*
X39341Y24513D02*
D03*
X41630Y25950D02*
D03*
X41990D02*
D03*
X40970D02*
D03*
X41300D02*
D03*
X44630Y23690D02*
D03*
Y24495D02*
D03*
X37590Y19610D02*
D03*
X37600Y21130D02*
D03*
X39070Y19550D02*
D03*
X39100Y20280D02*
D03*
X39075Y21055D02*
D03*
X44850Y21250D02*
D03*
D78*
X45420Y16133D02*
D03*
Y15267D02*
D03*
X45813Y15700D02*
D03*
X44987D02*
D03*
X45105Y16015D02*
D03*
X45695Y15976D02*
D03*
Y15424D02*
D03*
X45105Y15385D02*
D03*
X45400Y15700D02*
D03*
X44000Y14750D02*
D03*
X43705Y14435D02*
D03*
X44295Y14474D02*
D03*
Y15026D02*
D03*
X43705Y15065D02*
D03*
X43587Y14750D02*
D03*
X44413D02*
D03*
X44020Y14317D02*
D03*
Y15183D02*
D03*
D79*
X43278Y19504D02*
D03*
X40522D02*
D03*
X43278Y21296D02*
D03*
Y21040D02*
D03*
Y20784D02*
D03*
Y20528D02*
D03*
Y20272D02*
D03*
Y20016D02*
D03*
Y19760D02*
D03*
X40522D02*
D03*
Y20016D02*
D03*
Y20272D02*
D03*
Y20528D02*
D03*
Y20784D02*
D03*
Y21040D02*
D03*
Y21296D02*
D03*
D80*
X40810Y16310D02*
X44790D01*
X38450Y18670D02*
X40810Y16310D01*
X44790D02*
X45400Y15700D01*
M02*
