G04*
G04 #@! TF.GenerationSoftware,Altium Limited,Altium Designer,20.0.13 (296)*
G04*
G04 Layer_Color=128*
%FSLAX24Y24*%
%MOIN*%
G70*
G01*
G75*
%ADD87C,0.0020*%
D87*
X46920Y20400D02*
X47825D01*
X47372Y19947D02*
Y20853D01*
X35975Y20400D02*
X36880D01*
X36428Y19947D02*
Y20853D01*
X38371Y18780D02*
X38489D01*
X38430Y18721D02*
Y18839D01*
X38151Y18530D02*
X38269D01*
X38210Y18471D02*
Y18589D01*
X38591Y18530D02*
X38709D01*
X38650Y18471D02*
Y18589D01*
X42551Y18420D02*
X42669D01*
X42610Y18361D02*
Y18479D01*
X42178Y20100D02*
X42296D01*
X42237Y20041D02*
Y20159D01*
X42481Y20950D02*
X42599D01*
X42540Y20891D02*
Y21009D01*
X42771Y20300D02*
X42889D01*
X42830Y20241D02*
Y20359D01*
X41891Y20250D02*
X42009D01*
X41950Y20191D02*
Y20309D01*
X42433Y21808D02*
X42551D01*
X42492Y21749D02*
Y21867D01*
X44741Y21647D02*
X44859D01*
X44800Y21588D02*
Y21706D01*
X42559Y22298D02*
X42677D01*
X42618Y22239D02*
Y22357D01*
X42751Y24130D02*
X42869D01*
X42810Y24071D02*
Y24189D01*
X41674Y21163D02*
X41792D01*
X41733Y21104D02*
Y21222D01*
X43736Y22247D02*
X43854D01*
X43795Y22188D02*
Y22306D01*
X45732Y16616D02*
X45858D01*
X45795Y16553D02*
Y16679D01*
X45732Y16064D02*
X45858D01*
X45795Y16001D02*
Y16127D01*
X45614Y16340D02*
X45740D01*
X45677Y16277D02*
Y16403D01*
X46027Y16340D02*
X46153D01*
X46090Y16277D02*
Y16403D01*
X39335Y23314D02*
X39453D01*
X39394Y23255D02*
Y23373D01*
X40038Y23025D02*
X40156D01*
X40097Y22966D02*
Y23084D01*
X39011Y21260D02*
X39129D01*
X39070Y21201D02*
Y21319D01*
X40641Y22610D02*
X40759D01*
X40700Y22551D02*
Y22669D01*
X41731Y24210D02*
X41849D01*
X41790Y24151D02*
Y24269D01*
X44377Y25550D02*
X44495D01*
X44436Y25491D02*
Y25609D01*
X45005Y25070D02*
X45123D01*
X45064Y25011D02*
Y25129D01*
X45331Y24860D02*
X45449D01*
X45390Y24801D02*
Y24919D01*
X43752Y25264D02*
X43870D01*
X43811Y25205D02*
Y25323D01*
X40911Y25946D02*
X41029D01*
X40970Y25887D02*
Y26005D01*
X36731Y24350D02*
X36849D01*
X36790Y24291D02*
Y24409D01*
X41245Y25946D02*
X41363D01*
X41304Y25887D02*
Y26005D01*
X39801Y25480D02*
X39919D01*
X39860Y25421D02*
Y25539D01*
X39201Y25720D02*
X39319D01*
X39260Y25661D02*
Y25779D01*
X39055Y24412D02*
X39173D01*
X39114Y24353D02*
Y24471D01*
X38461Y24550D02*
X38579D01*
X38520Y24491D02*
Y24609D01*
X39705Y18912D02*
X39823D01*
X39764Y18853D02*
Y18971D01*
X39001Y20740D02*
X39119D01*
X39060Y20681D02*
Y20799D01*
X39011Y20150D02*
X39129D01*
X39070Y20091D02*
Y20209D01*
X39777Y19226D02*
X39895D01*
X39836Y19167D02*
Y19285D01*
X38911Y21600D02*
X39029D01*
X38970Y21541D02*
Y21659D01*
X39741Y18440D02*
X39859D01*
X39800Y18381D02*
Y18499D01*
X41021Y18120D02*
X41139D01*
X41080Y18061D02*
Y18179D01*
X41021Y18450D02*
X41139D01*
X41080Y18391D02*
Y18509D01*
X40641Y22280D02*
X40759D01*
X40700Y22221D02*
Y22339D01*
X41580Y25956D02*
X41698D01*
X41639Y25897D02*
Y26015D01*
X40101Y21600D02*
X40219D01*
X40160Y21541D02*
Y21659D01*
X39377Y24418D02*
X39495D01*
X39436Y24359D02*
Y24477D01*
X37621Y21040D02*
X37739D01*
X37680Y20981D02*
Y21099D01*
X37461Y19550D02*
X37579D01*
X37520Y19491D02*
Y19609D01*
X39011Y19550D02*
X39129D01*
X39070Y19491D02*
Y19609D01*
X44661Y20040D02*
X44779D01*
X44720Y19981D02*
Y20099D01*
X44281Y20950D02*
X44399D01*
X44340Y20891D02*
Y21009D01*
X44778Y20780D02*
X44896D01*
X44837Y20721D02*
Y20839D01*
X44792Y21301D02*
X44910D01*
X44851Y21242D02*
Y21360D01*
X44751Y19720D02*
X44869D01*
X44810Y19661D02*
Y19779D01*
X47511Y21740D02*
X47629D01*
X47570Y21681D02*
Y21799D01*
X47761Y21500D02*
X47879D01*
X47820Y21441D02*
Y21559D01*
X47761Y21980D02*
X47879D01*
X47820Y21921D02*
Y22039D01*
X47291Y21500D02*
X47409D01*
X47350Y21441D02*
Y21559D01*
X47291Y21980D02*
X47409D01*
X47350Y21921D02*
Y22039D01*
X36191Y21760D02*
X36309D01*
X36250Y21701D02*
Y21819D01*
X36411Y21490D02*
X36529D01*
X36470Y21431D02*
Y21549D01*
X36411Y22010D02*
X36529D01*
X36470Y21951D02*
Y22069D01*
X36001Y21490D02*
X36119D01*
X36060Y21431D02*
Y21549D01*
X35981Y22020D02*
X36099D01*
X36040Y21961D02*
Y22079D01*
X41731Y24670D02*
X41849D01*
X41790Y24611D02*
Y24729D01*
X41691Y22530D02*
X41809D01*
X41750Y22471D02*
Y22589D01*
X42722Y24651D02*
X42840D01*
X42781Y24592D02*
Y24710D01*
X39391Y15520D02*
X39509D01*
X39450Y15461D02*
Y15579D01*
X36581Y23710D02*
X36699D01*
X36640Y23651D02*
Y23769D01*
X37401Y25380D02*
X37519D01*
X37460Y25321D02*
Y25439D01*
X46981Y24650D02*
X47099D01*
X47040Y24591D02*
Y24709D01*
X44701Y19360D02*
X44819D01*
X44760Y19301D02*
Y19419D01*
X43971Y17070D02*
X44089D01*
X44030Y17011D02*
Y17129D01*
X46047Y16773D02*
X46173D01*
X46110Y16710D02*
Y16836D01*
X46047Y15907D02*
X46173D01*
X46110Y15844D02*
Y15970D01*
X46440Y16340D02*
X46566D01*
X46503Y16277D02*
Y16403D01*
X46322Y16616D02*
X46448D01*
X46385Y16553D02*
Y16679D01*
X46322Y16064D02*
X46448D01*
X46385Y16001D02*
Y16127D01*
X44571Y22400D02*
X44689D01*
X44630Y22341D02*
Y22459D01*
X38591Y18990D02*
X38709D01*
X38650Y18931D02*
Y19049D01*
X38151Y18990D02*
X38269D01*
X38210Y18931D02*
Y19049D01*
X43038Y25212D02*
X43156D01*
X43097Y25153D02*
Y25272D01*
X42256Y25370D02*
X42374D01*
X42315Y25311D02*
Y25429D01*
X46041Y23446D02*
X46159D01*
X46100Y23387D02*
Y23505D01*
X41931Y25950D02*
X42049D01*
X41990Y25891D02*
Y26009D01*
X44571Y23690D02*
X44689D01*
X44630Y23631D02*
Y23749D01*
X44571Y24495D02*
X44689D01*
X44630Y24436D02*
Y24554D01*
X43967Y14860D02*
X44093D01*
X44030Y14797D02*
Y14923D01*
X43672Y14545D02*
X43798D01*
X43735Y14482D02*
Y14608D01*
X44262Y14584D02*
X44388D01*
X44325Y14521D02*
Y14647D01*
X44262Y15136D02*
X44388D01*
X44325Y15073D02*
Y15199D01*
X43672Y15175D02*
X43798D01*
X43735Y15112D02*
Y15238D01*
X43554Y14860D02*
X43680D01*
X43617Y14797D02*
Y14923D01*
X44380Y14860D02*
X44506D01*
X44443Y14797D02*
Y14923D01*
X43987Y14427D02*
X44113D01*
X44050Y14364D02*
Y14490D01*
X43987Y15293D02*
X44113D01*
X44050Y15230D02*
Y15356D01*
M02*
