M48
;Layer_Color=9474304
;FILE_FORMAT=2:4
INCH,LZ
;TYPE=PLATED
T1F00S00C0.0118
T2F00S00C0.0126
T3F00S00C0.0906
%
T01
X03945Y01552
X04735Y0215
X04757Y02174
X04735Y02198
X04782
Y0215
X04704Y02465
X04539Y02486
X045064Y02507
X04463Y024495
Y02369
Y0224
X0448Y021647
X044851Y021301
X044837Y02078
X04434Y02095
X04472Y02004
X04481Y01972
X04476Y01936
X04283Y0203
X042237Y0201
X04195Y02025
X041733Y021163
X04254Y02095
X042492Y021808
X042618Y022298
X04175Y02253
X0407Y02261
X0407Y02228
X04016Y0216
X03897
X03907Y02126
X03906Y02074
X03907Y02015
Y01955
X03865Y01899
X03843Y01878
X03821Y01899
Y01853
X03865
X0398Y01844
X039764Y018912
X039836Y019226
X04108Y01845
Y01812
X04261Y01842
X04403Y01707
X043795Y022247
X04281Y02413
X042781Y024651
X043097Y025212
X043811Y025264
X044436Y02555
X042315Y02537
X04199Y02595
X041639Y025956
X041304Y025946
X04097
X03986Y02548
X03926Y02572
X039114Y024412
X039436Y024418
X03852Y02455
X03746Y02538
X03679Y02435
X03664Y02371
X03647Y02201
X03604Y02202
X03625Y02176
X03606Y02149
X03647
X03768Y02104
X03752Y01955
X039394Y023314
X040097Y023025
X04179Y02421
Y02467
X0461Y023446
T02
X043735Y014545
X043617Y01486
X04403
X044443
X044325Y014584
X04405Y014427
Y015293
X044325Y015136
X043735Y015175
X045795Y016064
X045677Y01634
X045795Y016616
X04611Y016773
X046385Y016616
X046503Y01634
X046385Y016064
X04611Y015907
X04609Y01634
T03
X047372Y0204
X036428
M30
