G04*
G04 #@! TF.GenerationSoftware,Altium Limited,Altium Designer,20.0.13 (296)*
G04*
G04 Layer_Color=255*
%FSLAX24Y24*%
%MOIN*%
G70*
G01*
G75*
%ADD21R,0.0400X0.0315*%
%ADD22R,0.0350X0.0300*%
G04:AMPARAMS|DCode=23|XSize=35mil|YSize=30mil|CornerRadius=0mil|HoleSize=0mil|Usage=FLASHONLY|Rotation=320.000|XOffset=0mil|YOffset=0mil|HoleType=Round|Shape=Rectangle|*
%AMROTATEDRECTD23*
4,1,4,-0.0230,-0.0002,-0.0038,0.0227,0.0230,0.0002,0.0038,-0.0227,-0.0230,-0.0002,0.0*
%
%ADD23ROTATEDRECTD23*%

G04:AMPARAMS|DCode=24|XSize=11.8mil|YSize=19.7mil|CornerRadius=1.5mil|HoleSize=0mil|Usage=FLASHONLY|Rotation=90.000|XOffset=0mil|YOffset=0mil|HoleType=Round|Shape=RoundedRectangle|*
%AMROUNDEDRECTD24*
21,1,0.0118,0.0167,0,0,90.0*
21,1,0.0089,0.0197,0,0,90.0*
1,1,0.0030,0.0084,0.0044*
1,1,0.0030,0.0084,-0.0044*
1,1,0.0030,-0.0084,-0.0044*
1,1,0.0030,-0.0084,0.0044*
%
%ADD24ROUNDEDRECTD24*%
G04:AMPARAMS|DCode=25|XSize=51.2mil|YSize=35.4mil|CornerRadius=2.7mil|HoleSize=0mil|Usage=FLASHONLY|Rotation=90.000|XOffset=0mil|YOffset=0mil|HoleType=Round|Shape=RoundedRectangle|*
%AMROUNDEDRECTD25*
21,1,0.0512,0.0301,0,0,90.0*
21,1,0.0459,0.0354,0,0,90.0*
1,1,0.0053,0.0151,0.0229*
1,1,0.0053,0.0151,-0.0229*
1,1,0.0053,-0.0151,-0.0229*
1,1,0.0053,-0.0151,0.0229*
%
%ADD25ROUNDEDRECTD25*%
G04:AMPARAMS|DCode=26|XSize=23.6mil|YSize=66.9mil|CornerRadius=0mil|HoleSize=0mil|Usage=FLASHONLY|Rotation=140.000|XOffset=0mil|YOffset=0mil|HoleType=Round|Shape=Rectangle|*
%AMROTATEDRECTD26*
4,1,4,0.0306,0.0180,-0.0125,-0.0332,-0.0306,-0.0180,0.0125,0.0332,0.0306,0.0180,0.0*
%
%ADD26ROTATEDRECTD26*%

G04:AMPARAMS|DCode=27|XSize=39.4mil|YSize=78.7mil|CornerRadius=9.8mil|HoleSize=0mil|Usage=FLASHONLY|Rotation=320.000|XOffset=0mil|YOffset=0mil|HoleType=Round|Shape=RoundedRectangle|*
%AMROUNDEDRECTD27*
21,1,0.0394,0.0591,0,0,320.0*
21,1,0.0197,0.0787,0,0,320.0*
1,1,0.0197,-0.0114,-0.0289*
1,1,0.0197,-0.0265,-0.0163*
1,1,0.0197,0.0114,0.0289*
1,1,0.0197,0.0265,0.0163*
%
%ADD27ROUNDEDRECTD27*%
%ADD28R,0.0236X0.0669*%
%ADD29R,0.0394X0.1102*%
%ADD30C,0.1181*%
%ADD31R,0.0315X0.0400*%
%ADD32R,0.0177X0.0394*%
%ADD33R,0.0300X0.0350*%
%ADD34R,0.0128X0.0394*%
%ADD35R,0.0709X0.0315*%
G04:AMPARAMS|DCode=36|XSize=96.5mil|YSize=22.2mil|CornerRadius=1.7mil|HoleSize=0mil|Usage=FLASHONLY|Rotation=180.000|XOffset=0mil|YOffset=0mil|HoleType=Round|Shape=RoundedRectangle|*
%AMROUNDEDRECTD36*
21,1,0.0965,0.0189,0,0,180.0*
21,1,0.0931,0.0222,0,0,180.0*
1,1,0.0033,-0.0466,0.0095*
1,1,0.0033,0.0466,0.0095*
1,1,0.0033,0.0466,-0.0095*
1,1,0.0033,-0.0466,-0.0095*
%
%ADD36ROUNDEDRECTD36*%
G04:AMPARAMS|DCode=37|XSize=96.5mil|YSize=39.4mil|CornerRadius=3mil|HoleSize=0mil|Usage=FLASHONLY|Rotation=180.000|XOffset=0mil|YOffset=0mil|HoleType=Round|Shape=RoundedRectangle|*
%AMROUNDEDRECTD37*
21,1,0.0965,0.0335,0,0,180.0*
21,1,0.0906,0.0394,0,0,180.0*
1,1,0.0059,-0.0453,0.0167*
1,1,0.0059,0.0453,0.0167*
1,1,0.0059,0.0453,-0.0167*
1,1,0.0059,-0.0453,-0.0167*
%
%ADD37ROUNDEDRECTD37*%
G04:AMPARAMS|DCode=38|XSize=17.7mil|YSize=17.7mil|CornerRadius=2.2mil|HoleSize=0mil|Usage=FLASHONLY|Rotation=180.000|XOffset=0mil|YOffset=0mil|HoleType=Round|Shape=RoundedRectangle|*
%AMROUNDEDRECTD38*
21,1,0.0177,0.0133,0,0,180.0*
21,1,0.0133,0.0177,0,0,180.0*
1,1,0.0044,-0.0066,0.0066*
1,1,0.0044,0.0066,0.0066*
1,1,0.0044,0.0066,-0.0066*
1,1,0.0044,-0.0066,-0.0066*
%
%ADD38ROUNDEDRECTD38*%
%ADD39R,0.0600X0.0630*%
%ADD40R,0.0433X0.0512*%
%ADD41R,0.0197X0.0472*%
G04:AMPARAMS|DCode=42|XSize=50mil|YSize=35mil|CornerRadius=0mil|HoleSize=0mil|Usage=FLASHONLY|Rotation=180.000|XOffset=0mil|YOffset=0mil|HoleType=Round|Shape=Octagon|*
%AMOCTAGOND42*
4,1,8,-0.0250,0.0088,-0.0250,-0.0088,-0.0163,-0.0175,0.0163,-0.0175,0.0250,-0.0088,0.0250,0.0088,0.0163,0.0175,-0.0163,0.0175,-0.0250,0.0088,0.0*
%
%ADD42OCTAGOND42*%

%ADD43R,0.0500X0.0350*%
%ADD44R,0.1614X0.1614*%
%ADD45O,0.0110X0.0433*%
%ADD46O,0.0433X0.0110*%
%ADD77C,0.1299*%
D21*
X44355Y21880D02*
D03*
X43625D02*
D03*
X41535Y16400D02*
D03*
X42265D02*
D03*
X47315Y22515D02*
D03*
X46585D02*
D03*
X45135D02*
D03*
X45865D02*
D03*
X45615Y25550D02*
D03*
X44885D02*
D03*
X38663Y22503D02*
D03*
X37933D02*
D03*
X36435Y22500D02*
D03*
X37165D02*
D03*
X37985Y25550D02*
D03*
X38715D02*
D03*
D22*
X42920Y22030D02*
D03*
X42230D02*
D03*
X41560Y18800D02*
D03*
X42250D02*
D03*
X43652Y19651D02*
D03*
X44342D02*
D03*
X44330Y21300D02*
D03*
X43640D02*
D03*
X42240Y21490D02*
D03*
X42930D02*
D03*
X42240Y22590D02*
D03*
X42930D02*
D03*
X44140Y22500D02*
D03*
X43450D02*
D03*
X45960Y24950D02*
D03*
X46650D02*
D03*
X43460D02*
D03*
X44150D02*
D03*
X43450Y25549D02*
D03*
X42760D02*
D03*
X39460Y19650D02*
D03*
X40150D02*
D03*
X40140Y21251D02*
D03*
X39450D02*
D03*
X39600Y22530D02*
D03*
X40290D02*
D03*
X37160Y24950D02*
D03*
X37850D02*
D03*
X39270Y24990D02*
D03*
X38580D02*
D03*
D23*
X45150Y15261D02*
D03*
X44622Y15705D02*
D03*
X45810Y15451D02*
D03*
X45282Y15895D02*
D03*
D24*
X43637Y20746D02*
D03*
Y20549D02*
D03*
Y20352D02*
D03*
Y20155D02*
D03*
X44346D02*
D03*
Y20352D02*
D03*
Y20549D02*
D03*
Y20746D02*
D03*
X39446Y20155D02*
D03*
Y20352D02*
D03*
Y20548D02*
D03*
Y20745D02*
D03*
X40154D02*
D03*
Y20548D02*
D03*
Y20352D02*
D03*
Y20155D02*
D03*
D25*
X43992Y20451D02*
D03*
X39800Y20450D02*
D03*
D26*
X37959Y17578D02*
D03*
X38336Y17262D02*
D03*
X38713Y16945D02*
D03*
X39090Y16629D02*
D03*
X39844Y15996D02*
D03*
X39467Y16313D02*
D03*
D27*
X36554Y17036D02*
D03*
X39554Y14518D02*
D03*
D28*
X42146Y15541D02*
D03*
X41654D02*
D03*
D29*
X42874Y14222D02*
D03*
X40926D02*
D03*
D30*
X44030Y14860D02*
D03*
X46090Y16340D02*
D03*
D31*
X42980Y16450D02*
D03*
Y17180D02*
D03*
X43620Y18115D02*
D03*
Y18845D02*
D03*
X42980Y17925D02*
D03*
Y18655D02*
D03*
X48000Y22465D02*
D03*
Y21735D02*
D03*
X47150Y24165D02*
D03*
Y23435D02*
D03*
X35700Y22465D02*
D03*
Y21735D02*
D03*
X38500Y24115D02*
D03*
Y23385D02*
D03*
D32*
X44404Y16337D02*
D03*
X44030D02*
D03*
X43656D02*
D03*
Y17437D02*
D03*
X44030D02*
D03*
X44404D02*
D03*
X42974Y19849D02*
D03*
X42226D02*
D03*
X42600D02*
D03*
X42226Y20951D02*
D03*
X42974D02*
D03*
X46474Y23249D02*
D03*
X45726D02*
D03*
X46100D02*
D03*
X45726Y24351D02*
D03*
X46474D02*
D03*
D33*
X45050Y17320D02*
D03*
Y16630D02*
D03*
X44240Y18150D02*
D03*
Y18840D02*
D03*
D34*
X41772Y17050D02*
D03*
X41516D02*
D03*
Y18150D02*
D03*
X41772D02*
D03*
X42028D02*
D03*
X42284D02*
D03*
X42028Y17050D02*
D03*
X42284D02*
D03*
D35*
X45040Y18083D02*
D03*
Y18870D02*
D03*
D36*
X45496Y19993D02*
D03*
X38300Y19994D02*
D03*
D37*
X45496Y20422D02*
D03*
X38300Y20423D02*
D03*
D38*
X45112Y20790D02*
D03*
X45368D02*
D03*
X45624D02*
D03*
X45880D02*
D03*
Y19707D02*
D03*
X45624D02*
D03*
X45368D02*
D03*
X45112D02*
D03*
X37916Y20791D02*
D03*
X38172D02*
D03*
X38428D02*
D03*
X38684D02*
D03*
Y19709D02*
D03*
X38428D02*
D03*
X38172D02*
D03*
X37916D02*
D03*
D39*
X46875Y21650D02*
D03*
X45525D02*
D03*
X36875D02*
D03*
X38225D02*
D03*
D40*
X43430Y24190D02*
D03*
X44220D02*
D03*
X43430Y23220D02*
D03*
X44220D02*
D03*
D41*
X37874Y24301D02*
D03*
X37126D02*
D03*
X37500Y23199D02*
D03*
X37126D02*
D03*
X37874D02*
D03*
D42*
X44000Y26197D02*
D03*
X39600D02*
D03*
D43*
X44700D02*
D03*
X38900D02*
D03*
D44*
X41100Y24200D02*
D03*
D45*
X41888Y25370D02*
D03*
X41692D02*
D03*
X41495D02*
D03*
X41298D02*
D03*
X41101D02*
D03*
X40904D02*
D03*
X40707D02*
D03*
X40510D02*
D03*
X40310D02*
D03*
X40316Y23030D02*
D03*
X40512D02*
D03*
X40709D02*
D03*
X40906D02*
D03*
X41103D02*
D03*
X41300D02*
D03*
X41497D02*
D03*
X41694D02*
D03*
X41890D02*
D03*
D46*
X39930Y23416D02*
D03*
Y23612D02*
D03*
Y23809D02*
D03*
Y24006D02*
D03*
Y24203D02*
D03*
Y24400D02*
D03*
Y24597D02*
D03*
Y24794D02*
D03*
Y24990D02*
D03*
X42270Y24994D02*
D03*
Y24798D02*
D03*
Y24601D02*
D03*
Y24404D02*
D03*
Y24207D02*
D03*
Y24010D02*
D03*
Y23813D02*
D03*
Y23616D02*
D03*
Y23420D02*
D03*
D77*
X47372Y20400D02*
D03*
X36428D02*
D03*
M02*
