G04*
G04 #@! TF.GenerationSoftware,Altium Limited,Altium Designer,20.0.13 (296)*
G04*
G04 Layer_Color=65535*
%FSLAX24Y24*%
%MOIN*%
G70*
G01*
G75*
%ADD10C,0.0098*%
%ADD11C,0.0079*%
%ADD12C,0.0100*%
%ADD13C,0.0118*%
%ADD14C,0.0080*%
%ADD15C,0.0063*%
%ADD16C,0.0039*%
%ADD17C,0.0070*%
%ADD18C,0.0120*%
%ADD19C,0.0087*%
%ADD20C,0.0134*%
G36*
X38018Y19463D02*
X37795Y19463D01*
X37906Y19574D01*
X38018Y19463D01*
D01*
D02*
G37*
G36*
X40404Y20266D02*
X40404Y20043D01*
X40292Y20155D01*
X40404Y20266D01*
D01*
D02*
G37*
G36*
X43388Y20634D02*
X43388Y20857D01*
X43499Y20746D01*
X43388Y20634D01*
D01*
D02*
G37*
G36*
X45214Y19461D02*
X44991Y19461D01*
X45102Y19573D01*
X45214Y19461D01*
D01*
D02*
G37*
G36*
X41281Y15703D02*
X41408D01*
Y15660D01*
X41230D01*
Y15910D01*
X41281D01*
Y15703D01*
D02*
G37*
G36*
X42611Y15660D02*
X42560D01*
Y15770D01*
X42461D01*
Y15660D01*
X42410D01*
Y15912D01*
X42461D01*
Y15813D01*
X42560D01*
Y15912D01*
X42611D01*
Y15660D01*
D02*
G37*
D10*
X44729Y17537D02*
G03*
X44729Y17537I-49J0D01*
G01*
X42599Y18250D02*
G03*
X42599Y18250I-49J0D01*
G01*
D11*
X44790Y16490D02*
G03*
X45310Y16490I260J90D01*
G01*
Y17470D02*
G03*
X44790Y17470I-260J-90D01*
G01*
X44500Y18980D02*
G03*
X43980Y18980I-260J-90D01*
G01*
Y18000D02*
G03*
X44500Y18000I260J90D01*
G01*
X42390Y18540D02*
G03*
X42390Y19060I-90J260D01*
G01*
X41410D02*
G03*
X41410Y18540I90J-260D01*
G01*
X45040Y18476D02*
G03*
X44840Y18476I-100J0D01*
G01*
X45240D02*
G03*
X45040Y18476I-100J0D01*
G01*
X44482Y19391D02*
G03*
X44482Y19911I-90J260D01*
G01*
X43501D02*
G03*
X43501Y19391I90J-260D01*
G01*
Y21511D02*
G03*
X43501Y20991I90J-260D01*
G01*
X44482D02*
G03*
X44482Y21511I-90J260D01*
G01*
X43090Y21290D02*
G03*
X43090Y21810I-90J260D01*
G01*
X42110D02*
G03*
X42110Y21290I90J-260D01*
G01*
X43090Y21840D02*
G03*
X43090Y22360I-90J260D01*
G01*
X42110D02*
G03*
X42110Y21840I90J-260D01*
G01*
X43310Y22760D02*
G03*
X43310Y22240I90J-260D01*
G01*
X44290D02*
G03*
X44290Y22760I-90J260D01*
G01*
X46790Y24690D02*
G03*
X46790Y25210I-90J260D01*
G01*
X45810D02*
G03*
X45810Y24690I90J-260D01*
G01*
X44290D02*
G03*
X44290Y25210I-90J260D01*
G01*
X43310D02*
G03*
X43310Y24690I90J-260D01*
G01*
X42610Y25809D02*
G03*
X42610Y25289I90J-260D01*
G01*
X43590D02*
G03*
X43590Y25809I-90J260D01*
G01*
X40290Y19390D02*
G03*
X40290Y19910I-90J260D01*
G01*
X39310D02*
G03*
X39310Y19390I90J-260D01*
G01*
Y21511D02*
G03*
X39310Y20991I90J-260D01*
G01*
X40290D02*
G03*
X40290Y21511I-90J260D01*
G01*
X40280Y22140D02*
G03*
X40280Y22660I-90J260D01*
G01*
X39300D02*
G03*
X39300Y22140I90J-260D01*
G01*
X37990Y24690D02*
G03*
X37990Y25210I-90J260D01*
G01*
X37010D02*
G03*
X37010Y24690I90J-260D01*
G01*
X38460Y25210D02*
G03*
X38460Y24690I90J-260D01*
G01*
X39440D02*
G03*
X39440Y25210I-90J260D01*
G01*
X37413Y18075D02*
X37790Y17759D01*
X36970Y17547D02*
X37413Y18075D01*
X39986Y15017D02*
X40429Y15544D01*
X40052Y15861D02*
X40429Y15544D01*
X36507Y16445D02*
X38981Y14370D01*
X42884Y14881D02*
Y15570D01*
X42392D02*
X42884D01*
X40916D02*
X41408D01*
X40916Y14881D02*
Y15570D01*
X41231Y13740D02*
X42569D01*
X43420Y16687D02*
X44640D01*
X43420Y17084D02*
X44640D01*
X43420Y16687D02*
Y17084D01*
X44640Y16687D02*
Y17084D01*
X44790Y16490D02*
Y16770D01*
X45310Y16490D02*
Y16770D01*
X44790Y17190D02*
Y17470D01*
X45310Y17190D02*
Y17470D01*
X44500Y18700D02*
Y18980D01*
X43980Y18700D02*
Y18980D01*
X44500Y18000D02*
Y18280D01*
X43980Y18000D02*
Y18280D01*
X41290Y17400D02*
X42510D01*
X41290Y17797D02*
X42510D01*
X41290Y17400D02*
Y17797D01*
X42510Y17400D02*
Y17797D01*
X42110Y18540D02*
X42390D01*
X42110Y19060D02*
X42390D01*
X41410Y18540D02*
X41690D01*
X41410Y19060D02*
X41690D01*
X45240Y18476D02*
X45355D01*
X44725D02*
X44840D01*
X45473Y18319D02*
Y18634D01*
X44607Y18319D02*
Y18634D01*
X44202Y19391D02*
X44482D01*
X44202Y19911D02*
X44482D01*
X43501Y19391D02*
X43782D01*
X43501Y19911D02*
X43782D01*
X43598Y20018D02*
X44385D01*
X43598Y20884D02*
X44385D01*
X43501Y21511D02*
X43782D01*
X43501Y20991D02*
X43782D01*
X44202Y21511D02*
X44482D01*
X44202Y20991D02*
X44482D01*
X42810Y21290D02*
X43090D01*
X42810Y21810D02*
X43090D01*
X42110Y21290D02*
X42390D01*
X42110Y21810D02*
X42390D01*
X42810Y21840D02*
X43090D01*
X42810Y22360D02*
X43090D01*
X42110Y21840D02*
X42390D01*
X42110Y22360D02*
X42390D01*
X43310Y22760D02*
X43590D01*
X43310Y22240D02*
X43590D01*
X44010Y22760D02*
X44290D01*
X44010Y22240D02*
X44290D01*
X46510Y24690D02*
X46790D01*
X46510Y25210D02*
X46790D01*
X45810Y24690D02*
X46090D01*
X45810Y25210D02*
X46090D01*
X44010Y24690D02*
X44290D01*
X44010Y25210D02*
X44290D01*
X43310Y24690D02*
X43590D01*
X43310Y25210D02*
X43590D01*
X42610Y25809D02*
X42890D01*
X42610Y25289D02*
X42890D01*
X43310Y25809D02*
X43590D01*
X43310Y25289D02*
X43590D01*
X40010Y19390D02*
X40290D01*
X40010Y19910D02*
X40290D01*
X39310Y19390D02*
X39590D01*
X39310Y19910D02*
X39590D01*
X39406Y20883D02*
X40194D01*
X39406Y20017D02*
X40194D01*
X39310Y21511D02*
X39590D01*
X39310Y20991D02*
X39590D01*
X40010Y21511D02*
X40290D01*
X40010Y20991D02*
X40290D01*
X40000Y22140D02*
X40280D01*
X40000Y22660D02*
X40280D01*
X39300Y22140D02*
X39580D01*
X39300Y22660D02*
X39580D01*
X37710Y24690D02*
X37990D01*
X37710Y25210D02*
X37990D01*
X37010Y24690D02*
X37290D01*
X37010Y25210D02*
X37290D01*
X38460D02*
X38740D01*
X38460Y24690D02*
X38740D01*
X39160Y25210D02*
X39440D01*
X39160Y24690D02*
X39440D01*
D12*
X42216Y20290D02*
G03*
X42216Y20290I-10J0D01*
G01*
X42030Y19750D02*
G03*
X42030Y19750I-30J0D01*
G01*
X45716Y23690D02*
G03*
X45716Y23690I-10J0D01*
G01*
X45530Y23150D02*
G03*
X45530Y23150I-30J0D01*
G01*
X44750Y23050D02*
G03*
X44750Y23050I-50J0D01*
G01*
X36920Y23080D02*
G03*
X36920Y23080I-30J0D01*
G01*
X37116Y23640D02*
G03*
X37116Y23640I-10J0D01*
G01*
X39840Y25184D02*
Y25460D01*
X40116D01*
X42360Y25184D02*
Y25460D01*
X42084D02*
X42360D01*
X39840Y22940D02*
Y23216D01*
Y22940D02*
X40116D01*
X42084D02*
X42360D01*
Y23216D01*
D13*
X42517Y23009D02*
G03*
X42517Y23010I59J0D01*
G01*
X46188Y15950D02*
X46712D01*
X46450Y16212D02*
Y15688D01*
D14*
X41225Y16660D02*
X42575D01*
X41225Y16140D02*
Y16660D01*
Y16140D02*
X42575D01*
Y16660D01*
X42720Y16140D02*
Y17490D01*
Y16140D02*
X43240D01*
Y17490D01*
X42720D02*
X43240D01*
X43360Y17805D02*
Y19155D01*
Y17805D02*
X43880D01*
Y19155D01*
X43360D02*
X43880D01*
X42720Y17615D02*
Y18965D01*
Y17615D02*
X43240D01*
Y18965D01*
X42720D02*
X43240D01*
X48260Y21425D02*
Y22775D01*
X47740D02*
X48260D01*
X47740Y21425D02*
Y22775D01*
Y21425D02*
X48260D01*
X46275Y22255D02*
X47625D01*
Y22775D01*
X46275D02*
X47625D01*
X46275Y22255D02*
Y22775D01*
X44825D02*
X46175D01*
X44825Y22255D02*
Y22775D01*
Y22255D02*
X46175D01*
Y22775D01*
X47410Y23125D02*
Y24475D01*
X46890D02*
X47410D01*
X46890Y23125D02*
Y24475D01*
Y23125D02*
X47410D01*
X44575Y25290D02*
X45925D01*
Y25810D01*
X44575D02*
X45925D01*
X44575Y25290D02*
Y25810D01*
X37625Y22240D02*
X38975D01*
Y22760D01*
X37625D02*
X38975D01*
X37625Y22240D02*
Y22760D01*
X36125D02*
X37475D01*
X36125Y22240D02*
Y22760D01*
Y22240D02*
X37475D01*
Y22760D01*
X35960Y21425D02*
Y22775D01*
X35440D02*
X35960D01*
X35440Y21425D02*
Y22775D01*
Y21425D02*
X35960D01*
X38760Y23075D02*
Y24425D01*
X38240D02*
X38760D01*
X38240Y23075D02*
Y24425D01*
Y23075D02*
X38760D01*
X44520Y25917D02*
X45050D01*
X45060D01*
Y26457D01*
Y26477D01*
X44520D02*
X45060D01*
X43640Y25917D02*
X44180D01*
X43640Y25937D02*
Y26477D01*
X43650D02*
X44180D01*
X43540Y25917D02*
X43640D01*
X43540D02*
Y26477D01*
X43640D01*
X37675Y25810D02*
X39025D01*
X37675Y25290D02*
Y25810D01*
Y25290D02*
X39025D01*
Y25810D01*
X38550Y26477D02*
X39080D01*
X38540D02*
X38550D01*
X38540Y25937D02*
Y26477D01*
Y25917D02*
Y25937D01*
Y25917D02*
X39080D01*
X39420Y26477D02*
X39960D01*
Y25917D02*
Y26457D01*
X39420Y25917D02*
X39950D01*
X39960Y26477D02*
X40060D01*
Y25917D02*
Y26477D01*
X39960Y25917D02*
X40060D01*
D15*
X44607Y17856D02*
X44607Y18083D01*
X44607Y17856D02*
X45473D01*
X45473Y18083D02*
X45473Y17856D01*
X44607Y18870D02*
Y19096D01*
X45473D01*
Y18870D02*
Y19096D01*
D16*
X46087Y19658D02*
X46087Y20839D01*
X44906D02*
X44906Y19658D01*
X43500Y23725D02*
X43750D01*
X43900D02*
X44150D01*
X43500D02*
Y23850D01*
X44150Y23550D02*
Y23725D01*
X43750Y23600D02*
Y23850D01*
X43800Y23600D02*
X43850D01*
X43800D02*
Y23850D01*
X43850D01*
Y23600D02*
Y23850D01*
X43900Y23600D02*
Y23850D01*
X38891Y19659D02*
X38891Y20841D01*
X37709D02*
X37709Y19659D01*
X44659Y23398D02*
X44790Y23202D01*
Y23398D02*
X44659Y23202D01*
X44856D02*
X44921D01*
X44888D01*
Y23398D01*
X44856Y23366D01*
X41606Y20668D02*
Y20504D01*
X41639Y20472D01*
X41704D01*
X41737Y20504D01*
Y20668D01*
X41803Y20504D02*
X41836Y20472D01*
X41901D01*
X41934Y20504D01*
Y20636D01*
X41901Y20668D01*
X41836D01*
X41803Y20636D01*
Y20603D01*
X41836Y20570D01*
X41934D01*
X43566Y16028D02*
Y15864D01*
X43599Y15832D01*
X43664D01*
X43697Y15864D01*
Y16028D01*
X43763Y15996D02*
X43796Y16028D01*
X43861D01*
X43894Y15996D01*
Y15963D01*
X43861Y15930D01*
X43894Y15897D01*
Y15864D01*
X43861Y15832D01*
X43796D01*
X43763Y15864D01*
Y15897D01*
X43796Y15930D01*
X43763Y15963D01*
Y15996D01*
X43796Y15930D02*
X43861D01*
X36652Y23196D02*
X36816D01*
X36848Y23229D01*
Y23294D01*
X36816Y23327D01*
X36652D01*
Y23393D02*
Y23524D01*
X36684D01*
X36816Y23393D01*
X36848D01*
X40326Y20858D02*
Y20694D01*
X40359Y20662D01*
X40424D01*
X40457Y20694D01*
Y20858D01*
X40654D02*
X40588Y20826D01*
X40523Y20760D01*
Y20694D01*
X40556Y20662D01*
X40621D01*
X40654Y20694D01*
Y20727D01*
X40621Y20760D01*
X40523D01*
X45116Y24068D02*
Y23904D01*
X45149Y23872D01*
X45214D01*
X45247Y23904D01*
Y24068D01*
X45444D02*
X45313D01*
Y23970D01*
X45378Y24003D01*
X45411D01*
X45444Y23970D01*
Y23904D01*
X45411Y23872D01*
X45346D01*
X45313Y23904D01*
X40886Y17658D02*
Y17494D01*
X40919Y17462D01*
X40984D01*
X41017Y17494D01*
Y17658D01*
X41181Y17462D02*
Y17658D01*
X41083Y17560D01*
X41214D01*
X43282Y20246D02*
X43446D01*
X43478Y20279D01*
Y20344D01*
X43446Y20377D01*
X43282D01*
X43478Y20574D02*
Y20443D01*
X43347Y20574D01*
X43314D01*
X43282Y20541D01*
Y20476D01*
X43314Y20443D01*
X41050Y24297D02*
Y24133D01*
X41083Y24100D01*
X41148D01*
X41181Y24133D01*
Y24297D01*
X41247Y24100D02*
X41312D01*
X41280D01*
Y24297D01*
X41247Y24264D01*
X42534Y19072D02*
Y19268D01*
X42632D01*
X42665Y19236D01*
Y19170D01*
X42632Y19137D01*
X42534D01*
X42600D02*
X42665Y19072D01*
X42731D02*
X42796D01*
X42764D01*
Y19268D01*
X42731Y19236D01*
X43026Y19268D02*
X42960Y19236D01*
X42895Y19170D01*
Y19104D01*
X42928Y19072D01*
X42993D01*
X43026Y19104D01*
Y19137D01*
X42993Y19170D01*
X42895D01*
X35614Y22852D02*
Y23048D01*
X35712D01*
X35745Y23016D01*
Y22950D01*
X35712Y22917D01*
X35614D01*
X35680D02*
X35745Y22852D01*
X35811D02*
X35876D01*
X35844D01*
Y23048D01*
X35811Y23016D01*
X36106Y23048D02*
X35975D01*
Y22950D01*
X36040Y22983D01*
X36073D01*
X36106Y22950D01*
Y22884D01*
X36073Y22852D01*
X36008D01*
X35975Y22884D01*
X42724Y15862D02*
Y16058D01*
X42822D01*
X42855Y16026D01*
Y15960D01*
X42822Y15927D01*
X42724D01*
X42790D02*
X42855Y15862D01*
X42921D02*
X42986D01*
X42954D01*
Y16058D01*
X42921Y16026D01*
X43183Y15862D02*
Y16058D01*
X43085Y15960D01*
X43216D01*
X36194Y22862D02*
Y23058D01*
X36292D01*
X36325Y23026D01*
Y22960D01*
X36292Y22927D01*
X36194D01*
X36260D02*
X36325Y22862D01*
X36391D02*
X36456D01*
X36424D01*
Y23058D01*
X36391Y23026D01*
X36555D02*
X36588Y23058D01*
X36653D01*
X36686Y23026D01*
Y22993D01*
X36653Y22960D01*
X36620D01*
X36653D01*
X36686Y22927D01*
Y22894D01*
X36653Y22862D01*
X36588D01*
X36555Y22894D01*
X43024Y19232D02*
Y19428D01*
X43122D01*
X43155Y19396D01*
Y19330D01*
X43122Y19297D01*
X43024D01*
X43090D02*
X43155Y19232D01*
X43221D02*
X43286D01*
X43254D01*
Y19428D01*
X43221Y19396D01*
X43516Y19232D02*
X43385D01*
X43516Y19363D01*
Y19396D01*
X43483Y19428D01*
X43418D01*
X43385Y19396D01*
X38557Y22832D02*
Y23028D01*
X38655D01*
X38688Y22996D01*
Y22930D01*
X38655Y22897D01*
X38557D01*
X38622D02*
X38688Y22832D01*
X38754D02*
X38819D01*
X38786D01*
Y23028D01*
X38754Y22996D01*
X38918Y22832D02*
X38983D01*
X38950D01*
Y23028D01*
X38918Y22996D01*
X38834Y24182D02*
Y24378D01*
X38932D01*
X38965Y24346D01*
Y24280D01*
X38932Y24247D01*
X38834D01*
X38900D02*
X38965Y24182D01*
X39031D02*
X39096D01*
X39064D01*
Y24378D01*
X39031Y24346D01*
X39195D02*
X39228Y24378D01*
X39293D01*
X39326Y24346D01*
Y24214D01*
X39293Y24182D01*
X39228D01*
X39195Y24214D01*
Y24346D01*
X38786Y21902D02*
Y22098D01*
X38884D01*
X38917Y22066D01*
Y22000D01*
X38884Y21967D01*
X38786D01*
X38852D02*
X38917Y21902D01*
X38983Y21934D02*
X39016Y21902D01*
X39081D01*
X39114Y21934D01*
Y22066D01*
X39081Y22098D01*
X39016D01*
X38983Y22066D01*
Y22033D01*
X39016Y22000D01*
X39114D01*
X47746Y22852D02*
Y23048D01*
X47844D01*
X47877Y23016D01*
Y22950D01*
X47844Y22917D01*
X47746D01*
X47812D02*
X47877Y22852D01*
X47943Y23016D02*
X47976Y23048D01*
X48041D01*
X48074Y23016D01*
Y22983D01*
X48041Y22950D01*
X48074Y22917D01*
Y22884D01*
X48041Y22852D01*
X47976D01*
X47943Y22884D01*
Y22917D01*
X47976Y22950D01*
X47943Y22983D01*
Y23016D01*
X47976Y22950D02*
X48041D01*
X46706Y22852D02*
Y23048D01*
X46804D01*
X46837Y23016D01*
Y22950D01*
X46804Y22917D01*
X46706D01*
X46772D02*
X46837Y22852D01*
X46903Y23048D02*
X47034D01*
Y23016D01*
X46903Y22884D01*
Y22852D01*
X40826Y16242D02*
Y16438D01*
X40924D01*
X40957Y16406D01*
Y16340D01*
X40924Y16307D01*
X40826D01*
X40892D02*
X40957Y16242D01*
X41154Y16438D02*
X41088Y16406D01*
X41023Y16340D01*
Y16274D01*
X41056Y16242D01*
X41121D01*
X41154Y16274D01*
Y16307D01*
X41121Y16340D01*
X41023D01*
X44836Y22852D02*
Y23048D01*
X44934D01*
X44967Y23016D01*
Y22950D01*
X44934Y22917D01*
X44836D01*
X44902D02*
X44967Y22852D01*
X45164Y23048D02*
X45033D01*
Y22950D01*
X45098Y22983D01*
X45131D01*
X45164Y22950D01*
Y22884D01*
X45131Y22852D01*
X45066D01*
X45033Y22884D01*
X47496Y23122D02*
Y23318D01*
X47594D01*
X47627Y23286D01*
Y23220D01*
X47594Y23187D01*
X47496D01*
X47562D02*
X47627Y23122D01*
X47791D02*
Y23318D01*
X47693Y23220D01*
X47824D01*
X44666Y21932D02*
Y22128D01*
X44764D01*
X44797Y22096D01*
Y22030D01*
X44764Y21997D01*
X44666D01*
X44732D02*
X44797Y21932D01*
X44863Y22096D02*
X44896Y22128D01*
X44961D01*
X44994Y22096D01*
Y22063D01*
X44961Y22030D01*
X44928D01*
X44961D01*
X44994Y21997D01*
Y21964D01*
X44961Y21932D01*
X44896D01*
X44863Y21964D01*
X39136Y25632D02*
Y25828D01*
X39234D01*
X39267Y25796D01*
Y25730D01*
X39234Y25697D01*
X39136D01*
X39202D02*
X39267Y25632D01*
X39464D02*
X39333D01*
X39464Y25763D01*
Y25796D01*
X39431Y25828D01*
X39366D01*
X39333Y25796D01*
X45219Y25912D02*
Y26108D01*
X45317D01*
X45350Y26076D01*
Y26010D01*
X45317Y25977D01*
X45219D01*
X45284D02*
X45350Y25912D01*
X45416D02*
X45481D01*
X45448D01*
Y26108D01*
X45416Y26076D01*
X38327Y19364D02*
Y19496D01*
X38294Y19528D01*
X38229D01*
X38196Y19496D01*
Y19364D01*
X38229Y19332D01*
X38294D01*
X38262Y19397D02*
X38327Y19332D01*
X38294D02*
X38327Y19364D01*
X38524Y19332D02*
X38393D01*
X38524Y19463D01*
Y19496D01*
X38491Y19528D01*
X38426D01*
X38393Y19496D01*
X45380Y19394D02*
Y19526D01*
X45347Y19558D01*
X45282D01*
X45249Y19526D01*
Y19394D01*
X45282Y19362D01*
X45347D01*
X45314Y19427D02*
X45380Y19362D01*
X45347D02*
X45380Y19394D01*
X45446Y19362D02*
X45511D01*
X45478D01*
Y19558D01*
X45446Y19526D01*
X36260Y20300D02*
Y20497D01*
X36358D01*
X36391Y20464D01*
Y20398D01*
X36358Y20366D01*
X36260D01*
X36555Y20300D02*
Y20497D01*
X36457Y20398D01*
X36588D01*
X47210Y20300D02*
Y20497D01*
X47308D01*
X47341Y20464D01*
Y20398D01*
X47308Y20366D01*
X47210D01*
X47407Y20464D02*
X47440Y20497D01*
X47505D01*
X47538Y20464D01*
Y20431D01*
X47505Y20398D01*
X47472D01*
X47505D01*
X47538Y20366D01*
Y20333D01*
X47505Y20300D01*
X47440D01*
X47407Y20333D01*
X39468Y26542D02*
Y26738D01*
X39566D01*
X39599Y26706D01*
Y26640D01*
X39566Y26607D01*
X39468D01*
X39664Y26738D02*
Y26542D01*
X39763D01*
X39796Y26574D01*
Y26607D01*
X39763Y26640D01*
X39664D01*
X39763D01*
X39796Y26673D01*
Y26706D01*
X39763Y26738D01*
X39664D01*
X39992Y26542D02*
X39861D01*
X39992Y26673D01*
Y26706D01*
X39960Y26738D01*
X39894D01*
X39861Y26706D01*
X43540Y26562D02*
Y26758D01*
X43639D01*
X43672Y26726D01*
Y26660D01*
X43639Y26627D01*
X43540D01*
X43737Y26758D02*
Y26562D01*
X43836D01*
X43868Y26594D01*
Y26627D01*
X43836Y26660D01*
X43737D01*
X43836D01*
X43868Y26693D01*
Y26726D01*
X43836Y26758D01*
X43737D01*
X43934Y26562D02*
X44000D01*
X43967D01*
Y26758D01*
X43934Y26726D01*
X44969Y19368D02*
Y19172D01*
X45100D01*
X45166D02*
X45231D01*
X45198D01*
Y19368D01*
X45166Y19336D01*
X40629Y15866D02*
X40596Y15898D01*
X40530D01*
X40498Y15866D01*
Y15734D01*
X40530Y15702D01*
X40596D01*
X40629Y15734D01*
X40694Y15702D02*
Y15833D01*
X40760Y15898D01*
X40826Y15833D01*
Y15702D01*
Y15800D01*
X40694D01*
X40891Y15702D02*
Y15898D01*
X41022Y15702D01*
Y15898D01*
X36794Y18062D02*
Y18258D01*
X36860Y18193D01*
X36926Y18258D01*
Y18062D01*
X36525Y24446D02*
X36492Y24478D01*
X36427D01*
X36394Y24446D01*
Y24314D01*
X36427Y24282D01*
X36492D01*
X36525Y24314D01*
X36591Y24282D02*
X36656D01*
X36624D01*
Y24478D01*
X36591Y24446D01*
X36755Y24478D02*
X36886D01*
Y24446D01*
X36755Y24314D01*
Y24282D01*
X43925Y19346D02*
X43892Y19378D01*
X43827D01*
X43794Y19346D01*
Y19214D01*
X43827Y19182D01*
X43892D01*
X43925Y19214D01*
X43991Y19182D02*
X44056D01*
X44024D01*
Y19378D01*
X43991Y19346D01*
X44286Y19378D02*
X44220Y19346D01*
X44155Y19280D01*
Y19214D01*
X44188Y19182D01*
X44253D01*
X44286Y19214D01*
Y19247D01*
X44253Y19280D01*
X44155D01*
X43455Y21766D02*
X43422Y21798D01*
X43357D01*
X43324Y21766D01*
Y21634D01*
X43357Y21602D01*
X43422D01*
X43455Y21634D01*
X43521Y21602D02*
X43586D01*
X43554D01*
Y21798D01*
X43521Y21766D01*
X43816Y21798D02*
X43685D01*
Y21700D01*
X43750Y21733D01*
X43783D01*
X43816Y21700D01*
Y21634D01*
X43783Y21602D01*
X43718D01*
X43685Y21634D01*
X45525Y17416D02*
X45492Y17448D01*
X45427D01*
X45394Y17416D01*
Y17284D01*
X45427Y17252D01*
X45492D01*
X45525Y17284D01*
X45591Y17252D02*
X45656D01*
X45624D01*
Y17448D01*
X45591Y17416D01*
X45853Y17252D02*
Y17448D01*
X45755Y17350D01*
X45886D01*
X40695Y21316D02*
X40662Y21348D01*
X40597D01*
X40564Y21316D01*
Y21184D01*
X40597Y21152D01*
X40662D01*
X40695Y21184D01*
X40761Y21152D02*
X40826D01*
X40794D01*
Y21348D01*
X40761Y21316D01*
X40925D02*
X40958Y21348D01*
X41023D01*
X41056Y21316D01*
Y21283D01*
X41023Y21250D01*
X40990D01*
X41023D01*
X41056Y21217D01*
Y21184D01*
X41023Y21152D01*
X40958D01*
X40925Y21184D01*
X46135Y25466D02*
X46102Y25498D01*
X46037D01*
X46004Y25466D01*
Y25334D01*
X46037Y25302D01*
X46102D01*
X46135Y25334D01*
X46201Y25302D02*
X46266D01*
X46234D01*
Y25498D01*
X46201Y25466D01*
X46496Y25302D02*
X46365D01*
X46496Y25433D01*
Y25466D01*
X46463Y25498D01*
X46398D01*
X46365Y25466D01*
X41528Y19316D02*
X41495Y19348D01*
X41430D01*
X41397Y19316D01*
Y19184D01*
X41430Y19152D01*
X41495D01*
X41528Y19184D01*
X41594Y19152D02*
X41659D01*
X41626D01*
Y19348D01*
X41594Y19316D01*
X41758Y19152D02*
X41823D01*
X41790D01*
Y19348D01*
X41758Y19316D01*
X39445Y19266D02*
X39412Y19298D01*
X39347D01*
X39314Y19266D01*
Y19134D01*
X39347Y19102D01*
X39412D01*
X39445Y19134D01*
X39511Y19102D02*
X39576D01*
X39544D01*
Y19298D01*
X39511Y19266D01*
X39675D02*
X39708Y19298D01*
X39773D01*
X39806Y19266D01*
Y19134D01*
X39773Y19102D01*
X39708D01*
X39675Y19134D01*
Y19266D01*
X43297Y20136D02*
X43264Y20168D01*
X43199D01*
X43166Y20136D01*
Y20004D01*
X43199Y19972D01*
X43264D01*
X43297Y20004D01*
X43363Y20136D02*
X43396Y20168D01*
X43461D01*
X43494Y20136D01*
Y20103D01*
X43461Y20070D01*
X43494Y20037D01*
Y20004D01*
X43461Y19972D01*
X43396D01*
X43363Y20004D01*
Y20037D01*
X43396Y20070D01*
X43363Y20103D01*
Y20136D01*
X43396Y20070D02*
X43461D01*
X44347Y21756D02*
X44314Y21788D01*
X44249D01*
X44216Y21756D01*
Y21624D01*
X44249Y21592D01*
X44314D01*
X44347Y21624D01*
X44413Y21788D02*
X44544D01*
Y21756D01*
X44413Y21624D01*
Y21592D01*
X43457Y22066D02*
X43424Y22098D01*
X43359D01*
X43326Y22066D01*
Y21934D01*
X43359Y21902D01*
X43424D01*
X43457Y21934D01*
X43654Y22098D02*
X43588Y22066D01*
X43523Y22000D01*
Y21934D01*
X43556Y21902D01*
X43621D01*
X43654Y21934D01*
Y21967D01*
X43621Y22000D01*
X43523D01*
X39277Y25476D02*
X39244Y25508D01*
X39179D01*
X39146Y25476D01*
Y25344D01*
X39179Y25312D01*
X39244D01*
X39277Y25344D01*
X39474Y25508D02*
X39343D01*
Y25410D01*
X39408Y25443D01*
X39441D01*
X39474Y25410D01*
Y25344D01*
X39441Y25312D01*
X39376D01*
X39343Y25344D01*
X39437Y22916D02*
X39404Y22948D01*
X39339D01*
X39306Y22916D01*
Y22784D01*
X39339Y22752D01*
X39404D01*
X39437Y22784D01*
X39601Y22752D02*
Y22948D01*
X39503Y22850D01*
X39634D01*
X42737Y26066D02*
X42704Y26098D01*
X42639D01*
X42606Y26066D01*
Y25934D01*
X42639Y25902D01*
X42704D01*
X42737Y25934D01*
X42803Y26066D02*
X42836Y26098D01*
X42901D01*
X42934Y26066D01*
Y26033D01*
X42901Y26000D01*
X42868D01*
X42901D01*
X42934Y25967D01*
Y25934D01*
X42901Y25902D01*
X42836D01*
X42803Y25934D01*
X44127Y25456D02*
X44094Y25488D01*
X44029D01*
X43996Y25456D01*
Y25324D01*
X44029Y25292D01*
X44094D01*
X44127Y25324D01*
X44324Y25292D02*
X44193D01*
X44324Y25423D01*
Y25456D01*
X44291Y25488D01*
X44226D01*
X44193Y25456D01*
X42930Y22676D02*
X42897Y22708D01*
X42832D01*
X42799Y22676D01*
Y22544D01*
X42832Y22512D01*
X42897D01*
X42930Y22544D01*
X42996Y22512D02*
X43061D01*
X43028D01*
Y22708D01*
X42996Y22676D01*
D17*
X42009Y20140D02*
X43191D01*
X42009Y20660D02*
X43191D01*
Y20140D02*
Y20660D01*
X42009Y20140D02*
Y20660D01*
X45509Y23540D02*
X46691D01*
X45509Y24060D02*
X46691D01*
Y23540D02*
Y24060D01*
X45509Y23540D02*
Y24060D01*
X36909Y23520D02*
Y23970D01*
X38091Y23520D02*
Y23970D01*
X36909D02*
X38091D01*
X36909Y23520D02*
X38091D01*
D18*
X45085Y22090D02*
X47315D01*
X45085Y21210D02*
X47315D01*
X45085D02*
Y22090D01*
X47315Y21210D02*
Y22090D01*
X36435Y21210D02*
X38665D01*
X36435Y22090D02*
X38665D01*
Y21210D02*
Y22090D01*
X36435Y21210D02*
Y22090D01*
D19*
X44550Y22850D02*
Y24550D01*
X43100D02*
X44550D01*
X43100Y22850D02*
Y24550D01*
Y22850D02*
X44550D01*
D20*
X44768Y14740D02*
X45292D01*
M02*
