G04*
G04 #@! TF.GenerationSoftware,Altium Limited,Altium Designer,20.0.13 (296)*
G04*
G04 Layer_Color=2752767*
%FSLAX44Y44*%
%MOMM*%
G71*
G01*
G75*
%ADD86C,0.0508*%
%ADD87C,0.0677*%
D86*
X1201228Y516128D02*
Y520192D01*
X1205292D01*
Y516128D01*
X1201228D01*
X923228D02*
Y520192D01*
X927292D01*
Y516128D01*
X923228D01*
X1153660Y407748D02*
X1151628Y411812D01*
X1155692D01*
X1153660Y407748D01*
Y385748D02*
X1151628Y389812D01*
X1155692D01*
X1153660Y385748D01*
X1163660Y396748D02*
X1161628Y400812D01*
X1165692D01*
X1163660Y396748D01*
X1142660D02*
X1140628Y400812D01*
X1144692D01*
X1142660Y396748D01*
X1145660Y404748D02*
X1143628Y408812D01*
X1147692D01*
X1145660Y404748D01*
X1160660Y403748D02*
X1158628Y407812D01*
X1162692D01*
X1160660Y403748D01*
Y389748D02*
X1158628Y393812D01*
X1162692D01*
X1160660Y389748D01*
X1145660Y388748D02*
X1143628Y392812D01*
X1147692D01*
X1145660Y388748D01*
X1153160Y396748D02*
X1151128Y400812D01*
X1155192D01*
X1153160Y396748D01*
X1117600Y372618D02*
X1115568Y376682D01*
X1119632D01*
X1117600Y372618D01*
X1110100Y364618D02*
X1108068Y368682D01*
X1112132D01*
X1110100Y364618D01*
X1125100Y365618D02*
X1123068Y369682D01*
X1127132D01*
X1125100Y365618D01*
Y379618D02*
X1123068Y383682D01*
X1127132D01*
X1125100Y379618D01*
X1110100Y380618D02*
X1108068Y384682D01*
X1112132D01*
X1110100Y380618D01*
X1107100Y372618D02*
X1105068Y376682D01*
X1109132D01*
X1107100Y372618D01*
X1128100D02*
X1126068Y376682D01*
X1130132D01*
X1128100Y372618D01*
X1118100Y361618D02*
X1116068Y365682D01*
X1120132D01*
X1118100Y361618D01*
Y383618D02*
X1116068Y387682D01*
X1120132D01*
X1118100Y383618D01*
D87*
X1210310Y552196D02*
G03*
X1210310Y552196I-2032J0D01*
G01*
X1216660Y546100D02*
G03*
X1216660Y546100I-2032J0D01*
G01*
Y558292D02*
G03*
X1216660Y558292I-2032J0D01*
G01*
X1204722Y546100D02*
G03*
X1204722Y546100I-2032J0D01*
G01*
Y558292D02*
G03*
X1204722Y558292I-2032J0D01*
G01*
X922782Y552704D02*
G03*
X922782Y552704I-2032J0D01*
G01*
X928370Y545846D02*
G03*
X928370Y545846I-2032J0D01*
G01*
Y559054D02*
G03*
X928370Y559054I-2032J0D01*
G01*
X917956Y545846D02*
G03*
X917956Y545846I-2032J0D01*
G01*
X917448Y559308D02*
G03*
X917448Y559308I-2032J0D01*
G01*
X1061212Y627126D02*
G03*
X1061212Y627126I-2032J0D01*
G01*
X1060920Y614858D02*
G03*
X1060920Y614858I-2032J0D01*
G01*
X1063244Y571246D02*
G03*
X1063244Y571246I-2032J0D01*
G01*
Y563118D02*
G03*
X1063244Y563118I-2032J0D01*
G01*
X1092708Y611632D02*
G03*
X1092708Y611632I-2032J0D01*
G01*
X1088666Y626132D02*
G03*
X1088666Y626132I-2032J0D01*
G01*
X1013714Y561848D02*
G03*
X1013714Y561848I-2032J0D01*
G01*
X1025652Y549279D02*
G03*
X1025652Y549279I-2032J0D01*
G01*
X1009844D02*
G03*
X1009844Y549279I-2032J0D01*
G01*
X1004062Y394208D02*
G03*
X1004062Y394208I-2032J0D01*
G01*
X995172Y551180D02*
G03*
X995172Y551180I-2032J0D01*
G01*
X932688Y602234D02*
G03*
X932688Y602234I-2032J0D01*
G01*
X953516Y644652D02*
G03*
X953516Y644652I-2032J0D01*
G01*
X1014476Y647192D02*
G03*
X1014476Y647192I-2032J0D01*
G01*
X1196848Y626110D02*
G03*
X1196848Y626110I-2032J0D01*
G01*
X1114425Y564562D02*
G03*
X1114425Y564562I-2032J0D01*
G01*
X1118870Y549402D02*
G03*
X1118870Y549402I-2032J0D01*
G01*
X1138936Y491744D02*
G03*
X1138936Y491744I-2032J0D01*
G01*
X1089914Y515620D02*
G03*
X1089914Y515620I-2032J0D01*
G01*
X1084326Y467868D02*
G03*
X1084326Y467868I-2032J0D01*
G01*
X1120394Y433578D02*
G03*
X1120394Y433578I-2032J0D01*
G01*
X990346Y609346D02*
G03*
X990346Y609346I-2032J0D01*
G01*
X980440Y623570D02*
G03*
X980440Y623570I-2032J0D01*
G01*
X1114830Y641707D02*
G03*
X1114830Y641707I-2032J0D01*
G01*
X1012698Y577342D02*
G03*
X1012698Y577342I-2032J0D01*
G01*
X1130700Y648970D02*
G03*
X1130700Y648970I-2032J0D01*
G01*
X1173988Y618236D02*
G03*
X1173988Y618236I-2032J0D01*
G01*
X1135634Y568960D02*
G03*
X1135634Y568960I-2032J0D01*
G01*
X1033574Y461090D02*
G03*
X1033574Y461090I-2032J0D01*
G01*
X1049147D02*
G03*
X1049147Y461090I-2032J0D01*
G01*
X1019810Y468376D02*
G03*
X1019810Y468376I-2032J0D01*
G01*
X983742Y482346D02*
G03*
X983742Y482346I-2032J0D01*
G01*
X972566D02*
G03*
X972566Y482346I-2032J0D01*
G01*
X977900Y476758D02*
G03*
X977900Y476758I-2032J0D01*
G01*
X972566Y470662D02*
G03*
X972566Y470662I-2032J0D01*
G01*
X983742D02*
G03*
X983742Y470662I-2032J0D01*
G01*
X1158494Y633730D02*
G03*
X1158494Y633730I-2032J0D01*
G01*
X1096686Y640397D02*
G03*
X1096686Y640397I-2032J0D01*
G01*
X1076844Y644398D02*
G03*
X1076844Y644398I-2032J0D01*
G01*
X1067562Y515620D02*
G03*
X1067562Y515620I-2032J0D01*
G01*
X1082548Y532130D02*
G03*
X1082548Y532130I-2032J0D01*
G01*
X1095756Y580771D02*
G03*
X1095756Y580771I-2032J0D01*
G01*
X1172972Y595520D02*
G03*
X1172972Y595520I-2032J0D01*
G01*
X1074538Y488844D02*
G03*
X1074538Y488844I-2032J0D01*
G01*
X936244Y626618D02*
G03*
X936244Y626618I-2032J0D01*
G01*
X1004062Y614172D02*
G03*
X1004062Y614172I-2032J0D01*
G01*
X1001284Y622628D02*
G03*
X1001284Y622628I-2032J0D01*
G01*
X1059434Y659130D02*
G03*
X1059434Y659130I-2032J0D01*
G01*
X1068578D02*
G03*
X1068578Y659130I-2032J0D01*
G01*
X1042670D02*
G03*
X1042670Y659130I-2032J0D01*
G01*
X1051052D02*
G03*
X1051052Y659130I-2032J0D01*
G01*
X1135634Y601727D02*
G03*
X1135634Y601727I-2032J0D01*
G01*
Y622173D02*
G03*
X1135634Y622173I-2032J0D01*
G01*
X956818Y498094D02*
G03*
X956818Y498094I-2032J0D01*
G01*
X957072Y536702D02*
G03*
X957072Y536702I-2032J0D01*
G01*
X994410Y496570D02*
G03*
X994410Y496570I-2032J0D01*
G01*
X995172Y515112D02*
G03*
X995172Y515112I-2032J0D01*
G01*
X994526Y534785D02*
G03*
X994526Y534785I-2032J0D01*
G01*
X1141222Y539750D02*
G03*
X1141222Y539750I-2032J0D01*
G01*
M02*
