G04*
G04 #@! TF.GenerationSoftware,Altium Limited,Altium Designer,20.0.13 (296)*
G04*
G04 Layer_Color=65535*
%FSLAX44Y44*%
%MOMM*%
G71*
G01*
G75*
%ADD10C,0.2500*%
%ADD11C,0.2000*%
%ADD12C,0.2540*%
%ADD13C,0.3000*%
%ADD14C,0.2032*%
%ADD15C,0.1600*%
%ADD16C,0.1000*%
%ADD17C,0.1778*%
%ADD18C,0.3048*%
%ADD19C,0.2200*%
%ADD20C,0.3400*%
G36*
X965650Y494350D02*
X959990Y494350D01*
X962820Y497180D01*
X965650Y494350D01*
D01*
D02*
G37*
G36*
X1026250Y514760D02*
X1026250Y509100D01*
X1023420Y511930D01*
X1026250Y514760D01*
D01*
D02*
G37*
G36*
X1102056Y524116D02*
X1102056Y529776D01*
X1104886Y526946D01*
X1102056Y524116D01*
D01*
D02*
G37*
G36*
X1148432Y494316D02*
X1142772Y494316D01*
X1145602Y497146D01*
X1148432Y494316D01*
D01*
D02*
G37*
G36*
X1048536Y398846D02*
X1051754D01*
Y397764D01*
X1047242D01*
Y404116D01*
X1048536D01*
Y398846D01*
D02*
G37*
G36*
X1082327Y397764D02*
X1081032D01*
Y400565D01*
X1078508D01*
Y397764D01*
X1077214D01*
Y404162D01*
X1078508D01*
Y401647D01*
X1081032D01*
Y404162D01*
X1082327D01*
Y397764D01*
D02*
G37*
D10*
X1136112Y445436D02*
G03*
X1136112Y445436I-1250J0D01*
G01*
X1082010Y463550D02*
G03*
X1082010Y463550I-1250J0D01*
G01*
D11*
X1137666Y418841D02*
G03*
X1150874Y418841I6604J2291D01*
G01*
Y443743D02*
G03*
X1137666Y443743I-6604J-2291D01*
G01*
X1130300Y482097D02*
G03*
X1117092Y482097I-6604J-2291D01*
G01*
Y457195D02*
G03*
X1130300Y457195I6604J2291D01*
G01*
X1076711Y470916D02*
G03*
X1076711Y484124I-2291J6604D01*
G01*
X1051809D02*
G03*
X1051809Y470916I2291J-6604D01*
G01*
X1144016Y469298D02*
G03*
X1138936Y469298I-2540J0D01*
G01*
X1149096D02*
G03*
X1144016Y469298I-2540J0D01*
G01*
X1129837Y492522D02*
G03*
X1129837Y505730I-2291J6604D01*
G01*
X1104936D02*
G03*
X1104936Y492522I2291J-6604D01*
G01*
Y546370D02*
G03*
X1104936Y533162I2291J-6604D01*
G01*
X1129837D02*
G03*
X1129837Y546370I-2291J6604D01*
G01*
X1094491Y540766D02*
G03*
X1094491Y553974I-2291J6604D01*
G01*
X1069589D02*
G03*
X1069589Y540766I2291J-6604D01*
G01*
X1094491Y554736D02*
G03*
X1094491Y567944I-2291J6604D01*
G01*
X1069589D02*
G03*
X1069589Y554736I2291J-6604D01*
G01*
X1100069Y578104D02*
G03*
X1100069Y564896I2291J-6604D01*
G01*
X1124971D02*
G03*
X1124971Y578104I-2291J6604D01*
G01*
X1188471Y627126D02*
G03*
X1188471Y640334I-2291J6604D01*
G01*
X1163569D02*
G03*
X1163569Y627126I2291J-6604D01*
G01*
X1124971D02*
G03*
X1124971Y640334I-2291J6604D01*
G01*
X1100069D02*
G03*
X1100069Y627126I2291J-6604D01*
G01*
X1082289Y655558D02*
G03*
X1082289Y642350I2291J-6604D01*
G01*
X1107191D02*
G03*
X1107191Y655558I-2291J6604D01*
G01*
X1023371Y492506D02*
G03*
X1023371Y505714I-2291J6604D01*
G01*
X998469D02*
G03*
X998469Y492506I2291J-6604D01*
G01*
Y546370D02*
G03*
X998469Y533162I2291J-6604D01*
G01*
X1023371D02*
G03*
X1023371Y546370I-2291J6604D01*
G01*
X1023117Y562356D02*
G03*
X1023117Y575564I-2291J6604D01*
G01*
X998215D02*
G03*
X998215Y562356I2291J-6604D01*
G01*
X964951Y627126D02*
G03*
X964951Y640334I-2291J6604D01*
G01*
X940049D02*
G03*
X940049Y627126I2291J-6604D01*
G01*
X976879Y640334D02*
G03*
X976879Y627126I2291J-6604D01*
G01*
X1001781D02*
G03*
X1001781Y640334I-2291J6604D01*
G01*
X950285Y459107D02*
X959861Y451072D01*
X939036Y445701D02*
X950285Y459107D01*
X1015641Y381422D02*
X1026890Y394828D01*
X1017314Y402863D02*
X1026890Y394828D01*
X927290Y417701D02*
X990106Y364992D01*
X1089260Y377989D02*
Y395489D01*
X1076760D02*
X1089260D01*
X1039260D02*
X1051760D01*
X1039260Y377989D02*
Y395489D01*
X1047260Y348989D02*
X1081260D01*
X1102862Y423846D02*
X1133862D01*
X1102862Y433926D02*
X1133862D01*
X1102862Y423846D02*
Y433926D01*
X1133862Y423846D02*
Y433926D01*
X1137666Y418841D02*
Y425958D01*
X1150874Y418841D02*
Y425958D01*
X1137666Y436626D02*
Y443743D01*
X1150874Y436626D02*
Y443743D01*
X1130300Y474980D02*
Y482097D01*
X1117092Y474980D02*
Y482097D01*
X1130300Y457195D02*
Y464312D01*
X1117092Y457195D02*
Y464312D01*
X1048760Y441960D02*
X1079760D01*
X1048760Y452040D02*
X1079760D01*
X1048760Y441960D02*
Y452040D01*
X1079760Y441960D02*
Y452040D01*
X1069594Y470916D02*
X1076711D01*
X1069594Y484124D02*
X1076711D01*
X1051809Y470916D02*
X1058926D01*
X1051809Y484124D02*
X1058926D01*
X1149096Y469298D02*
X1152016D01*
X1136016D02*
X1138936D01*
X1155016Y465298D02*
Y473298D01*
X1133016Y465298D02*
Y473298D01*
X1122720Y492522D02*
X1129837D01*
X1122720Y505730D02*
X1129837D01*
X1104936Y492522D02*
X1112052D01*
X1104936Y505730D02*
X1112052D01*
X1107386Y508446D02*
X1127386D01*
X1107386Y530446D02*
X1127386D01*
X1104936Y546370D02*
X1112052D01*
X1104936Y533162D02*
X1112052D01*
X1122720Y546370D02*
X1129837D01*
X1122720Y533162D02*
X1129837D01*
X1087374Y540766D02*
X1094491D01*
X1087374Y553974D02*
X1094491D01*
X1069589Y540766D02*
X1076706D01*
X1069589Y553974D02*
X1076706D01*
X1087374Y554736D02*
X1094491D01*
X1087374Y567944D02*
X1094491D01*
X1069589Y554736D02*
X1076706D01*
X1069589Y567944D02*
X1076706D01*
X1100069Y578104D02*
X1107186D01*
X1100069Y564896D02*
X1107186D01*
X1117854Y578104D02*
X1124971D01*
X1117854Y564896D02*
X1124971D01*
X1181354Y627126D02*
X1188471D01*
X1181354Y640334D02*
X1188471D01*
X1163569Y627126D02*
X1170686D01*
X1163569Y640334D02*
X1170686D01*
X1117854Y627126D02*
X1124971D01*
X1117854Y640334D02*
X1124971D01*
X1100069Y627126D02*
X1107186D01*
X1100069Y640334D02*
X1107186D01*
X1082289Y655558D02*
X1089406D01*
X1082289Y642350D02*
X1089406D01*
X1100074Y655558D02*
X1107191D01*
X1100074Y642350D02*
X1107191D01*
X1016254Y492506D02*
X1023371D01*
X1016254Y505714D02*
X1023371D01*
X998469Y492506D02*
X1005586D01*
X998469Y505714D02*
X1005586D01*
X1000920Y530430D02*
X1020920D01*
X1000920Y508430D02*
X1020920D01*
X998469Y546370D02*
X1005586D01*
X998469Y533162D02*
X1005586D01*
X1016254Y546370D02*
X1023371D01*
X1016254Y533162D02*
X1023371D01*
X1016000Y562356D02*
X1023117D01*
X1016000Y575564D02*
X1023117D01*
X998215Y562356D02*
X1005332D01*
X998215Y575564D02*
X1005332D01*
X957834Y627126D02*
X964951D01*
X957834Y640334D02*
X964951D01*
X940049Y627126D02*
X947166D01*
X940049Y640334D02*
X947166D01*
X976879D02*
X983996D01*
X976879Y627126D02*
X983996D01*
X994664Y640334D02*
X1001781D01*
X994664Y627126D02*
X1001781D01*
D12*
X1072286Y515366D02*
G03*
X1072286Y515366I-254J0D01*
G01*
X1067562Y501650D02*
G03*
X1067562Y501650I-762J0D01*
G01*
X1161186Y601726D02*
G03*
X1161186Y601726I-254J0D01*
G01*
X1156462Y588010D02*
G03*
X1156462Y588010I-762J0D01*
G01*
X1136650Y585470D02*
G03*
X1136650Y585470I-1270J0D01*
G01*
X937768Y586232D02*
G03*
X937768Y586232I-762J0D01*
G01*
X942746Y600456D02*
G03*
X942746Y600456I-254J0D01*
G01*
X1011941Y639681D02*
Y646679D01*
X1018939D01*
X1075939Y639681D02*
Y646679D01*
X1068941D02*
X1075939D01*
X1011941Y582681D02*
Y589681D01*
Y582681D02*
X1018939D01*
X1068941D02*
X1075939D01*
Y589679D01*
D13*
X1079932Y584429D02*
G03*
X1079932Y584454I1500J13D01*
G01*
X1173166Y405130D02*
X1186495D01*
X1179830Y411795D02*
Y398465D01*
D14*
X1047115Y423164D02*
X1081405D01*
X1047115Y409956D02*
Y423164D01*
Y409956D02*
X1081405D01*
Y423164D01*
X1085088Y409956D02*
Y444246D01*
Y409956D02*
X1098296D01*
Y444246D01*
X1085088D02*
X1098296D01*
X1101344Y452247D02*
Y486537D01*
Y452247D02*
X1114552D01*
Y486537D01*
X1101344D02*
X1114552D01*
X1085088Y447421D02*
Y481711D01*
Y447421D02*
X1098296D01*
Y481711D01*
X1085088D02*
X1098296D01*
X1225804Y544195D02*
Y578485D01*
X1212596D02*
X1225804D01*
X1212596Y544195D02*
Y578485D01*
Y544195D02*
X1225804D01*
X1175385Y565277D02*
X1209675D01*
Y578485D01*
X1175385D02*
X1209675D01*
X1175385Y565277D02*
Y578485D01*
X1138555D02*
X1172845D01*
X1138555Y565277D02*
Y578485D01*
Y565277D02*
X1172845D01*
Y578485D01*
X1204214Y587375D02*
Y621665D01*
X1191006D02*
X1204214D01*
X1191006Y587375D02*
Y621665D01*
Y587375D02*
X1204214D01*
X1132205Y642366D02*
X1166495D01*
Y655574D01*
X1132205D02*
X1166495D01*
X1132205Y642366D02*
Y655574D01*
X955675Y564896D02*
X989965D01*
Y578104D01*
X955675D02*
X989965D01*
X955675Y564896D02*
Y578104D01*
X917575D02*
X951865D01*
X917575Y564896D02*
Y578104D01*
Y564896D02*
X951865D01*
Y578104D01*
X913384Y544195D02*
Y578485D01*
X900176D02*
X913384D01*
X900176Y544195D02*
Y578485D01*
Y544195D02*
X913384D01*
X984504Y586105D02*
Y620395D01*
X971296D02*
X984504D01*
X971296Y586105D02*
Y620395D01*
Y586105D02*
X984504D01*
X1130807Y658303D02*
X1144269D01*
X1144523D01*
Y672019D01*
Y672527D01*
X1130807D02*
X1144523D01*
X1108455Y658303D02*
X1122171D01*
X1108455Y658811D02*
Y672527D01*
X1108709D02*
X1122171D01*
X1105915Y658303D02*
X1108455D01*
X1105915D02*
Y672527D01*
X1108455D01*
X956945Y655574D02*
X991235D01*
X956945Y642366D02*
Y655574D01*
Y642366D02*
X991235D01*
Y655574D01*
X979171Y672527D02*
X992633D01*
X978917D02*
X979171D01*
X978917Y658811D02*
Y672527D01*
Y658303D02*
Y658811D01*
Y658303D02*
X992633D01*
X1001269Y672527D02*
X1014985D01*
Y658303D02*
Y672019D01*
X1001269Y658303D02*
X1014731D01*
X1014985Y672527D02*
X1017525D01*
Y658303D02*
Y672527D01*
X1014985Y658303D02*
X1017525D01*
D15*
X1133016Y453548D02*
X1133016Y459298D01*
X1133016Y453548D02*
X1155016D01*
X1155016Y459298D02*
X1155016Y453548D01*
X1133016Y479298D02*
Y485048D01*
X1155016D01*
Y479298D02*
Y485048D01*
D16*
X1170602Y499316D02*
X1170602Y529316D01*
X1140602D02*
X1140602Y499316D01*
X1104900Y602615D02*
X1111250D01*
X1115060D02*
X1121410D01*
X1104900D02*
Y605790D01*
X1121410Y598170D02*
Y602615D01*
X1111250Y599440D02*
Y605790D01*
X1112520Y599440D02*
X1113790D01*
X1112520D02*
Y605790D01*
X1113790D01*
Y599440D02*
Y605790D01*
X1115060Y599440D02*
Y605790D01*
X987820Y499350D02*
X987820Y529350D01*
X957820D02*
X957820Y499350D01*
X1134334Y594319D02*
X1137666Y589321D01*
Y594319D02*
X1134334Y589321D01*
X1139332D02*
X1140998D01*
X1140165D01*
Y594319D01*
X1139332Y593486D01*
X1056793Y524977D02*
Y520812D01*
X1057626Y519979D01*
X1059292D01*
X1060125Y520812D01*
Y524977D01*
X1061791Y520812D02*
X1062624Y519979D01*
X1064290D01*
X1065123Y520812D01*
Y524144D01*
X1064290Y524977D01*
X1062624D01*
X1061791Y524144D01*
Y523311D01*
X1062624Y522478D01*
X1065123D01*
X1106577Y407121D02*
Y402956D01*
X1107410Y402123D01*
X1109076D01*
X1109909Y402956D01*
Y407121D01*
X1111575Y406288D02*
X1112408Y407121D01*
X1114074D01*
X1114907Y406288D01*
Y405455D01*
X1114074Y404622D01*
X1114907Y403789D01*
Y402956D01*
X1114074Y402123D01*
X1112408D01*
X1111575Y402956D01*
Y403789D01*
X1112408Y404622D01*
X1111575Y405455D01*
Y406288D01*
X1112408Y404622D02*
X1114074D01*
X930951Y589179D02*
X935116D01*
X935949Y590012D01*
Y591678D01*
X935116Y592511D01*
X930951D01*
Y594177D02*
Y597509D01*
X931784D01*
X935116Y594177D01*
X935949D01*
X1024281Y529803D02*
Y525638D01*
X1025114Y524805D01*
X1026780D01*
X1027613Y525638D01*
Y529803D01*
X1032611D02*
X1030945Y528970D01*
X1029279Y527304D01*
Y525638D01*
X1030112Y524805D01*
X1031778D01*
X1032611Y525638D01*
Y526471D01*
X1031778Y527304D01*
X1029279D01*
X1145947Y611337D02*
Y607172D01*
X1146780Y606339D01*
X1148446D01*
X1149279Y607172D01*
Y611337D01*
X1154277D02*
X1150945D01*
Y608838D01*
X1152611Y609671D01*
X1153444D01*
X1154277Y608838D01*
Y607172D01*
X1153444Y606339D01*
X1151778D01*
X1150945Y607172D01*
X1038505Y448523D02*
Y444358D01*
X1039338Y443525D01*
X1041004D01*
X1041837Y444358D01*
Y448523D01*
X1046002Y443525D02*
Y448523D01*
X1043503Y446024D01*
X1046835D01*
X1099353Y514249D02*
X1103518D01*
X1104351Y515082D01*
Y516748D01*
X1103518Y517581D01*
X1099353D01*
X1104351Y522579D02*
Y519247D01*
X1101019Y522579D01*
X1100186D01*
X1099353Y521746D01*
Y520080D01*
X1100186Y519247D01*
X1042670Y617138D02*
Y612973D01*
X1043503Y612140D01*
X1045169D01*
X1046002Y612973D01*
Y617138D01*
X1047668Y612140D02*
X1049334D01*
X1048501D01*
Y617138D01*
X1047668Y616305D01*
X1080364Y484419D02*
Y489417D01*
X1082863D01*
X1083696Y488584D01*
Y486918D01*
X1082863Y486085D01*
X1080364D01*
X1082030D02*
X1083696Y484419D01*
X1085362D02*
X1087029D01*
X1086196D01*
Y489417D01*
X1085362Y488584D01*
X1092860Y489417D02*
X1091194Y488584D01*
X1089528Y486918D01*
Y485252D01*
X1090361Y484419D01*
X1092027D01*
X1092860Y485252D01*
Y486085D01*
X1092027Y486918D01*
X1089528D01*
X904596Y580431D02*
Y585429D01*
X907095D01*
X907928Y584596D01*
Y582930D01*
X907095Y582097D01*
X904596D01*
X906262D02*
X907928Y580431D01*
X909594D02*
X911261D01*
X910427D01*
Y585429D01*
X909594Y584596D01*
X917092Y585429D02*
X913760D01*
Y582930D01*
X915426Y583763D01*
X916259D01*
X917092Y582930D01*
Y581264D01*
X916259Y580431D01*
X914593D01*
X913760Y581264D01*
X1085190Y402885D02*
Y407883D01*
X1087689D01*
X1088522Y407050D01*
Y405384D01*
X1087689Y404551D01*
X1085190D01*
X1086856D02*
X1088522Y402885D01*
X1090188D02*
X1091854D01*
X1091021D01*
Y407883D01*
X1090188Y407050D01*
X1096853Y402885D02*
Y407883D01*
X1094354Y405384D01*
X1097686D01*
X919328Y580685D02*
Y585683D01*
X921827D01*
X922660Y584850D01*
Y583184D01*
X921827Y582351D01*
X919328D01*
X920994D02*
X922660Y580685D01*
X924326D02*
X925993D01*
X925160D01*
Y585683D01*
X924326Y584850D01*
X928492D02*
X929325Y585683D01*
X930991D01*
X931824Y584850D01*
Y584017D01*
X930991Y583184D01*
X930158D01*
X930991D01*
X931824Y582351D01*
Y581518D01*
X930991Y580685D01*
X929325D01*
X928492Y581518D01*
X1092810Y488483D02*
Y493481D01*
X1095309D01*
X1096142Y492648D01*
Y490982D01*
X1095309Y490149D01*
X1092810D01*
X1094476D02*
X1096142Y488483D01*
X1097808D02*
X1099474D01*
X1098642D01*
Y493481D01*
X1097808Y492648D01*
X1105306Y488483D02*
X1101974D01*
X1105306Y491815D01*
Y492648D01*
X1104473Y493481D01*
X1102807D01*
X1101974Y492648D01*
X979343Y579923D02*
Y584921D01*
X981842D01*
X982675Y584088D01*
Y582422D01*
X981842Y581589D01*
X979343D01*
X981009D02*
X982675Y579923D01*
X984342D02*
X986008D01*
X985174D01*
Y584921D01*
X984342Y584088D01*
X988507Y579923D02*
X990173D01*
X989340D01*
Y584921D01*
X988507Y584088D01*
X986384Y614213D02*
Y619211D01*
X988883D01*
X989716Y618378D01*
Y616712D01*
X988883Y615879D01*
X986384D01*
X988050D02*
X989716Y614213D01*
X991382D02*
X993048D01*
X992215D01*
Y619211D01*
X991382Y618378D01*
X995548D02*
X996381Y619211D01*
X998047D01*
X998880Y618378D01*
Y615046D01*
X998047Y614213D01*
X996381D01*
X995548Y615046D01*
Y618378D01*
X985165Y556301D02*
Y561299D01*
X987664D01*
X988497Y560466D01*
Y558800D01*
X987664Y557967D01*
X985165D01*
X986831D02*
X988497Y556301D01*
X990163Y557134D02*
X990996Y556301D01*
X992662D01*
X993495Y557134D01*
Y560466D01*
X992662Y561299D01*
X990996D01*
X990163Y560466D01*
Y559633D01*
X990996Y558800D01*
X993495D01*
X1212749Y580431D02*
Y585429D01*
X1215248D01*
X1216081Y584596D01*
Y582930D01*
X1215248Y582097D01*
X1212749D01*
X1214415D02*
X1216081Y580431D01*
X1217747Y584596D02*
X1218580Y585429D01*
X1220246D01*
X1221079Y584596D01*
Y583763D01*
X1220246Y582930D01*
X1221079Y582097D01*
Y581264D01*
X1220246Y580431D01*
X1218580D01*
X1217747Y581264D01*
Y582097D01*
X1218580Y582930D01*
X1217747Y583763D01*
Y584596D01*
X1218580Y582930D02*
X1220246D01*
X1186333Y580431D02*
Y585429D01*
X1188832D01*
X1189665Y584596D01*
Y582930D01*
X1188832Y582097D01*
X1186333D01*
X1187999D02*
X1189665Y580431D01*
X1191331Y585429D02*
X1194663D01*
Y584596D01*
X1191331Y581264D01*
Y580431D01*
X1036981Y412537D02*
Y417535D01*
X1039480D01*
X1040313Y416702D01*
Y415036D01*
X1039480Y414203D01*
X1036981D01*
X1038647D02*
X1040313Y412537D01*
X1045311Y417535D02*
X1043645Y416702D01*
X1041979Y415036D01*
Y413370D01*
X1042812Y412537D01*
X1044478D01*
X1045311Y413370D01*
Y414203D01*
X1044478Y415036D01*
X1041979D01*
X1138835Y580431D02*
Y585429D01*
X1141334D01*
X1142167Y584596D01*
Y582930D01*
X1141334Y582097D01*
X1138835D01*
X1140501D02*
X1142167Y580431D01*
X1147165Y585429D02*
X1143833D01*
Y582930D01*
X1145499Y583763D01*
X1146332D01*
X1147165Y582930D01*
Y581264D01*
X1146332Y580431D01*
X1144666D01*
X1143833Y581264D01*
X1206399Y587289D02*
Y592287D01*
X1208898D01*
X1209731Y591454D01*
Y589788D01*
X1208898Y588955D01*
X1206399D01*
X1208065D02*
X1209731Y587289D01*
X1213896D02*
Y592287D01*
X1211397Y589788D01*
X1214729D01*
X1134517Y557063D02*
Y562061D01*
X1137016D01*
X1137849Y561228D01*
Y559562D01*
X1137016Y558729D01*
X1134517D01*
X1136183D02*
X1137849Y557063D01*
X1139515Y561228D02*
X1140348Y562061D01*
X1142014D01*
X1142847Y561228D01*
Y560395D01*
X1142014Y559562D01*
X1141181D01*
X1142014D01*
X1142847Y558729D01*
Y557896D01*
X1142014Y557063D01*
X1140348D01*
X1139515Y557896D01*
X994055Y651043D02*
Y656041D01*
X996554D01*
X997387Y655208D01*
Y653542D01*
X996554Y652709D01*
X994055D01*
X995721D02*
X997387Y651043D01*
X1002385D02*
X999053D01*
X1002385Y654375D01*
Y655208D01*
X1001552Y656041D01*
X999886D01*
X999053Y655208D01*
X1148558Y658155D02*
Y663153D01*
X1151057D01*
X1151890Y662320D01*
Y660654D01*
X1151057Y659821D01*
X1148558D01*
X1150224D02*
X1151890Y658155D01*
X1153556D02*
X1155222D01*
X1154389D01*
Y663153D01*
X1153556Y662320D01*
X973511Y491856D02*
Y495188D01*
X972678Y496021D01*
X971012D01*
X970179Y495188D01*
Y491856D01*
X971012Y491023D01*
X972678D01*
X971845Y492689D02*
X973511Y491023D01*
X972678D02*
X973511Y491856D01*
X978509Y491023D02*
X975177D01*
X978509Y494355D01*
Y495188D01*
X977676Y496021D01*
X976010D01*
X975177Y495188D01*
X1152652Y492618D02*
Y495950D01*
X1151819Y496783D01*
X1150153D01*
X1149320Y495950D01*
Y492618D01*
X1150153Y491785D01*
X1151819D01*
X1150986Y493451D02*
X1152652Y491785D01*
X1151819D02*
X1152652Y492618D01*
X1154318Y491785D02*
X1155984D01*
X1155151D01*
Y496783D01*
X1154318Y495950D01*
X921004Y515620D02*
Y520618D01*
X923503D01*
X924336Y519785D01*
Y518119D01*
X923503Y517286D01*
X921004D01*
X928502Y515620D02*
Y520618D01*
X926002Y518119D01*
X929335D01*
X1199134Y515620D02*
Y520618D01*
X1201633D01*
X1202466Y519785D01*
Y518119D01*
X1201633Y517286D01*
X1199134D01*
X1204132Y519785D02*
X1204965Y520618D01*
X1206631D01*
X1207465Y519785D01*
Y518952D01*
X1206631Y518119D01*
X1205798D01*
X1206631D01*
X1207465Y517286D01*
Y516453D01*
X1206631Y515620D01*
X1204965D01*
X1204132Y516453D01*
X1002477Y674157D02*
Y679155D01*
X1004977D01*
X1005810Y678322D01*
Y676656D01*
X1004977Y675823D01*
X1002477D01*
X1007476Y679155D02*
Y674157D01*
X1009975D01*
X1010808Y674990D01*
Y675823D01*
X1009975Y676656D01*
X1007476D01*
X1009975D01*
X1010808Y677489D01*
Y678322D01*
X1009975Y679155D01*
X1007476D01*
X1015807Y674157D02*
X1012474D01*
X1015807Y677489D01*
Y678322D01*
X1014973Y679155D01*
X1013307D01*
X1012474Y678322D01*
X1105927Y674665D02*
Y679663D01*
X1108426D01*
X1109259Y678830D01*
Y677164D01*
X1108426Y676331D01*
X1105927D01*
X1110925Y679663D02*
Y674665D01*
X1113424D01*
X1114257Y675498D01*
Y676331D01*
X1113424Y677164D01*
X1110925D01*
X1113424D01*
X1114257Y677997D01*
Y678830D01*
X1113424Y679663D01*
X1110925D01*
X1115923Y674665D02*
X1117589D01*
X1116756D01*
Y679663D01*
X1115923Y678830D01*
X1142208Y491957D02*
Y486959D01*
X1145540D01*
X1147206D02*
X1148872D01*
X1148039D01*
Y491957D01*
X1147206Y491124D01*
X1031972Y402986D02*
X1031139Y403819D01*
X1029473D01*
X1028640Y402986D01*
Y399654D01*
X1029473Y398821D01*
X1031139D01*
X1031972Y399654D01*
X1033638Y398821D02*
Y402153D01*
X1035304Y403819D01*
X1036970Y402153D01*
Y398821D01*
Y401320D01*
X1033638D01*
X1038636Y398821D02*
Y403819D01*
X1041969Y398821D01*
Y403819D01*
X934578Y458765D02*
Y463763D01*
X936244Y462097D01*
X937910Y463763D01*
Y458765D01*
X927740Y620918D02*
X926907Y621751D01*
X925241D01*
X924408Y620918D01*
Y617586D01*
X925241Y616753D01*
X926907D01*
X927740Y617586D01*
X929406Y616753D02*
X931072D01*
X930239D01*
Y621751D01*
X929406Y620918D01*
X933572Y621751D02*
X936904D01*
Y620918D01*
X933572Y617586D01*
Y616753D01*
X1115700Y491378D02*
X1114867Y492211D01*
X1113201D01*
X1112368Y491378D01*
Y488046D01*
X1113201Y487213D01*
X1114867D01*
X1115700Y488046D01*
X1117366Y487213D02*
X1119033D01*
X1118199D01*
Y492211D01*
X1117366Y491378D01*
X1124864Y492211D02*
X1123198Y491378D01*
X1121532Y489712D01*
Y488046D01*
X1122365Y487213D01*
X1124031D01*
X1124864Y488046D01*
Y488879D01*
X1124031Y489712D01*
X1121532D01*
X1103762Y552846D02*
X1102929Y553679D01*
X1101263D01*
X1100430Y552846D01*
Y549514D01*
X1101263Y548681D01*
X1102929D01*
X1103762Y549514D01*
X1105428Y548681D02*
X1107094D01*
X1106262D01*
Y553679D01*
X1105428Y552846D01*
X1112926Y553679D02*
X1109594D01*
Y551180D01*
X1111260Y552013D01*
X1112093D01*
X1112926Y551180D01*
Y549514D01*
X1112093Y548681D01*
X1110427D01*
X1109594Y549514D01*
X1156340Y442356D02*
X1155507Y443189D01*
X1153841D01*
X1153008Y442356D01*
Y439024D01*
X1153841Y438191D01*
X1155507D01*
X1156340Y439024D01*
X1158006Y438191D02*
X1159672D01*
X1158839D01*
Y443189D01*
X1158006Y442356D01*
X1164671Y438191D02*
Y443189D01*
X1162172Y440690D01*
X1165504D01*
X1033658Y541416D02*
X1032825Y542249D01*
X1031159D01*
X1030326Y541416D01*
Y538084D01*
X1031159Y537251D01*
X1032825D01*
X1033658Y538084D01*
X1035324Y537251D02*
X1036991D01*
X1036158D01*
Y542249D01*
X1035324Y541416D01*
X1039490D02*
X1040323Y542249D01*
X1041989D01*
X1042822Y541416D01*
Y540583D01*
X1041989Y539750D01*
X1041156D01*
X1041989D01*
X1042822Y538917D01*
Y538084D01*
X1041989Y537251D01*
X1040323D01*
X1039490Y538084D01*
X1171834Y646826D02*
X1171001Y647659D01*
X1169335D01*
X1168502Y646826D01*
Y643494D01*
X1169335Y642661D01*
X1171001D01*
X1171834Y643494D01*
X1173500Y642661D02*
X1175166D01*
X1174333D01*
Y647659D01*
X1173500Y646826D01*
X1180998Y642661D02*
X1177666D01*
X1180998Y645993D01*
Y646826D01*
X1180165Y647659D01*
X1178499D01*
X1177666Y646826D01*
X1054811Y490616D02*
X1053978Y491449D01*
X1052312D01*
X1051479Y490616D01*
Y487284D01*
X1052312Y486451D01*
X1053978D01*
X1054811Y487284D01*
X1056478Y486451D02*
X1058144D01*
X1057310D01*
Y491449D01*
X1056478Y490616D01*
X1060643Y486451D02*
X1062309D01*
X1061476D01*
Y491449D01*
X1060643Y490616D01*
X1001908Y489346D02*
X1001075Y490179D01*
X999409D01*
X998576Y489346D01*
Y486014D01*
X999409Y485181D01*
X1001075D01*
X1001908Y486014D01*
X1003574Y485181D02*
X1005240D01*
X1004408D01*
Y490179D01*
X1003574Y489346D01*
X1007740D02*
X1008573Y490179D01*
X1010239D01*
X1011072Y489346D01*
Y486014D01*
X1010239Y485181D01*
X1008573D01*
X1007740Y486014D01*
Y489346D01*
X1099749Y511444D02*
X1098916Y512277D01*
X1097250D01*
X1096417Y511444D01*
Y508112D01*
X1097250Y507279D01*
X1098916D01*
X1099749Y508112D01*
X1101415Y511444D02*
X1102248Y512277D01*
X1103914D01*
X1104747Y511444D01*
Y510611D01*
X1103914Y509778D01*
X1104747Y508945D01*
Y508112D01*
X1103914Y507279D01*
X1102248D01*
X1101415Y508112D01*
Y508945D01*
X1102248Y509778D01*
X1101415Y510611D01*
Y511444D01*
X1102248Y509778D02*
X1103914D01*
X1126419Y552592D02*
X1125586Y553425D01*
X1123920D01*
X1123087Y552592D01*
Y549260D01*
X1123920Y548427D01*
X1125586D01*
X1126419Y549260D01*
X1128085Y553425D02*
X1131417D01*
Y552592D01*
X1128085Y549260D01*
Y548427D01*
X1103813Y560466D02*
X1102980Y561299D01*
X1101314D01*
X1100481Y560466D01*
Y557134D01*
X1101314Y556301D01*
X1102980D01*
X1103813Y557134D01*
X1108811Y561299D02*
X1107145Y560466D01*
X1105479Y558800D01*
Y557134D01*
X1106312Y556301D01*
X1107978D01*
X1108811Y557134D01*
Y557967D01*
X1107978Y558800D01*
X1105479D01*
X997641Y647080D02*
X996808Y647913D01*
X995142D01*
X994309Y647080D01*
Y643748D01*
X995142Y642915D01*
X996808D01*
X997641Y643748D01*
X1002639Y647913D02*
X999307D01*
Y645414D01*
X1000973Y646247D01*
X1001806D01*
X1002639Y645414D01*
Y643748D01*
X1001806Y642915D01*
X1000140D01*
X999307Y643748D01*
X1001705Y582056D02*
X1000872Y582889D01*
X999206D01*
X998373Y582056D01*
Y578724D01*
X999206Y577891D01*
X1000872D01*
X1001705Y578724D01*
X1005870Y577891D02*
Y582889D01*
X1003371Y580390D01*
X1006703D01*
X1085525Y662066D02*
X1084692Y662899D01*
X1083026D01*
X1082193Y662066D01*
Y658734D01*
X1083026Y657901D01*
X1084692D01*
X1085525Y658734D01*
X1087191Y662066D02*
X1088024Y662899D01*
X1089690D01*
X1090523Y662066D01*
Y661233D01*
X1089690Y660400D01*
X1088857D01*
X1089690D01*
X1090523Y659567D01*
Y658734D01*
X1089690Y657901D01*
X1088024D01*
X1087191Y658734D01*
X1120831Y646572D02*
X1119998Y647405D01*
X1118332D01*
X1117499Y646572D01*
Y643240D01*
X1118332Y642407D01*
X1119998D01*
X1120831Y643240D01*
X1125829Y642407D02*
X1122497D01*
X1125829Y645739D01*
Y646572D01*
X1124996Y647405D01*
X1123330D01*
X1122497Y646572D01*
X1090422Y575960D02*
X1089589Y576793D01*
X1087923D01*
X1087090Y575960D01*
Y572628D01*
X1087923Y571795D01*
X1089589D01*
X1090422Y572628D01*
X1092088Y571795D02*
X1093754D01*
X1092921D01*
Y576793D01*
X1092088Y575960D01*
D17*
X1067040Y511556D02*
X1097040D01*
X1067040Y524764D02*
X1097040D01*
Y511556D02*
Y524764D01*
X1067040Y511556D02*
Y524764D01*
X1155940Y597916D02*
X1185940D01*
X1155940Y611124D02*
X1185940D01*
Y597916D02*
Y611124D01*
X1155940Y597916D02*
Y611124D01*
X937500Y597408D02*
Y608838D01*
X967500Y597408D02*
Y608838D01*
X937500D02*
X967500D01*
X937500Y597408D02*
X967500D01*
D18*
X1145159Y561086D02*
X1201801D01*
X1145159Y538734D02*
X1201801D01*
X1145159D02*
Y561086D01*
X1201801Y538734D02*
Y561086D01*
X925449Y538734D02*
X982091D01*
X925449Y561086D02*
X982091D01*
Y538734D02*
Y561086D01*
X925449Y538734D02*
Y561086D01*
D19*
X1131570Y580390D02*
Y623570D01*
X1094740D02*
X1131570D01*
X1094740Y580390D02*
Y623570D01*
Y580390D02*
X1131570D01*
D20*
X1137097Y374396D02*
X1150426D01*
M02*
