G04*
G04 #@! TF.GenerationSoftware,Altium Limited,Altium Designer,20.0.13 (296)*
G04*
G04 Layer_Color=128*
%FSLAX44Y44*%
%MOMM*%
G71*
G01*
G75*
%ADD86C,0.0508*%
D86*
X1191760Y518160D02*
X1214760D01*
X1203260Y506660D02*
Y529660D01*
X913760Y518160D02*
X936760D01*
X925260Y506660D02*
Y529660D01*
X1206778Y552196D02*
X1209778D01*
X1208278Y550696D02*
Y553696D01*
X1213128Y546100D02*
X1216128D01*
X1214628Y544600D02*
Y547600D01*
X1213128Y558292D02*
X1216128D01*
X1214628Y556792D02*
Y559792D01*
X1201190Y546100D02*
X1204190D01*
X1202690Y544600D02*
Y547600D01*
X1201190Y558292D02*
X1204190D01*
X1202690Y556792D02*
Y559792D01*
X919250Y552704D02*
X922250D01*
X920750Y551204D02*
Y554204D01*
X924838Y545846D02*
X927838D01*
X926338Y544346D02*
Y547346D01*
X924838Y559054D02*
X927838D01*
X926338Y557554D02*
Y560554D01*
X914424Y545846D02*
X917424D01*
X915924Y544346D02*
Y547346D01*
X913916Y559308D02*
X916916D01*
X915416Y557808D02*
Y560808D01*
X1057680Y627126D02*
X1060680D01*
X1059180Y625626D02*
Y628626D01*
X1057388Y614858D02*
X1060388D01*
X1058888Y613358D02*
Y616358D01*
X1059712Y571246D02*
X1062712D01*
X1061212Y569746D02*
Y572746D01*
X1059712Y563118D02*
X1062712D01*
X1061212Y561618D02*
Y564618D01*
X1089176Y611632D02*
X1092176D01*
X1090676Y610132D02*
Y613132D01*
X1085134Y626132D02*
X1088134D01*
X1086634Y624632D02*
Y627632D01*
X1010182Y561848D02*
X1013182D01*
X1011682Y560348D02*
Y563348D01*
X1022120Y549279D02*
X1025120D01*
X1023620Y547779D02*
Y550779D01*
X1006312Y549279D02*
X1009312D01*
X1007812Y547779D02*
Y550779D01*
X1000530Y394208D02*
X1003530D01*
X1002030Y392708D02*
Y395708D01*
X991640Y551180D02*
X994640D01*
X993140Y549680D02*
Y552680D01*
X929156Y602234D02*
X932156D01*
X930656Y600734D02*
Y603734D01*
X949984Y644652D02*
X952984D01*
X951484Y643152D02*
Y646152D01*
X1010944Y647192D02*
X1013944D01*
X1012444Y645692D02*
Y648692D01*
X1193316Y626110D02*
X1196316D01*
X1194816Y624610D02*
Y627610D01*
X1110893Y564562D02*
X1113893D01*
X1112393Y563062D02*
Y566062D01*
X1115338Y549402D02*
X1118338D01*
X1116838Y547902D02*
Y550902D01*
X1135404Y491744D02*
X1138404D01*
X1136904Y490244D02*
Y493244D01*
X1086382Y515620D02*
X1089382D01*
X1087882Y514120D02*
Y517120D01*
X1080794Y467868D02*
X1083794D01*
X1082294Y466368D02*
Y469368D01*
X1116862Y433578D02*
X1119862D01*
X1118362Y432078D02*
Y435078D01*
X1152060Y409780D02*
X1155260D01*
X1153660Y408180D02*
Y411380D01*
X1152060Y387780D02*
X1155260D01*
X1153660Y386180D02*
Y389380D01*
X1162060Y398780D02*
X1165260D01*
X1163660Y397180D02*
Y400380D01*
X1141060Y398780D02*
X1144260D01*
X1142660Y397180D02*
Y400380D01*
X1144060Y406780D02*
X1147260D01*
X1145660Y405180D02*
Y408380D01*
X1159060Y405780D02*
X1162260D01*
X1160660Y404180D02*
Y407380D01*
X1159060Y391780D02*
X1162260D01*
X1160660Y390180D02*
Y393380D01*
X1144060Y390780D02*
X1147260D01*
X1145660Y389180D02*
Y392380D01*
X1151560Y398780D02*
X1154760D01*
X1153160Y397180D02*
Y400380D01*
X986814Y609346D02*
X989814D01*
X988314Y607846D02*
Y610846D01*
X976908Y623570D02*
X979908D01*
X978408Y622070D02*
Y625070D01*
X1111298Y641707D02*
X1114298D01*
X1112798Y640207D02*
Y643207D01*
X1009166Y577342D02*
X1012166D01*
X1010666Y575842D02*
Y578842D01*
X1127168Y648970D02*
X1130168D01*
X1128668Y647470D02*
Y650470D01*
X1170456Y618236D02*
X1173456D01*
X1171956Y616736D02*
Y619736D01*
X1132102Y568960D02*
X1135102D01*
X1133602Y567460D02*
Y570460D01*
X1030042Y461090D02*
X1033042D01*
X1031542Y459590D02*
Y462590D01*
X1045615Y461090D02*
X1048615D01*
X1047115Y459590D02*
Y462590D01*
X1016278Y468376D02*
X1019278D01*
X1017778Y466876D02*
Y469876D01*
X980210Y482346D02*
X983210D01*
X981710Y480846D02*
Y483846D01*
X969034Y482346D02*
X972034D01*
X970534Y480846D02*
Y483846D01*
X974368Y476758D02*
X977368D01*
X975868Y475258D02*
Y478258D01*
X969034Y470662D02*
X972034D01*
X970534Y469162D02*
Y472162D01*
X980210Y470662D02*
X983210D01*
X981710Y469162D02*
Y472162D01*
X1154962Y633730D02*
X1157962D01*
X1156462Y632230D02*
Y635230D01*
X1093155Y640397D02*
X1096154D01*
X1094654Y638897D02*
Y641897D01*
X1073312Y644398D02*
X1076312D01*
X1074812Y642898D02*
Y645898D01*
X1064030Y515620D02*
X1067030D01*
X1065530Y514120D02*
Y517120D01*
X1079016Y532130D02*
X1082016D01*
X1080516Y530630D02*
Y533630D01*
X1092224Y580771D02*
X1095224D01*
X1093724Y579271D02*
Y582271D01*
X1169440Y595520D02*
X1172440D01*
X1170940Y594020D02*
Y597020D01*
X1071006Y488844D02*
X1074006D01*
X1072506Y487344D02*
Y490344D01*
X932712Y626618D02*
X935712D01*
X934212Y625118D02*
Y628118D01*
X1000530Y614172D02*
X1003530D01*
X1002030Y612672D02*
Y615672D01*
X997752Y622628D02*
X1000752D01*
X999252Y621128D02*
Y624128D01*
X1055902Y659130D02*
X1058902D01*
X1057402Y657630D02*
Y660630D01*
X1065046Y659130D02*
X1068046D01*
X1066546Y657630D02*
Y660630D01*
X1039138Y659130D02*
X1042138D01*
X1040638Y657630D02*
Y660630D01*
X1047520Y659130D02*
X1050520D01*
X1049020Y657630D02*
Y660630D01*
X1132102Y601727D02*
X1135102D01*
X1133602Y600227D02*
Y603227D01*
X1132102Y622173D02*
X1135102D01*
X1133602Y620673D02*
Y623673D01*
X1116000Y374650D02*
X1119200D01*
X1117600Y373050D02*
Y376250D01*
X1108500Y366650D02*
X1111700D01*
X1110100Y365050D02*
Y368250D01*
X1123500Y367650D02*
X1126700D01*
X1125100Y366050D02*
Y369250D01*
X1123500Y381650D02*
X1126700D01*
X1125100Y380050D02*
Y383250D01*
X1108500Y382650D02*
X1111700D01*
X1110100Y381050D02*
Y384250D01*
X1105500Y374650D02*
X1108700D01*
X1107100Y373050D02*
Y376250D01*
X1126500Y374650D02*
X1129700D01*
X1128100Y373050D02*
Y376250D01*
X1116500Y363650D02*
X1119700D01*
X1118100Y362050D02*
Y365250D01*
X1116500Y385650D02*
X1119700D01*
X1118100Y384050D02*
Y387250D01*
X953286Y498094D02*
X956286D01*
X954786Y496594D02*
Y499594D01*
X953540Y536702D02*
X956540D01*
X955040Y535202D02*
Y538202D01*
X990878Y496570D02*
X993878D01*
X992378Y495070D02*
Y498070D01*
X991640Y515112D02*
X994640D01*
X993140Y513612D02*
Y516612D01*
X990993Y534785D02*
X993994D01*
X992494Y533285D02*
Y536286D01*
X1137690Y539750D02*
X1140690D01*
X1139190Y538250D02*
Y541250D01*
M02*
