M48
;Layer_Color=9474304
;FILE_FORMAT=2:4
INCH,LZ
;TYPE=PLATED
T1F00S00C0.0118
T2F00S00C0.0126
T3F00S00C0.0906
%
T01
X03945Y01552
X04735Y0215
X04757Y02174
X04735Y02198
X04782
Y0215
X04704Y02465
X04614Y02434
X0461Y023446
X04463Y02369
Y024495
X044436Y02555
X043811Y025264
X043097Y025212
X042781Y024651
X04294Y02408
X04306Y022865
X043795Y022227
X04397Y02163
X04485Y02125
X04463Y0224
X04178Y02249
Y02217
X04254Y02095
X04283Y0203
X04195
X042225Y019246
X04261Y01842
X041225Y018153
X040612
X04007Y01844
X03865Y01853
X03821
X03842Y01877
X03821Y01899
X03865
X03907Y01955
X0391Y02028
X039075Y021055
X0391Y0217
X039678Y021625
X0403
X03983Y02212
X03979Y02273
X03945Y02418
X039341Y024513
X03852Y02455
X03891Y02399
X03986Y02548
X04097Y02595
X0413
X04163
X04199
X042315Y02537
X0417Y02469
X041688Y024207
X04553Y02495
X04476Y01936
X04403Y01707
X03759Y01961
X0376Y02113
X03647Y02149
X03606
X03625Y02176
X03647Y02201
X03604Y02202
X03664Y02371
X03678Y02467
X03746Y02538
T02
X043705Y014435
X043587Y01475
X044
X044413
X044295Y014474
X04402Y014317
Y015183
X044295Y015026
X043705Y015065
X045105Y015385
X04542Y015267
X045695Y015424
X045813Y0157
X045695Y015976
X04542Y016133
X045105Y016015
X044987Y0157
X0454
T03
X047372Y0204
X036428
M30
